<svg version="1.1" xmlns="http://www.w3.org/2000/svg" viewBox="-76.26431036373023 -22.05162862566258 146.00660318962537 44.397130276886514" fill="none" stroke="black" stroke-width="0.6%" vector-effect="non-scaling-stroke">
    <path d="M 12.3224 19.30291 L 19.38446 19.50109 L 27.26311 20.73865 L 44.14503 21.14517 A 5 0.45894 180 0 0 52.40324 21.14557 L 59.90172 20.75141 A 5 0.45894 180 0 0 64.55662 20.29357" />
    <path d="M 8.60895 19.09485 L 12.3224 19.30291 L 12.3224 -4.59578 L 19.38446 -4.3976 L 27.26311 -3.16004 L 44.14503 -2.75351 A 5 0.45894 180 0 0 53.27563 -3.01212 A 5 0.45894 180 0 0 43.27563 -3.01212 A 5 0.45894 180 0 0 43.32371 -2.94863" />
    <path d="M 1.7753 18.66789 A 5 0.45894 180 0 0 8.60895 19.09485" />
    <path d="M -1.67118 18.27754 L 1.7753 18.60285" />
    <path d="M -3.53062 17.97953 L -1.67118 18.27754 L -1.67118 -5.62114 L 1.81947 -5.29167" />
    <path d="M -3.53062 17.97953 A 5 0.45894 0 0 1 -13.25404 17.82901" />
    <path d="M 64.55662 19.97831 L 68.74229 18.5139 L 68.74229 -5.38479 L 61.06364 -6.59093 L 62.09972 -6.84393 L 63.07436 -7.66737 L 62.99756 -7.7163" />
    <path d="M -71.714 10.87275 A 65 5.96617 180 0 0 -13.25404 16.80865" />
    <path d="M -71.07439 7.05051 A 5 0.45894 360 0 1 -75.26431 6.59764" />
    <path d="M 19.38446 19.50109 L 19.38446 -4.3976" />
    <path d="M 8.60895 -4.80384 L 12.3224 -4.59578" />
    <path d="M 8.60895 -4.80384 L 8.60895 19.09485" />
    <path d="M 27.26311 20.73865 L 27.26311 -3.16004" />
    <path d="M 8.60895 -4.80384 A 5 0.45894 360 0 1 1.7753 -5.2308 A 5 0.45894 360 0 1 1.81947 -5.29167" />
    <path d="M 44.14503 -2.75351 L 44.14503 21.14517" />
    <path d="M 52.40324 9.19623 L 52.40324 21.14557" />
    <path d="M 53.27563 8.93722 A 5 0.45894 360 0 1 52.40324 9.19623 L 59.90172 8.80206 A 5 0.45894 360 0 1 54.55662 8.34422" />
    <path d="M -3.53062 7.02596 L -6.15582 6.60522 L -6.64924 6.44079" />
    <path d="M -3.53062 7.02596 L -3.53062 17.97953" />
    <path d="M -6.15582 -6.3399 L -1.67118 -5.62114" />
    <path d="M -6.15582 6.60522 L -6.15582 -6.3399" />
    <path d="M 59.90172 8.80206 L 59.90172 20.75141" />
    <path d="M -3.53062 7.02596 A 5 0.45894 360 0 1 -13.25404 6.87544 A 5 0.45894 360 0 1 -6.64924 6.44079" />
    <path d="M 62.75379 -3.95797 A 5 0.45894 180 0 0 54.55662 -3.60512 A 5 0.45894 180 0 0 64.55662 -3.60512 A 5 0.45894 180 0 0 64.16466 -3.78325 L 68.74229 -5.38479" />
    <path d="M -7.23197 6.4262 L -7.23197 5.25082 L -7.18044 5.2782 L -7.1512 5.27774 L -7.23197 5.25082" />
    <path d="M -7.1512 5.27774 L -7.1512 6.42781" />
    <path d="M -7.66043 -6.8413 L -6.15582 -6.3399" />
    <path d="M -7.66043 6.41975 L -7.66043 -6.8413 L -5.88272 -6.93475 L -4.70366 -6.54184" />
    <path d="M -7.18044 6.42721 L -7.18044 5.2782" />
    <path d="M 62.09972 -6.42819 L 62.09972 -6.84393" />
    <path d="M 63.07436 -6.27509 L 63.07436 -7.66737" />
    <path d="M 61.84404 -8.45108 A 5 0.45894 360 0 1 64.51041 -8.04519 A 5 0.45894 360 0 1 62.99756 -7.7163" />
    <path d="M 61.84404 -8.45108 L 61.78734 -8.48719 L 58.31952 -9.25188 L 52.88879 -9.91338 L 52.0086 -9.97788" />
    <path d="M -13.25404 13.82131 A 65 5.96617 360 0 1 -71.714 7.88542 A 65 5.96617 360 0 1 -56.69616 4.07124" />
    <path d="M -57.03624 4.02186 L -56.69616 4.07124" />
    <path d="M -57.03624 4.02186 L -57.03624 4.1091" />
    <path d="M -66.09913 -4.10203 L -66.09913 5.45972" />
    <path d="M -56.20812 3.7689 A 5 0.45894 360 0 1 -57.03624 4.02186" />
    <path d="M -62.80371 -17.5774 A 5 0.45894 180 0 0 -66.20812 -17.14246 A 5 0.45894 180 0 0 -56.20812 -17.14246 A 5 0.45894 180 0 0 -60.80695 -17.59991" />
    <path d="M -66.09913 -4.10203 A 5 0.45894 360 0 1 -66.20812 -4.19733" />
    <path d="M -70.78648 -4.81235 A 5 0.45894 180 0 0 -75.26431 -4.35593 A 5 0.45894 180 0 0 -66.09913 -4.10203" />
    <path d="M 50.1567 -9.88053 L 52.0086 -9.97788" />
    <path d="M 50.1567 -9.88053 L 50.1567 -9.5631" />
    <path d="M -63.40314 -17.67155 L -63.40314 -17.5548" />
    <path d="M -66.68968 -18.47754 A 5 0.45894 180 0 0 -71.67477 -18.01861 A 5 0.45894 180 0 0 -63.40314 -17.67155 L -62.80371 -17.5774" />
    <path d="M -66.20812 -4.61655 A 5 0.45894 360 0 1 -70.78648 -4.81235" />
    <path d="M -62.21145 -20.04431 L -66.68968 -18.47754" />
    <path d="M -57.66604 -20.2881 L -62.21145 -20.04431" />
    <path d="M -49.19889 -20.74224 A 5 0.45894 180 0 0 -58.92598 -20.59269 A 5 0.45894 180 0 0 -57.66604 -20.2881" />
    <path d="M -17.05279 1.9952 A 65 5.96617 360 0 1 -12.714 1.94472" />
    <path d="M -45.03021 -20.96583 L -49.19889 -20.74224" />
    <path d="M -16.91604 1.93951 L -16.91604 1.99319" />
    <path d="M -17.05279 1.9952 L -16.91604 1.93951 A 5 0.45894 360 0 1 -22.81968 1.48813" />
    <path d="M -27.51624 -20.54408 L -45.03021 -20.96583" />
    <path d="M -21.11142 -19.76867 A 5 0.45894 0 0 1 -12.81968 -19.42322 L -12.81968 1.94563" />
    <path d="M -12.81968 -19.42322 A 5 0.45894 0 0 1 -22.81968 -19.42322 L -22.81968 1.48813" />
    <path d="M -22.81968 -19.42322 A 5 0.45894 0 0 1 -22.32247 -19.62274 L -23.71938 -19.84216 L -23.71938 1.06919 A 5 0.45894 360 0 1 -28.28633 0.61198" />
    <path d="M -27.51624 -20.54408 A 5 0.45894 360 0 1 -18.28633 -20.29937 L -18.28633 -19.88016" />
    <path d="M -18.28633 -20.29937 A 5 0.45894 360 0 1 -21.71612 -19.86366" />
    <path d="M -12.81968 -7.69954 A 5 0.45894 360 0 1 -9.72711 -7.27531 L -9.72711 -4.54017" />
    <path d="M -9.72711 -7.27531 A 5 0.45894 360 0 1 -12.81968 -6.85108" />
    <path d="M -43.58058 2.84465 A 4.15 0.38092 360 0 1 -40.71508 2.84465" />
    <path d="M -21.11142 -19.76867 L -21.71612 -19.86366" />
    <path d="M 28.47232 -3.30626 L 43.32371 -2.94863" />
    <path d="M 26.26367 -3.65319 L 28.47232 -3.30626" />
    <path d="M 26.15981 -3.64773 L 26.26367 -3.65319" />
    <path d="M 20.19619 -4.60353 L 26.15981 -3.64773" />
    <path d="M 20.19619 -4.60353 L 18.6776 -4.52371 L 17.26202 -4.75058 L 17.22336 -4.73706 L 17.90827 -4.62947" />
    <path d="M -1.09082 -5.8946 A 5 0.45894 180 0 0 4.81775 -6.3459 L 4.81775 -5.6531" />
    <path d="M 4.81775 -6.3459 A 5 0.45894 180 0 0 -4.70366 -6.54184" />
    <path d="M -1.09082 -5.8946 L -0.0739 -5.73162 L 2.58274 -5.48086" />
    <path d="M 13.14225 -4.76322 L 17.90827 -4.62947" />
    <path d="M 10.4143 -4.91606 A 5 0.45894 180 0 0 11.7753 -5.2308 L 11.7753 -4.83981" />
    <path d="M 11.7753 -5.2308 A 5 0.45894 180 0 0 2.58274 -5.48086" />
    <path d="M 10.4143 -4.91606 L 13.14225 -4.76322" />
    <path d="M 7.645 -5.09141 A 1.75 0.16063 360 0 1 5.0253 -5.2308 A 1.75 0.16063 360 0 1 8.5253 -5.2308 A 1.75 0.16063 360 0 1 7.645 -5.09141 Z" />
    <path d="M 0.68744 -6.20651 A 1.75 0.16063 360 0 1 -1.93225 -6.3459 A 1.75 0.16063 360 0 1 1.56775 -6.3459 A 1.75 0.16063 360 0 1 0.68744 -6.20651 Z" />
    <path d="M 49.34411 -2.84088 A 1.75 0.16063 360 0 1 46.72442 -2.98026 A 1.75 0.16063 360 0 1 50.22442 -2.98026 A 1.75 0.16063 360 0 1 49.34411 -2.84088 Z" />
    <path d="M 54.55662 8.13107 L 53.27563 8.19841" />
    <path d="M -7.38435 7.01483 A 1.75 0.16063 360 0 1 -10.00404 6.87544 A 1.75 0.16063 360 0 1 -6.50404 6.87544 A 1.75 0.16063 360 0 1 -7.38435 7.01483 Z" />
    <path d="M 59.56138 -8.50411 L 57.27259 -9.0088 L 57.27259 -8.4556" />
    <path d="M 59.56138 -8.50411 A 5 0.45894 180 0 0 54.51041 -8.04519 L 54.51041 4.59008" />
    <path d="M 54.51041 -8.04519 A 5 0.45894 180 0 0 61.00736 -7.60731" />
    <path d="M 52.82474 -9.61855 A 5 0.45894 180 0 0 47.55285 -9.1603 L 47.55285 -3.46624" />
    <path d="M 47.55285 -9.1603 A 5 0.45894 180 0 0 57.27259 -9.0088" />
    <path d="M 60.15417 -6.88648 L 61.00736 -7.60731" />
    <path d="M 52.82474 -9.61855 L 51.45496 -9.7854 L 50.1567 -9.88053" />
    <path d="M 59.79574 -6.79895 L 60.15417 -6.88648" />
    <path d="M 60.3305 -6.71324 L 59.79574 -6.79895" />
    <path d="M 60.3305 -6.71324 L 58.8119 -6.63342 L 64.77552 -5.67762" />
    <path d="M 64.74739 -5.67614 L 64.77552 -5.67762" />
    <path d="M 66.76079 -5.35988 L 64.74739 -5.67614 L 64.74739 -4.65546" />
    <path d="M 62.75379 -3.95797 L 66.76079 -5.35988" />
    <path d="M 60.42632 -3.46573 A 1.75 0.16063 360 0 1 57.80662 -3.60512 A 1.75 0.16063 360 0 1 61.30662 -3.60512 A 1.75 0.16063 360 0 1 60.42632 -3.46573 Z" />
    <path d="M 53.42255 -9.02091 A 1.75 0.16063 360 0 1 50.80285 -9.1603 A 1.75 0.16063 360 0 1 54.30285 -9.1603 A 1.75 0.16063 360 0 1 53.42255 -9.02091 Z" />
    <path d="M 60.3801 -7.90581 A 1.75 0.16063 360 0 1 57.76041 -8.04519 A 1.75 0.16063 360 0 1 61.26041 -8.04519 A 1.75 0.16063 360 0 1 60.3801 -7.90581 Z" />
    <path d="M -22.81968 1.21051 L -23.71938 1.06919" />
    <path d="M -28.28633 0.52406 L -44.75879 0.1274 L -44.75879 -20.78395 L -48.93887 -20.55975 L -48.93887 0.3516 A 5 0.45894 360 0 1 -56.06159 0.73363 L -56.20812 0.74149" />
    <path d="M -44.75879 0.1274 L -48.93887 0.3516" />
    <path d="M -55.80744 2.18727 L -56.20812 2.16587" />
    <path d="M -52.77025 2.02762 L -55.80744 2.18727" />
    <path d="M -52.75801 1.70637 L -52.77025 2.02762" />
    <path d="M -55.78296 1.54477 L -52.75801 1.70637" />
    <path d="M -56.20812 1.56712 L -55.78296 1.54477" />
    <path d="M -45.86808 3.78027 L -48.89303 3.61867 L -48.88079 3.29742 L -45.8436 3.13777 L -42.81865 3.29937 L -42.83089 3.62062 L -45.86808 3.78027 Z" />
    <path d="M -38.61936 2.77188 A 7.1 0.65169 360 0 1 -49.24783 2.20637 A 7.1 0.65169 360 0 1 -35.04783 2.20637 A 7.1 0.65169 360 0 1 -38.61936 2.77188 Z" />
    <path d="M -38.45207 1.27497 L -41.47702 1.11337 L -41.46478 0.79211 L -38.42759 0.63246 L -35.40264 0.79406 L -35.41488 1.11531 L -38.45207 1.27497 Z" />
    <path d="M -28.5127 2.86797 L -31.53765 2.70637 L -31.52541 2.38511 L -28.48822 2.22546 L -25.46327 2.38706 L -25.47551 2.70831 L -28.5127 2.86797 Z" />
    <path d="M -35.28967 3.30554 A 57.5 5.27777 360 0 1 -12.714 2.63646" />
    <path d="M -13.25404 13.12893 A 57.5 5.27777 360 0 1 -64.214 7.88542 A 57.5 5.27777 360 0 1 -35.28967 3.30554" />
    <path d="M -62.18576 -17.81649 L -60.80695 -17.59991" />
    <path d="M -23.71938 -19.84216 A 5 0.45894 360 0 1 -28.28633 -20.29937 L -28.28633 0.61198" />
    <path d="M -28.28633 -20.29937 A 5 0.45894 360 0 1 -28.19819 -20.38516 L -44.75879 -20.78395" />
    <path d="M -48.93887 -20.55975 A 5 0.45894 360 0 1 -56.06159 -20.17772 L -56.06159 0.73363" />
    <path d="M -56.06159 -20.17772 L -60.6184 -19.93332 L -64.86802 -18.44653 A 5 0.45894 360 0 1 -61.67477 -18.01861 L -61.67477 -17.73623" />
    <path d="M -61.67477 -18.01861 A 5 0.45894 360 0 1 -62.18576 -17.81649" />
    <path d="M -60.33842 -17.00307 A 1.75 0.16063 360 0 1 -62.95812 -17.14246 A 1.75 0.16063 360 0 1 -59.45812 -17.14246 A 1.75 0.16063 360 0 1 -60.33842 -17.00307 Z" />
    <path d="M -65.80507 -17.87922 A 1.75 0.16063 360 0 1 -68.42477 -18.01861 A 1.75 0.16063 360 0 1 -64.92477 -18.01861 A 1.75 0.16063 360 0 1 -65.80507 -17.87922 Z" />
    <path d="M -53.25507 -20.48516 A 1.75 0.16063 360 0 1 -55.87477 -20.62455 A 1.75 0.16063 360 0 1 -52.37477 -20.62455 A 1.75 0.16063 360 0 1 -53.25507 -20.48516 Z" />
    <path d="M -16.94999 -19.28383 A 1.75 0.16063 360 0 1 -19.56968 -19.42322 A 1.75 0.16063 360 0 1 -16.06968 -19.42322 A 1.75 0.16063 360 0 1 -16.94999 -19.28383 Z" />
    <path d="M -22.41664 -20.15999 A 1.75 0.16063 360 0 1 -25.03633 -20.29937 A 1.75 0.16063 360 0 1 -21.53633 -20.29937 A 1.75 0.16063 360 0 1 -22.41664 -20.15999 Z" />
    <path d="M -69.39461 -4.21654 A 1.75 0.16063 360 0 1 -72.01431 -4.35593 A 1.75 0.16063 360 0 1 -68.51431 -4.35593 A 1.75 0.16063 360 0 1 -69.39461 -4.21654 Z" />
    <path d="M 51.45496 -9.60803 L 51.45496 -9.7854" />
    <path d="M -37.56678 2.70426 A 7.1 0.65169 180 0 0 -46.72888 2.70426" />
    <path d="M 17.22336 -4.6487 L 17.22336 -4.73706" />
    <path d="M 58.8119 -4.05894 L 58.8119 -6.63342" />
    <path d="M 59.79574 -6.68513 L 59.79574 -6.79895" />
    <path d="M 53.27563 5.07808 L 54.55662 5.01074" />
    <path d="M -60.6184 -17.59819 L -60.6184 -19.93332" />
    <path d="M -55.78296 2.18599 L -55.78296 1.54477" />
    <path d="M -45.8436 3.77899 L -45.8436 3.13777" />
    <path d="M -48.88079 3.61933 L -48.88079 3.29742" />
    <path d="M -38.42759 1.27368 L -38.42759 0.63246" />
    <path d="M -41.46478 1.11402 L -41.46478 0.79211" />
    <path d="M -28.48822 2.86668 L -28.48822 2.22546" />
    <path d="M -31.52541 2.70702 L -31.52541 2.38511" />
    <path d="M -35.28967 4.30132 A 57.5 5.27777 180 0 0 -63.95757 8.38331" />
    <path d="M -12.714 3.63224 A 57.5 5.27777 180 0 0 -35.28967 4.30132" />
    <path d="M 54.55662 4.58765 L 53.27563 4.65498" />
    <path d="M -13.25404 10.61602 A 20 1.83574 360 0 1 -26.714 8.8812" />
    <path d="M -13.25404 9.62024 A 20 1.83574 360 0 1 -26.714 7.88542 L -26.714 8.8812" />
    <path d="M -26.714 7.88542 A 20 1.83574 360 0 1 -12.714 6.13423" />
    <path d="M -9.69581 -4.54183 A 6 0.55072 360 0 1 -7.66043 -4.60775" />
    <path d="M -7.66043 -3.5201 A 6 0.55072 360 0 1 -12.714 -4.06393 L -12.714 6.66798" />
    <path d="M -12.714 -4.06393 A 6 0.55072 360 0 1 -9.69581 -4.54183" />
    <path d="M -7.66043 -3.69305 A 4.15 0.38092 360 0 1 -10.864 -4.06393 A 4.15 0.38092 360 0 1 -7.66043 -4.4348" />
    <path d="M 1.7753 -5.2308 L 1.7753 18.66789" />
    <path d="M 43.27563 -3.01212 L 43.27563 -2.94979" />
    <path d="M 53.27563 -3.01212 L 53.27563 8.93722" />
    <path d="M -13.25404 6.87544 L -13.25404 17.82901" />
    <path d="M 54.55662 -3.60512 L 54.55662 8.34422" />
    <path d="M 64.55662 -3.60512 L 64.55662 20.29357" />
    <path d="M 64.51041 -8.04519 L 64.51041 -6.04952" />
    <path d="M -71.714 7.88542 L -71.714 10.87275" />
    <path d="M -66.20812 -17.14246 L -66.20812 -4.19733" />
    <path d="M -56.20812 -17.14246 L -56.20812 3.7689" />
    <path d="M -75.26431 -4.35593 L -75.26431 6.59764" />
    <path d="M -71.67477 -18.01861 L -71.67477 -4.79622" />
    <path d="M -58.92598 -20.59269 L -58.92598 -20.22053" />
</svg>