<svg version="1.1" xmlns="http://www.w3.org/2000/svg" viewBox="-72.71793776729248 -20.306659275734045 142.44860607090968 40.88319848453942" fill="none" stroke="black" stroke-width="0.6%" vector-effect="non-scaling-stroke">
    <path d="M 53.26162 19.02933 L 55.8217 18.89316 A 5 0.42078 180 0 0 64.54321 18.61215" />
    <path d="M 44.13076 19.39283 A 5 0.42078 180 0 0 53.26162 19.15576" />
    <path d="M 27.24925 19.01998 L 44.13076 19.39283" />
    <path d="M 64.54321 18.32324 L 68.73067 16.98052 L 68.73067 -4.94144 L 61.05323 -6.04736 L 62.08956 -6.27932 L 63.06503 -7.03429 L 62.98828 -7.07914" />
    <path d="M 19.37184 17.88525 L 27.24925 19.01998 L 27.24925 -2.90198 L 44.13076 -2.52912 L 44.13076 19.39283" />
    <path d="M 12.30998 17.70349 L 19.37184 17.88525 L 19.37184 -4.03671 L 27.24925 -2.90198" />
    <path d="M 8.59675 17.5127 L 12.30998 17.70349 L 12.30998 -4.21847 L 19.37184 -4.03671" />
    <path d="M 1.76352 17.12123 A 5 0.42078 180 0 0 8.59675 17.5127" />
    <path d="M -1.68257 16.76327 L 1.76352 17.06155" />
    <path d="M -6.16648 16.10423 L -1.68257 16.76327 L -1.68257 -5.15869 L 1.80775 -4.85658" />
    <path d="M -7.67059 15.64451 L -6.16648 16.10423 L -6.16648 -5.81773 L -1.68257 -5.15869" />
    <path d="M -71.71794 9.97409 A 65 5.47013 180 0 0 -7.67059 15.44363" />
    <path d="M 55.8217 12.91445 L 55.8217 18.89316" />
    <path d="M 53.26162 13.05062 L 55.8217 12.91445" />
    <path d="M 43.30963 -2.70803 A 5 0.42078 360 0 1 43.26162 -2.7662 A 5 0.42078 360 0 1 53.26162 -2.7662 A 5 0.42078 360 0 1 44.13076 -2.52912" />
    <path d="M 64.15142 -3.47309 A 5 0.42078 360 0 1 64.54321 -3.30981 A 5 0.42078 360 0 1 54.54321 -3.30981 A 5 0.42078 360 0 1 62.74073 -3.6333 L 66.74914 -4.91861 L 64.73606 -5.20859 L 64.73606 -4.27311" />
    <path d="M 54.54321 12.63343 A 5 0.42078 180 0 0 55.8217 12.91445" />
    <path d="M 64.15142 -3.47309 L 68.73067 -4.94144" />
    <path d="M 62.08956 -5.89808 L 62.08956 -6.27932" />
    <path d="M 8.59675 -4.40925 L 12.30998 -4.21847" />
    <path d="M 8.59675 -4.40925 L 8.59675 17.5127" />
    <path d="M 63.06503 -5.75756 L 63.06503 -7.03429" />
    <path d="M 8.59675 -4.40925 A 5 0.42078 360 0 1 1.76352 -4.80073 A 5 0.42078 360 0 1 1.80775 -4.85658" />
    <path d="M 61.8355 -7.75284 A 5 0.42078 360 0 1 64.50146 -7.38072 A 5 0.42078 360 0 1 62.98828 -7.07914" />
    <path d="M 61.8355 -7.75284 L 61.77884 -7.78596 L 58.31178 -8.48709 L 52.88172 -9.09364 L 52.0016 -9.15278" />
    <path d="M -7.67059 -6.27745 L -6.16648 -5.81773" />
    <path d="M -7.67059 15.64451 L -7.67059 -6.27745 L -5.89279 -6.36311 L -4.71412 -6.00286" />
    <path d="M -7.67059 9.46492 A 65 5.47013 360 0 1 -71.71794 3.99537 A 65 5.47013 360 0 1 -57.51959 0.58297" />
    <path d="M 50.1496 -9.06354 L 52.0016 -9.15278" />
    <path d="M 50.1496 -9.06354 L 50.1496 -8.77251" />
    <path d="M -57.30194 0.61432 L -57.51959 0.58297" />
    <path d="M -57.30194 -15.32892 L -57.30194 0.61432" />
    <path d="M -57.86328 -15.40978 L -57.30194 -15.32892" />
    <path d="M -57.86328 -15.40978 L -57.86328 0.61952" />
    <path d="M -62.80307 -16.12135 A 5 0.42078 180 0 0 -66.20792 -15.72256 A 5 0.42078 180 0 0 -57.86328 -15.40978" />
    <path d="M -15.74031 -1.42181 A 65 5.47013 360 0 1 -7.67059 -1.47417" />
    <path d="M -63.4024 -16.20768 L -62.80307 -16.12135" />
    <path d="M -63.4024 -16.20768 L -63.4024 -16.10064" />
    <path d="M -15.74031 -17.35683 L -16.15473 -17.41652" />
    <path d="M -15.74031 -1.41358 L -15.74031 -17.35683" />
    <path d="M -66.68814 -16.94668 A 5 0.42078 180 0 0 -71.67369 -16.52591 A 5 0.42078 180 0 0 -63.4024 -16.20768" />
    <path d="M -21.10857 -18.13011 A 5 0.42078 360 0 1 -12.81719 -17.81336 A 5 0.42078 360 0 1 -16.15473 -17.41652" />
    <path d="M -62.20833 -18.38315 L -66.68814 -16.94668" />
    <path d="M -21.10857 -18.13011 L -21.71318 -18.21721 A 5 0.42078 180 0 0 -18.28296 -18.61671 A 5 0.42078 180 0 0 -27.51262 -18.84111 L -45.02616 -19.22792 L -49.19507 -19.02296 A 5 0.42078 180 0 0 -58.92231 -18.88588 A 5 0.42078 180 0 0 -57.66268 -18.60664 L -62.20833 -18.38315" />
    <path d="M -38.61815 -0.69326 A 7.1 0.59751 360 0 1 -49.24606 -1.21179 A 7.1 0.59751 360 0 1 -35.04606 -1.21179 A 7.1 0.59751 360 0 1 -38.61815 -0.69326 Z" />
    <path d="M 54.54321 8.61678 A 5 0.42078 360 0 1 54.50146 8.56252" />
    <path d="M 54.50146 7.92731 A 5 0.42078 360 0 1 53.26162 7.95651" />
    <path d="M -15.74031 -1.41358 L -15.83293 -1.38389 L -15.83293 -17.32713 L -18.08111 -17.2188 L -17.72183 -17.334 L -18.13441 -17.39343 L -18.13441 -1.45019 A 5 0.42078 360 0 1 -22.81719 -1.87012" />
    <path d="M -15.83293 -1.38389 L -18.08111 -1.27556 L -18.08111 -17.2188" />
    <path d="M -18.08111 -1.44251 L -18.13441 -1.45019" />
    <path d="M -22.81719 -2.12473 L -23.71647 -2.25427 A 5 0.42078 360 0 1 -28.28296 -2.67347" />
    <path d="M -28.28296 -2.75411 L -44.75493 -3.11793 L -44.75493 -19.06117 L -48.93523 -18.85564 L -48.93523 -2.9124 A 5 0.42078 360 0 1 -55.1534 -2.53481" />
    <path d="M -55.1534 0.51079 L -57.30194 0.61432" />
    <path d="M -44.75493 -3.11793 L -48.93523 -2.9124" />
    <path d="M 53.26162 10.85562 A 7.1 0.59751 360 0 1 54.54321 10.8853" />
    <path d="M 54.54321 12.00274 A 7.1 0.59751 360 0 1 53.26162 12.03242" />
    <path d="M -45.86789 0.23123 L -48.89268 0.08305 L -48.88011 -0.2115 L -45.84276 -0.35785 L -42.81797 -0.20967 L -42.83054 0.08488 L -45.86789 0.23123 Z" />
    <path d="M -52.7683 -1.37576 L -55.1534 -1.26083" />
    <path d="M -52.75574 -1.6703 L -52.7683 -1.37576" />
    <path d="M -55.1534 -1.78776 L -52.75574 -1.6703" />
    <path d="M -35.289 -0.20395 A 57.5 4.83896 360 0 1 -7.67059 -0.84292" />
    <path d="M -7.67059 8.83367 A 57.5 4.83896 360 0 1 -64.21794 3.99537 A 57.5 4.83896 360 0 1 -35.289 -0.20395" />
    <path d="M -28.5116 -0.60509 L -31.53638 -0.75327 L -31.52382 -1.04782 L -28.48647 -1.19417 L -25.46168 -1.04599 L -25.47424 -0.75144 L -28.5116 -0.60509 Z" />
    <path d="M -38.44936 -2.06572 L -41.47415 -2.21391 L -41.46158 -2.50845 L -38.42423 -2.65481 L -35.39944 -2.50662 L -35.41201 -2.21208 L -38.44936 -2.06572 Z" />
    <path d="M 28.4586 -3.03604 L 43.30963 -2.70803" />
    <path d="M 26.2503 -3.35414 L 28.4586 -3.03604" />
    <path d="M 25.92949 -3.33868 L 26.2503 -3.35414" />
    <path d="M 19.96683 -4.21506 L 25.92949 -3.33868" />
    <path d="M 19.96683 -4.21506 L 18.66511 -4.15234 L 17.24976 -4.36036 L 17.21108 -4.34796 L 17.89589 -4.24932" />
    <path d="M -1.10193 -5.40941 A 5 0.42078 180 0 0 4.80709 -5.82318 L 4.80709 -5.18796" />
    <path d="M 4.80709 -5.82318 A 5 0.42078 180 0 0 -4.71412 -6.00286" />
    <path d="M -1.10193 -5.40941 L -0.08518 -5.25997 L 2.57121 -5.03004" />
    <path d="M 13.13 -4.37198 L 17.89589 -4.24932" />
    <path d="M 10.4022 -4.51214 A 5 0.42078 180 0 0 11.76352 -4.80073 L 11.76352 -4.44219" />
    <path d="M 11.76352 -4.80073 A 5 0.42078 180 0 0 2.57121 -5.03004" />
    <path d="M 10.4022 -4.51214 L 13.13 -4.37198" />
    <path d="M 7.63308 -4.67293 A 1.75 0.14727 360 0 1 5.01352 -4.80073 A 1.75 0.14727 360 0 1 8.51352 -4.80073 A 1.75 0.14727 360 0 1 7.63308 -4.67293 Z" />
    <path d="M 0.67664 -5.69537 A 1.75 0.14727 360 0 1 -1.94291 -5.82318 A 1.75 0.14727 360 0 1 1.55709 -5.82318 A 1.75 0.14727 360 0 1 0.67664 -5.69537 Z" />
    <path d="M 49.32993 -2.60918 A 1.75 0.14727 360 0 1 46.71037 -2.73699 A 1.75 0.14727 360 0 1 50.21037 -2.73699 A 1.75 0.14727 360 0 1 49.32993 -2.60918 Z" />
    <path d="M 64.73606 -5.20859 L 64.98114 -5.2204" />
    <path d="M 59.01849 -6.09678 L 64.98114 -5.2204" />
    <path d="M 60.32021 -6.15951 L 59.01849 -6.09678" />
    <path d="M 60.32021 -6.15951 L 59.78553 -6.23809 L 60.14406 -6.31834 L 60.99797 -6.97923" />
    <path d="M 59.55289 -7.80148 A 5 0.42078 180 0 0 54.50146 -7.38072 L 54.50146 8.56252" />
    <path d="M 54.50146 -7.38072 A 5 0.42078 180 0 0 60.99797 -6.97923" />
    <path d="M 59.55289 -7.80148 L 57.26461 -8.26423 L 57.26461 -7.75705" />
    <path d="M 52.81737 -8.82332 A 5 0.42078 180 0 0 47.54502 -8.40317 L 47.54502 -3.18263" />
    <path d="M 47.54502 -8.40317 A 5 0.42078 180 0 0 57.26461 -8.26423" />
    <path d="M 51.44776 -8.97631 L 50.1496 -9.06354" />
    <path d="M 52.81737 -8.82332 L 51.44776 -8.97631" />
    <path d="M 60.41276 -3.182 A 1.75 0.14727 360 0 1 57.79321 -3.30981 A 1.75 0.14727 360 0 1 61.29321 -3.30981 A 1.75 0.14727 360 0 1 60.41276 -3.182 Z" />
    <path d="M 60.37101 -7.25292 A 1.75 0.14727 360 0 1 57.75146 -7.38072 A 1.75 0.14727 360 0 1 61.25146 -7.38072 A 1.75 0.14727 360 0 1 60.37101 -7.25292 Z" />
    <path d="M 53.41458 -8.27536 A 1.75 0.14727 360 0 1 50.79502 -8.40317 A 1.75 0.14727 360 0 1 54.29502 -8.40317 A 1.75 0.14727 360 0 1 53.41458 -8.27536 Z" />
    <path d="M 51.44776 -8.81369 L 51.44776 -8.97631" />
    <path d="M -55.1534 -15.43245 L -55.1534 0.51079" />
    <path d="M -55.1534 -15.43245 L -57.30194 -15.32892" />
    <path d="M -15.83293 -17.32713 L -15.74031 -17.35683" />
    <path d="M -18.13441 -17.39343 A 5 0.42078 360 0 1 -22.81719 -17.81336 L -22.81719 -1.87012" />
    <path d="M -22.81719 -17.81336 A 5 0.42078 360 0 1 -22.31978 -17.99632 L -23.71647 -18.19751 L -23.71647 -2.25427" />
    <path d="M -23.71647 -18.19751 A 5 0.42078 360 0 1 -28.28296 -18.61671 L -28.28296 -2.67347" />
    <path d="M -28.28296 -18.61671 A 5 0.42078 360 0 1 -28.19473 -18.69541 L -44.75493 -19.06117" />
    <path d="M -48.93523 -18.85564 A 5 0.42078 360 0 1 -56.05833 -18.50543 L -56.05833 -15.45804" />
    <path d="M -56.05833 -18.50543 L -60.61539 -18.28138 L -64.86651 -16.91824 A 5 0.42078 360 0 1 -61.67369 -16.52591 L -61.67369 -16.26693" />
    <path d="M -61.67369 -16.52591 A 5 0.42078 360 0 1 -62.18488 -16.34056 L -60.80629 -16.14198 A 5 0.42078 360 0 1 -56.20792 -15.72256 L -56.20792 -15.47959" />
    <path d="M -56.20792 -15.72256 A 5 0.42078 360 0 1 -56.66918 -15.54604 L -56.01237 -15.45142 L -55.1534 -15.43245" />
    <path d="M -65.80413 -16.3981 A 1.75 0.14727 360 0 1 -68.42369 -16.52591 A 1.75 0.14727 360 0 1 -64.92369 -16.52591 A 1.75 0.14727 360 0 1 -65.80413 -16.3981 Z" />
    <path d="M -60.33836 -15.59475 A 1.75 0.14727 360 0 1 -62.95792 -15.72256 A 1.75 0.14727 360 0 1 -59.45792 -15.72256 A 1.75 0.14727 360 0 1 -60.33836 -15.59475 Z" />
    <path d="M -53.25151 -18.78729 A 1.75 0.14727 360 0 1 -55.87106 -18.91509 A 1.75 0.14727 360 0 1 -52.37106 -18.91509 A 1.75 0.14727 360 0 1 -53.25151 -18.78729 Z" />
    <path d="M -22.4134 -18.4889 A 1.75 0.14727 360 0 1 -25.03296 -18.61671 A 1.75 0.14727 360 0 1 -21.53296 -18.61671 A 1.75 0.14727 360 0 1 -22.4134 -18.4889 Z" />
    <path d="M -16.94763 -17.68556 A 1.75 0.14727 360 0 1 -19.56719 -17.81336 A 1.75 0.14727 360 0 1 -16.06719 -17.81336 A 1.75 0.14727 360 0 1 -16.94763 -17.68556 Z" />
    <path d="M 59.01849 -3.72826 L 59.01849 -6.09678" />
    <path d="M 59.78553 -6.13374 L 59.78553 -6.23809" />
    <path d="M 17.21108 -4.26694 L 17.21108 -4.34796" />
    <path d="M -60.61539 -16.14037 L -60.61539 -18.28138" />
    <path d="M -45.84276 0.23002 L -45.84276 -0.35785" />
    <path d="M -48.88011 0.08366 L -48.88011 -0.2115" />
    <path d="M -35.289 3.78186 A 57.5 4.83896 180 0 0 -59.11502 5.98828" />
    <path d="M -25.45294 3.40629 A 57.5 4.83896 180 0 0 -35.289 3.78186" />
    <path d="M -28.48647 -0.6063 L -28.48647 -1.19417" />
    <path d="M -31.52382 -0.75266 L -31.52382 -1.04782" />
    <path d="M -38.42423 -2.06693 L -38.42423 -2.65481" />
    <path d="M -41.46158 -2.21329 L -41.46158 -2.50845" />
    <path d="M -25.45294 8.57027 A 20 1.68312 360 0 1 -26.71794 7.98118" />
    <path d="M -7.67059 5.67658 A 20 1.68312 360 0 1 -26.71794 3.99537 L -26.71794 7.98118" />
    <path d="M -26.71794 3.99537 A 20 1.68312 360 0 1 -11.71794 2.3657" />
    <path d="M -7.67059 4.40844 A 5 0.42078 360 0 1 -11.71794 3.99537" />
    <path d="M -9.20238 -0.3556 A 5 0.42078 360 0 1 -7.67059 -0.40351" />
    <path d="M -7.67059 0.42263 A 5 0.42078 360 0 1 -11.71794 0.00956 L -11.71794 3.99537" />
    <path d="M -11.71794 0.00956 A 5 0.42078 360 0 1 -9.20238 -0.3556" />
    <path d="M -7.67059 0.34948 A 4.15 0.34925 360 0 1 -10.86794 0.00956 A 4.15 0.34925 360 0 1 -7.67059 -0.33036" />
    <path d="M 43.26162 -2.7662 L 43.26162 -2.70909" />
    <path d="M 53.26162 -2.7662 L 53.26162 19.15576" />
    <path d="M 54.54321 -3.30981 L 54.54321 12.63343" />
    <path d="M 64.54321 -3.30981 L 64.54321 18.61215" />
    <path d="M 1.76352 -4.80073 L 1.76352 17.12123" />
    <path d="M 64.50146 -7.38072 L 64.50146 -5.55065" />
    <path d="M -71.71794 3.99537 L -71.71794 9.97409" />
    <path d="M -66.20792 -15.72256 L -66.20792 1.79129" />
    <path d="M -71.67369 -16.52591 L -71.67369 3.79356" />
    <path d="M -12.81719 -17.81336 L -12.81719 -1.45062" />
    <path d="M -18.28296 -18.61671 L -18.28296 -18.23231" />
    <path d="M -58.92231 -18.88588 L -58.92231 -18.54471" />
</svg>