<svg version="1.1" xmlns="http://www.w3.org/2000/svg" viewBox="-75.75694682359912 -15.235726977411447 140.81679042290426 32.12235785974527" fill="none" stroke="black" stroke-width="0.6%" vector-effect="non-scaling-stroke">
    <path d="M -37.75843 -13.56124 A 41 3.56387 0 0 1 27.24305 -10.67186 A 41 3.56387 0 0 1 -54.75695 -10.67186 A 41 3.56387 0 0 1 -37.75843 -13.56124 Z" />
    <path d="M -54.75695 4.27137 A 41 3.56387 180 0 0 27.24305 4.27137" />
    <path d="M -7.31752 -9.89666 A 11 0.95616 180 0 0 -2.75695 -10.67186 A 11 0.95616 180 0 0 -24.75695 -10.67186 A 11 0.95616 180 0 0 -7.31752 -9.89666 Z" />
    <path d="M 16.32936 13.65427 L 34.87309 15.88663 L 64.05984 14.05476 L 64.05984 11.06611 L 45.51612 8.83375 L 42.64543 6.39049" />
    <path d="M 34.87309 15.88663 L 34.87309 12.89798 L 64.05984 11.06611" />
    <path d="M 16.32936 10.66562 L 34.87309 12.89798" />
    <path d="M 16.32936 10.66562 L 16.32936 13.65427" />
    <path d="M -9.44839 12.64874 A 61 5.30234 0 0 1 -74.75695 7.35964" />
    <path d="M 47.24305 7.35964 A 61 5.30234 0 0 1 45.3315 8.67662" />
    <path d="M -9.44839 12.64874 L 16.32936 13.65427" />
    <path d="M -9.44839 9.66009 A 61 5.30234 0 0 1 -74.75695 4.37099 L -74.75695 7.35964" />
    <path d="M -74.75695 4.37099 A 61 5.30234 0 0 1 -54.75695 0.44496" />
    <path d="M 27.24305 0.44496 A 61 5.30234 0 0 1 47.24305 4.37099 L 47.24305 7.35964" />
    <path d="M 47.24305 4.37099 A 61 5.30234 0 0 1 42.64543 6.39049" />
    <path d="M -9.44839 9.66009 L 16.32936 10.66562" />
    <path d="M -9.44839 9.66009 L -9.44839 12.64874" />
    <path d="M -54.75695 -10.67186 L -54.75695 4.27137" />
    <path d="M 27.24305 -10.67186 L 27.24305 4.27137" />
</svg>