<svg version="1.1" xmlns="http://www.w3.org/2000/svg" viewBox="-75.75694682359912 -15.235726977411447 140.81679042290426 32.12235785974527" fill="none" stroke="black" stroke-width="0.6%" vector-effect="non-scaling-stroke">
    <path d="M -9.44839 9.66009 A 61 5.30234 0 0 1 -74.75695 4.37099 A 61 5.30234 0 0 1 -54.75695 0.44496" />
    <path d="M 27.24305 0.44496 A 61 5.30234 0 0 1 41.40436 2.10725" />
    <path d="M -74.75695 7.35964 A 61 5.30234 180 0 0 -9.44839 12.64874 L 16.32936 13.65427 L 16.32936 2.69591 L 34.87309 4.92827 L 34.87309 15.88663 L 64.05984 14.05476" />
    <path d="M -9.44839 9.66009 L -9.44839 12.64874" />
    <path d="M -10.08475 9.63527 L -9.44839 9.66009" />
    <path d="M 45.51612 0.86403 L 42.57456 -1.63955 L 41.40436 -1.5661 L 41.40436 3.71423" />
    <path d="M 16.32936 13.65427 L 34.87309 15.88663" />
    <path d="M -10.08475 9.63527 L -10.08475 1.66555 L 16.32936 2.69591" />
    <path d="M -8.91455 1.5921 L -10.08475 1.66555" />
    <path d="M -8.12443 1.62292 L -8.12443 1.67056" />
    <path d="M -8.91455 1.5921 L -8.12443 1.62292" />
    <path d="M -8.59252 1.6523 L -8.12443 1.62292" />
    <path d="M 16.69112 2.63856 L -8.59252 1.6523" />
    <path d="M 17.1592 2.60918 L 16.69112 2.63856" />
    <path d="M 17.1592 2.60918 L 17.60289 2.62649" />
    <path d="M 31.69869 4.32339 L 17.60289 2.62649" />
    <path d="M 31.69869 4.32339 L 58.45321 2.64418" />
    <path d="M 44.35741 0.94727 L 58.45321 2.64418" />
    <path d="M 44.35741 3.52888 L 44.35741 0.94727 L 44.308 0.90522 L 44.308 3.53198" />
    <path d="M 44.77609 0.87584 L 44.308 0.90522" />
    <path d="M 41.96043 -1.52059 L 44.77609 0.87584" />
    <path d="M 41.96043 3.67933 L 41.96043 -1.52059" />
    <path d="M 41.49234 -1.49121 L 41.96043 -1.52059" />
    <path d="M 41.49234 3.7087 L 41.49234 -1.49121 L 41.40436 -1.5661" />
    <path d="M 64.05984 3.09639 L 64.05984 14.05476" />
    <path d="M 64.05984 3.09639 L 45.51612 0.86403" />
    <path d="M 34.87309 4.92827 L 64.05984 3.09639" />
    <path d="M -37.75843 -13.56124 A 41 3.56387 0 0 1 27.24305 -10.67186 L 27.24305 3.78701" />
    <path d="M 27.24305 -10.67186 A 41 3.56387 0 0 1 -54.75695 -10.67186 L -54.75695 4.27137 A 41 3.56387 180 0 0 -10.08475 7.82092" />
    <path d="M -54.75695 -10.67186 A 41 3.56387 0 0 1 -37.75843 -13.56124" />
    <path d="M -7.31752 -9.89666 A 11 0.95616 180 0 0 -2.75695 -10.67186 A 11 0.95616 180 0 0 -24.75695 -10.67186 A 11 0.95616 180 0 0 -7.31752 -9.89666 Z" />
    <path d="M -74.75695 4.37099 L -74.75695 7.35964" />
</svg>