<svg version="1.1" xmlns="http://www.w3.org/2000/svg" viewBox="-74.3331838403472 -17.041125071580616 143.3955488072907 34.050868605704586" fill="none" stroke="black" stroke-width="0.6%" vector-effect="non-scaling-stroke">
    <path d="M -14.24284 -2.56777 A 65 4.58022 360 0 1 -8.5154 -2.58672" />
    <path d="M -8.5154 12.55876 A 65 4.58022 360 0 1 -73.33318 7.97856" />
    <path d="M -8.5154 12.72695 L -6.94894 13.11064 L -2.37578 13.65881 L 3.98835 14.10962 L 11.74358 14.43475 L 18.82968 14.58124 L 26.86073 15.52495 L 42.45561 15.79997 A 5 0.35232 180 0 0 52.0281 15.65742" />
    <path d="M 52.0281 15.5504 L 56.24641 15.35774 A 5 0.35232 180 0 0 64.95925 15.12177" />
    <path d="M 64.95925 14.65769 L 68.06236 13.78398 L 68.06236 -4.17128 L 60.23518 -5.09104 L 61.23993 -5.28608 L 62.11277 -5.91897 L 60.72454 -6.54728 L 57.16246 -7.13152 L 54.50104 -7.3746" />
    <path d="M -14.24284 -2.56777 A 5 0.35232 0 0 1 -23.70824 -2.72628" />
    <path d="M -23.70824 -2.93499 L -29.51484 -3.61731 L -47.33408 -3.93155 L -56.81209 -3.53106" />
    <path d="M 54.65152 4.83821 A 5 0.35232 360 0 1 52.0281 5.04972" />
    <path d="M 54.95925 4.86632 L 54.65152 4.83821" />
    <path d="M -56.81209 -0.94078 A 5 0.35232 360 0 1 -62.01833 -0.58875" />
    <path d="M -8.5154 6.57368 A 65 4.58022 360 0 1 -73.33318 1.99348 A 65 4.58022 360 0 1 -62.01833 -0.58875" />
    <path d="M 54.95925 9.13668 A 5 0.35232 180 0 0 56.24641 9.37266 L 56.24641 15.35774" />
    <path d="M 52.0281 9.56532 L 56.24641 9.37266" />
    <path d="M -47.36244 -1.60726 L -50.37971 -1.48228 L -50.35226 -1.23566 L -47.30753 -1.11402 L -44.29026 -1.23901 L -44.31772 -1.48563 L -47.36244 -1.60726 Z" />
    <path d="M -54.45327 -2.70055 L -56.81209 -2.79478" />
    <path d="M -54.42581 -2.45393 L -54.45327 -2.70055" />
    <path d="M -56.81209 -2.35508 L -54.42581 -2.45393" />
    <path d="M 52.0281 7.80461 A 7.1 0.5003 360 0 1 54.95925 7.83652" />
    <path d="M 54.95925 8.77166 A 7.1 0.5003 360 0 1 52.0281 8.80358" />
    <path d="M 52.0281 7.67794 L 52.26181 7.66826 L 52.23161 7.39698 L 52.0281 7.38885" />
    <path d="M -37.47289 -1.49942 A 57.5 4.05173 360 0 1 -8.5154 -2.05823" />
    <path d="M -8.5154 6.04519 A 57.5 4.05173 360 0 1 -65.83318 1.99348 A 57.5 4.05173 360 0 1 -37.47289 -1.49942" />
    <path d="M -40.10813 -1.8153 A 7.1 0.5003 360 0 1 -50.80625 -2.2466 A 7.1 0.5003 360 1 1 -36.60625 -2.2466 A 7.1 0.5003 360 0 1 -40.10813 -1.8153 Z" />
    <path d="M -30.98298 -2.28575 L -34.00025 -2.16077 L -33.97279 -1.91415 L -30.92807 -1.79251 L -27.9108 -1.9175 L -27.93826 -2.16412 L -30.98298 -2.28575 Z" />
    <path d="M -41.11853 -3.50067 L -44.1358 -3.37569 L -44.10834 -3.12907 L -41.06362 -3.00744 L -38.04635 -3.13242 L -38.07381 -3.37904 L -41.11853 -3.50067 Z" />
    <path d="M -22.02255 -14.96025 A 5 0.35232 360 0 1 -13.70824 -14.69645 A 5 0.35232 360 1 1 -23.70824 -14.69645 A 5 0.35232 360 0 1 -23.22194 -14.84802 L -29.51484 -15.58748 L -47.33408 -15.90172 L -63.08756 -15.23606 L -67.54711 -13.98043 L -61.43556 -13.26227" />
    <path d="M -63.43604 -13.24417 A 5 0.35232 180 0 0 -66.81209 -12.91095 A 5 0.35232 180 0 0 -56.81209 -12.91095 A 5 0.35232 180 0 0 -61.43556 -13.26227" />
    <path d="M -6.74936 -5.30147 L -8.5154 -5.22831 L -6.94894 -4.84462 L -2.37578 -4.29645 L 3.98835 -3.84563 L 11.74358 -3.52051 L 18.82968 -3.37402 L 26.86073 -2.43031 L 42.45561 -2.15529 L 42.45561 15.79997" />
    <path d="M -8.5154 12.72695 L -8.5154 -5.22831" />
    <path d="M -69.5254 -13.95972 L -63.43604 -13.24417" />
    <path d="M -69.5254 0.44885 L -69.5254 -13.95972" />
    <path d="M -6.94894 13.11064 L -6.94894 -4.84462" />
    <path d="M -64.69423 -15.31999 L -69.5254 -13.95972" />
    <path d="M -2.37578 13.65881 L -2.37578 -4.29645" />
    <path d="M -47.62795 -16.04112 L -64.69423 -15.31999" />
    <path d="M 3.98835 14.10962 L 3.98835 -3.84563" />
    <path d="M -28.32377 -15.7007 L -47.62795 -16.04112" />
    <path d="M 11.74358 14.43475 L 11.74358 -3.52051" />
    <path d="M -22.02255 -14.96025 L -28.32377 -15.7007" />
    <path d="M 18.82968 14.58124 L 18.82968 -3.37402" />
    <path d="M 26.86073 15.52495 L 26.86073 -2.43031" />
    <path d="M 42.02811 -2.29705 A 5 0.35232 0 0 1 42.0281 -2.29784 L 42.0281 -2.29705" />
    <path d="M 42.0281 -2.29784 A 5 0.35232 0 1 1 52.0281 -2.29784 L 52.0281 15.65742" />
    <path d="M 52.0281 -2.29784 A 5 0.35232 0 0 1 42.45561 -2.15529" />
    <path d="M 50.76225 -7.68378 L 48.9225 -7.60758 L 48.9225 -7.58455" />
    <path d="M 51.65035 -7.63498 L 50.76225 -7.68378" />
    <path d="M 64.03563 -3.03751 A 5 0.35232 360 0 1 64.95925 -2.83349 L 64.95925 15.12177" />
    <path d="M 64.95925 -2.83349 A 5 0.35232 360 1 1 54.95925 -2.83349 L 54.95925 9.13668" />
    <path d="M 54.95925 -2.83349 A 5 0.35232 360 0 1 62.48605 -3.13751 L 66.08407 -4.15057 L 64.03172 -4.39174 L 64.03172 -3.57271" />
    <path d="M 52.92163 -7.51886 L 51.65035 -7.63498" />
    <path d="M 64.03563 -3.03751 L 68.06236 -4.17128" />
    <path d="M 52.92163 -7.51886 A 5 0.35232 360 0 1 54.50104 -7.3746" />
    <path d="M 61.23993 -4.97297 L 61.23993 -5.28608" />
    <path d="M 62.11277 -4.8704 L 62.11277 -5.91897" />
    <path d="M -29.51484 -3.61731 L -29.51484 -15.58748" />
    <path d="M -47.33408 -3.93155 L -47.33408 -15.90172" />
    <path d="M -63.08756 -13.4564 L -63.08756 -15.23606" />
    <path d="M 49.2701 -7.58847 L 48.9225 -7.60758" />
    <path d="M 54.65152 -7.13196 L 54.65152 4.83821" />
    <path d="M 49.2701 -7.58847 A 5 0.35232 180 0 0 44.88715 -7.23884 L 44.88715 -2.61623" />
    <path d="M 44.88715 -7.23884 A 5 0.35232 180 0 0 54.65152 -7.13196" />
    <path d="M 55.4383 -7.0601 L 54.65152 -7.13196" />
    <path d="M 55.4383 -2.98398 L 55.4383 -7.0601" />
    <path d="M 58.80249 -6.50832 L 55.4383 -7.0601" />
    <path d="M 58.80249 -5.15599 L 58.80249 -6.50832" />
    <path d="M 60.1136 -5.91492 L 58.80249 -6.50832" />
    <path d="M 59.28925 -5.31718 L 60.1136 -5.91492" />
    <path d="M 58.94166 -5.24971 L 59.28925 -5.31718" />
    <path d="M 58.94166 -5.16175 L 58.94166 -5.24971 L 59.48697 -5.18434 L 58.19386 -5.13078 L 64.27519 -4.40182 L 64.03172 -4.39174" />
    <path d="M -6.74936 -5.30147 L -6.52043 -5.24539" />
    <path d="M -3.34958 -4.68907 A 5 0.35232 180 0 0 2.50317 -5.03623 L 2.50317 -4.14909" />
    <path d="M 2.50317 -5.03623 A 5 0.35232 180 0 0 -6.52043 -5.24539" />
    <path d="M 58.19386 -3.16312 L 58.19386 -5.13078" />
    <path d="M -3.34958 -4.68907 L -0.79226 -4.38253 L 5.21832 -3.95676 L 12.5427 -3.6497 L 17.32494 -3.55084" />
    <path d="M 16.62677 -3.63288 L 17.32494 -3.55084" />
    <path d="M 16.62677 -3.56527 L 16.62677 -3.63288" />
    <path d="M 16.66376 -3.64329 L 16.62677 -3.63288" />
    <path d="M 18.10728 -3.47026 L 16.66376 -3.64329" />
    <path d="M 19.4004 -3.52383 L 18.10728 -3.47026" />
    <path d="M 28.0518 -2.54352 L 42.02811 -2.29705" />
    <path d="M 19.4004 -3.52383 L 25.48173 -2.79487" />
    <path d="M 25.80042 -2.80807 L 28.0518 -2.54352" />
    <path d="M 25.80042 -2.80807 L 25.48173 -2.79487" />
    <path d="M -47.36244 -1.11622 L -47.36244 -1.60726" />
    <path d="M -44.31772 -1.23787 L -44.31772 -1.48563" />
    <path d="M -54.45327 -2.45279 L -54.45327 -2.70055" />
    <path d="M 52.23161 7.66951 L 52.23161 7.39698" />
    <path d="M -37.47289 2.49063 A 57.5 4.05173 180 0 0 -58.37975 3.98851" />
    <path d="M -28.33318 2.1848 A 57.5 4.05173 180 0 0 -37.47289 2.49063" />
    <path d="M -30.98298 -1.79471 L -30.98298 -2.28575" />
    <path d="M -27.93826 -1.91636 L -27.93826 -2.16412" />
    <path d="M -41.11853 -3.00963 L -41.11853 -3.50067" />
    <path d="M -38.07381 -3.13128 L -38.07381 -3.37904" />
    <path d="M -61.05192 -12.81983 A 1.5 0.1057 360 0 1 -63.31209 -12.91095 A 1.5 0.1057 360 0 1 -60.31209 -12.91095 A 1.5 0.1057 360 0 1 -61.05192 -12.81983 Z" />
    <path d="M -17.94808 -14.60533 A 1.5 0.1057 360 0 1 -20.20824 -14.69645 A 1.5 0.1057 360 0 1 -17.20824 -14.69645 A 1.5 0.1057 360 0 1 -17.94808 -14.60533 Z" />
    <path d="M 47.99097 -2.18242 A 1.5 0.1057 360 0 1 45.73081 -2.27354 A 1.5 0.1057 360 0 1 48.73081 -2.27354 A 1.5 0.1057 360 0 1 47.99097 -2.18242 Z" />
    <path d="M -1.73667 -4.94511 A 1.5 0.1057 360 0 1 -3.99683 -5.03623 A 1.5 0.1057 360 0 1 -0.99683 -5.03623 A 1.5 0.1057 360 0 1 -1.73667 -4.94511 Z" />
    <path d="M 60.71942 -2.74237 A 1.5 0.1057 360 0 1 58.45925 -2.83349 A 1.5 0.1057 360 0 1 61.45925 -2.83349 A 1.5 0.1057 360 0 1 60.71942 -2.74237 Z" />
    <path d="M 50.64731 -7.14772 A 1.5 0.1057 360 0 1 48.38715 -7.23884 A 1.5 0.1057 360 0 1 51.38715 -7.23884 A 1.5 0.1057 360 0 1 50.64731 -7.14772 Z" />
    <path d="M -14.94458 1.72936 L -14.88497 2.26487 L -8.5154 2.51933" />
    <path d="M -8.5154 1.46304 L -14.94458 1.72936" />
    <path d="M -8.5154 3.40272 A 20 1.4093 360 0 1 -28.33318 1.99348 L -28.33318 5.79221" />
    <path d="M -28.33318 1.99348 A 20 1.4093 360 0 1 -8.5154 0.58424" />
    <path d="M -23.70824 -14.69645 L -23.70824 -2.72628" />
    <path d="M -13.70824 -14.69645 L -13.70824 -2.57105" />
    <path d="M -73.33318 1.99348 L -73.33318 7.97856" />
    <path d="M -66.81209 -12.91095 L -66.81209 -0.00606" />
    <path d="M -56.81209 -12.91095 L -56.81209 -0.94078" />
</svg>