<svg version="1.1" xmlns="http://www.w3.org/2000/svg" viewBox="-74.33635810882588 -14.385062188372425 143.39247339613058 28.744175389616455" fill="none" stroke="black" stroke-width="0.6%" vector-effect="non-scaling-stroke">
    <path d="M 52.02086 12.97557 L 56.23932 12.81471 A 5 0.29419 180 0 0 64.95229 12.61767" />
    <path d="M 42.44829 13.18394 A 5 0.29419 180 0 0 52.02086 13.06492" />
    <path d="M 26.85356 12.95426 L 42.44829 13.18394" />
    <path d="M 64.95229 12.23023 L 68.05611 11.50063 L 68.05611 -3.47339 L 60.22942 -4.24141 L 61.23427 -4.40427 L 62.10745 -4.93274 L 60.71955 -5.45738 L 57.15777 -5.94523 L 51.64593 -6.36564 L 50.75786 -6.4064 L 48.91807 -6.34276 L 48.91807 -6.13799" />
    <path d="M 18.823 12.16624 L 26.85356 12.95426 L 26.85356 -2.01975 L 42.44829 -1.79008 L 42.44829 13.18394" />
    <path d="M 11.73699 12.0439 L 18.823 12.16624 L 18.823 -2.80778 L 26.85356 -2.01975" />
    <path d="M 3.98193 11.7724 L 11.73699 12.0439 L 11.73699 -2.93011 L 18.823 -2.80778" />
    <path d="M -2.38197 11.39596 L 3.98193 11.7724 L 3.98193 -3.20161 L 11.73699 -2.93011" />
    <path d="M -6.95483 10.93822 L -2.38197 11.39596 L -2.38197 -3.57806 L 3.98193 -3.20161" />
    <path d="M -8.52109 10.61783 L -6.95483 10.93822 L -6.95483 -4.0358 L -2.38197 -3.57806" />
    <path d="M -73.33636 6.65289 A 65 3.82452 180 0 0 -8.52109 10.47739" />
    <path d="M 56.23932 6.8251 L 56.23932 12.81471" />
    <path d="M 52.02086 6.98597 L 56.23932 6.8251" />
    <path d="M 42.02087 -1.90844 A 5 0.29419 360 0 1 42.02086 -1.90909 A 5 0.29419 360 1 1 52.02086 -1.90909 A 5 0.29419 360 0 1 42.44829 -1.79008" />
    <path d="M 64.02878 -2.52669 A 5 0.29419 360 0 1 64.95229 -2.35634 A 5 0.29419 360 0 1 54.95229 -2.35634 A 5 0.29419 360 0 1 62.47926 -2.61019 L 66.07781 -3.4561 L 64.02559 -3.65748 L 64.02559 -2.97369" />
    <path d="M 54.95229 6.62807 A 5 0.29419 180 0 0 56.23932 6.8251" />
    <path d="M 64.02878 -2.52669 L 68.05611 -3.47339" />
    <path d="M 61.23427 -4.1428 L 61.23427 -4.40427" />
    <path d="M 62.10745 -4.05712 L 62.10745 -4.93274" />
    <path d="M -8.52109 -4.35619 L -6.95483 -4.0358" />
    <path d="M -8.52109 10.61783 L -8.52109 -4.35619" />
    <path d="M -6.75501 -4.41727 L -8.52109 -4.35619" />
    <path d="M -8.52109 4.48779 A 65 3.82452 360 0 1 -73.33636 0.66328 A 65 3.82452 360 0 1 -59.5968 -1.68833" />
    <path d="M -59.37492 -1.66656 L -59.5968 -1.68833" />
    <path d="M -59.37492 -10.65097 L -59.37492 -1.66656" />
    <path d="M -59.94717 -10.70712 L -59.37492 -10.65097 L -57.24054 -10.72478 L -57.24054 -1.74038 L -59.37492 -1.66656" />
    <path d="M -59.94717 -10.70712 L -59.94717 -1.66165" />
    <path d="M -18.09059 -3.11793 A 65 3.82452 360 0 1 -13.33636 -3.1499" />
    <path d="M 21.32124 -2.73993 A 65 3.82452 360 0 1 39.09934 -1.95147" />
    <path d="M -64.98299 -11.20128 A 5 0.29419 180 0 0 -68.33394 -10.92354 A 5 0.29419 180 0 0 -59.94717 -10.70712" />
    <path d="M -18.09059 -12.09658 L -18.51307 -12.13803" />
    <path d="M -18.09059 -3.11217 L -18.09059 -12.09658" />
    <path d="M -69.52647 -11.64712 L -64.98299 -11.20128" />
    <path d="M -69.52647 -0.62684 L -69.52647 -11.64712" />
    <path d="M -23.56322 -12.6336 A 5 0.29419 360 0 1 -15.22915 -12.41436 A 5 0.29419 360 0 1 -18.51307 -12.13803" />
    <path d="M -64.69457 -12.78295 L -69.52647 -11.64712" />
    <path d="M -23.56322 -12.6336 L -28.32391 -13.10076 L -47.62791 -13.38506 L -64.69457 -12.78295" />
    <path d="M -40.61604 -2.56788 A 7.1 0.41776 360 0 1 -51.31393 -2.92802 A 7.1 0.41776 360 0 1 -37.11393 -2.92802 A 7.1 0.41776 360 0 1 -40.61604 -2.56788 Z" />
    <path d="M 54.95229 3.30891 A 5 0.29419 360 0 1 52.02086 3.39365" />
    <path d="M -18.09059 -3.11217 L -18.17918 -3.09134 L -18.17918 -12.07575 L -18.09059 -12.09658" />
    <path d="M -18.17918 -3.09134 L -20.41254 -3.0141 L -20.41254 -11.99851 L -18.17918 -12.07575" />
    <path d="M -20.41254 -3.1286 L -20.48949 -3.13616 A 5 0.29419 360 0 1 -25.22915 -3.42995" />
    <path d="M -25.22915 -3.60125 L -29.51504 -4.02182 L -29.51504 -13.00623 L -47.33411 -13.26866 L -63.08795 -12.71286 L -67.54817 -11.66441 L -62.98914 -11.21704 A 5 0.29419 360 0 1 -58.33394 -10.92354 L -58.33394 -10.76023" />
    <path d="M -29.51504 -4.02182 L -47.33411 -4.28425 L -47.33411 -13.26866" />
    <path d="M -47.33411 -4.28425 L -57.24054 -3.93475" />
    <path d="M 52.02086 5.41516 A 7.1 0.41776 360 0 1 54.95229 5.46922" />
    <path d="M 54.95229 6.19354 A 7.1 0.41776 360 0 1 52.02086 6.24761" />
    <path d="M -47.74011 -1.91668 L -50.78477 -2.01826 L -50.81209 -2.22418 L -47.79475 -2.32854 L -44.7501 -2.22697 L -44.72277 -2.02104 L -47.74011 -1.91668 Z" />
    <path d="M -54.85768 -3.03553 L -57.24054 -2.95312" />
    <path d="M -54.885 -3.24146 L -54.85768 -3.03553" />
    <path d="M -57.24054 -3.32005 L -54.885 -3.24146" />
    <path d="M -37.47421 -2.25338 A 57.5 3.38323 360 0 1 -13.33636 -2.70713" />
    <path d="M -8.52109 4.0465 A 57.5 3.38323 360 0 1 -65.83636 0.66328 A 57.5 3.38323 360 0 1 -37.47421 -2.25338" />
    <path d="M -30.49819 -2.51301 L -33.54285 -2.61458 L -33.57017 -2.82051 L -30.55284 -2.92487 L -27.50818 -2.82329 L -27.48086 -2.61737 L -30.49819 -2.51301 Z" />
    <path d="M -40.6331 -3.5275 L -43.67776 -3.62907 L -43.70508 -3.835 L -40.68774 -3.93936 L -37.64309 -3.83779 L -37.61576 -3.63186 L -40.6331 -3.5275 Z" />
    <path d="M 28.04468 -2.11428 L 42.02087 -1.90844" />
    <path d="M 25.79345 -2.33519 L 28.04468 -2.11428" />
    <path d="M 25.79345 -2.33519 L 25.47475 -2.32417" />
    <path d="M 19.3938 -2.93286 L 25.47475 -2.32417" />
    <path d="M -6.75501 -4.41727 L -5.52764 -4.1662" />
    <path d="M 19.3938 -2.93286 L 18.10066 -2.88814 L 16.65723 -3.03263 L 16.62024 -3.02393 L 17.31836 -2.95543" />
    <path d="M -1.83532 -3.75373 A 5 0.29419 180 0 0 4.01761 -4.04361 L 4.01761 -3.36505" />
    <path d="M 4.01761 -4.04361 A 5 0.29419 180 0 0 -5.52764 -4.1662" />
    <path d="M -1.83532 -3.75373 L -0.79839 -3.64993 L 5.21195 -3.2944 L 12.53617 -3.03799 L 17.31836 -2.95543" />
    <path d="M 48.11036 -1.80004 A 1.75 0.10297 360 0 1 45.47355 -1.8888 A 1.75 0.10297 360 0 1 48.97355 -1.8888 A 1.75 0.10297 360 0 1 48.11036 -1.80004 Z" />
    <path d="M -0.09558 -3.95484 A 1.75 0.10297 360 0 1 -2.73239 -4.04361 A 1.75 0.10297 360 0 1 0.76761 -4.04361 A 1.75 0.10297 360 0 1 -0.09558 -3.95484 Z" />
    <path d="M 64.26906 -3.6659 L 64.02559 -3.65748" />
    <path d="M 58.18811 -4.2746 L 64.26906 -3.6659" />
    <path d="M 59.48126 -4.31932 L 58.18811 -4.2746" />
    <path d="M 58.93598 -4.3739 L 59.48126 -4.31932" />
    <path d="M 58.93598 -4.3739 L 59.28361 -4.43025 L 60.10827 -4.92936 L 58.79748 -5.42485 L 56.14085 -5.78873 L 56.14085 -2.54675" />
    <path d="M 50.22795 -6.28265 L 48.91807 -6.34276" />
    <path d="M 51.61819 -6.17661 L 50.22795 -6.28265" />
    <path d="M 51.61819 -6.17661 A 5 0.29419 180 0 0 46.40276 -5.88269 L 46.40276 -2.20103" />
    <path d="M 46.40276 -5.88269 A 5 0.29419 180 0 0 56.14085 -5.78873" />
    <path d="M 60.8391 -2.26757 A 1.75 0.10297 360 0 1 58.20229 -2.35634 A 1.75 0.10297 360 0 1 61.70229 -2.35634 A 1.75 0.10297 360 0 1 60.8391 -2.26757 Z" />
    <path d="M 52.28956 -5.79392 A 1.75 0.10297 360 0 1 49.65276 -5.88269 A 1.75 0.10297 360 0 1 53.15276 -5.88269 A 1.75 0.10297 360 0 1 52.28956 -5.79392 Z" />
    <path d="M 50.22795 -6.16865 L 50.22795 -6.28265" />
    <path d="M -20.41254 -11.99851 L -20.0689 -12.07929 L -20.48949 -12.12056 L -20.48949 -3.13616" />
    <path d="M -20.48949 -12.12056 A 5 0.29419 360 0 1 -25.22915 -12.41436 L -25.22915 -3.42995" />
    <path d="M -25.22915 -12.41436 A 5 0.29419 360 0 1 -24.75623 -12.53925 L -29.51504 -13.00623" />
    <path d="M -58.33394 -10.92354 A 5 0.29419 360 0 1 -58.7716 -10.80318 L -58.10202 -10.73747 L -57.24054 -10.72478" />
    <path d="M -62.44714 -10.83478 A 1.75 0.10297 360 0 1 -65.08394 -10.92354 A 1.75 0.10297 360 0 1 -61.58394 -10.92354 A 1.75 0.10297 360 0 1 -62.44714 -10.83478 Z" />
    <path d="M -19.34235 -12.32559 A 1.75 0.10297 360 0 1 -21.97915 -12.41436 A 1.75 0.10297 360 0 1 -18.47915 -12.41436 A 1.75 0.10297 360 0 1 -19.34235 -12.32559 Z" />
    <path d="M 58.18811 -2.63161 L 58.18811 -4.2746" />
    <path d="M 58.93598 -4.30046 L 58.93598 -4.3739" />
    <path d="M 58.79748 -4.29567 L 58.79748 -5.42485" />
    <path d="M 16.62024 -2.96748 L 16.62024 -3.02393" />
    <path d="M -63.08795 -11.22673 L -63.08795 -12.71286" />
    <path d="M -44.7501 -2.0201 L -44.7501 -2.22697" />
    <path d="M -47.79475 -1.91851 L -47.79475 -2.32854" />
    <path d="M -54.885 -3.03459 L -54.885 -3.24146" />
    <path d="M -37.47421 1.73969 A 57.5 3.38323 180 0 0 -54.7567 2.65982" />
    <path d="M -28.33636 1.48438 A 57.5 3.38323 180 0 0 -37.47421 1.73969" />
    <path d="M -27.50818 -2.61642 L -27.50818 -2.82329" />
    <path d="M -30.55284 -2.51483 L -30.55284 -2.92487" />
    <path d="M -37.64309 -3.63091 L -37.64309 -3.83779" />
    <path d="M -40.68774 -3.52932 L -40.68774 -3.93936" />
    <path d="M -8.52109 1.84001 A 20 1.17678 360 0 1 -28.33636 0.66328 L -28.33636 3.83526" />
    <path d="M -28.33636 0.66328 A 20 1.17678 360 0 1 -13.33636 -0.47612" />
    <path d="M -8.52109 0.95728 A 5 0.29419 360 0 1 -13.33636 0.66328" />
    <path d="M -10.87008 -5.57994 A 5 0.29419 360 0 1 -3.33636 -5.32632 L -3.33636 -4.30316" />
    <path d="M -3.33636 -5.32632 A 5 0.29419 360 0 1 -13.33636 -5.32632 L -13.33636 0.66328" />
    <path d="M -13.33636 -5.32632 A 5 0.29419 360 0 1 -10.87008 -5.57994" />
    <path d="M -6.23336 -5.11581 A 4.15 0.24418 360 0 1 -12.48636 -5.32632 A 4.15 0.24418 360 0 1 -4.18636 -5.32632 A 4.15 0.24418 360 0 1 -6.23336 -5.11581 Z" />
    <path d="M 42.02086 -1.90909 L 42.02086 -1.90844" />
    <path d="M 52.02086 -1.90909 L 52.02086 13.06492" />
    <path d="M 54.95229 -2.35634 L 54.95229 6.62807" />
    <path d="M 64.95229 -2.35634 L 64.95229 12.61767" />
    <path d="M -73.33636 0.66328 L -73.33636 6.65289" />
    <path d="M -68.33394 -10.92354 L -68.33394 -0.80803" />
    <path d="M -15.22915 -12.41436 L -15.22915 -3.13967" />
</svg>