<svg version="1.1" xmlns="http://www.w3.org/2000/svg" viewBox="-76.65341621721345 -21.984256529485457 146.86769876956322 44.26497291321367" fill="none" stroke="black" stroke-width="0.6%" vector-effect="non-scaling-stroke">
    <path d="M 12.85285 19.26781 L 19.92913 19.46093 L 27.89736 20.68896 L 44.80839 21.08366 A 5 0.45719 180 0 0 53.06645 21.07903 L 60.53617 20.68181 A 5 0.45719 180 0 0 65.15788 20.22593" />
    <path d="M 9.12441 19.0628 L 12.85285 19.26781 L 12.85285 -4.63165 L 19.92913 -4.43853 L 27.89736 -3.2105 L 44.80839 -2.8158 A 5 0.45719 180 0 0 53.92014 -3.07593 A 5 0.45719 180 0 0 43.92014 -3.07593 A 5 0.45719 180 0 0 43.97293 -3.00967" />
    <path d="M 2.25983 18.63859 A 5 0.45719 180 0 0 9.12441 19.0628" />
    <path d="M -1.21477 18.25488 L 2.25983 18.57727" />
    <path d="M -3.09578 17.95914 L -1.21477 18.25488 L -1.21477 -5.64458 L 2.2997 -5.31848" />
    <path d="M -3.09578 17.95914 A 5 0.45719 0 0 1 -12.83002 17.81207" />
    <path d="M 65.15788 19.9006 L 69.21428 18.44747 L 69.21428 -5.45198 L 61.44833 -6.64884 L 62.46604 -6.9015 L 63.38094 -7.72239 L 63.30059 -7.77108" />
    <path d="M -72.79448 10.88148 A 66 6.03492 180 0 0 -12.83002 16.89112" />
    <path d="M -72.21447 7.09573 A 5 0.45719 360 0 1 -75.65342 6.66139" />
    <path d="M 19.92913 19.46093 L 19.92913 -4.43853" />
    <path d="M 9.12441 -4.83665 L 12.85285 -4.63165" />
    <path d="M 9.12441 -4.83665 L 9.12441 19.0628" />
    <path d="M 27.89736 20.68896 L 27.89736 -3.2105" />
    <path d="M 9.12441 -4.83665 A 5 0.45719 360 0 1 2.25983 -5.26087 A 5 0.45719 360 0 1 2.2997 -5.31848" />
    <path d="M 44.80839 -2.8158 L 44.80839 21.08366" />
    <path d="M 53.06645 9.1293 L 53.06645 21.07903" />
    <path d="M 53.92014 8.8738 A 5 0.45719 360 0 1 53.06645 9.1293 L 60.53617 8.73208 A 5 0.45719 360 0 1 55.15788 8.2762" />
    <path d="M -3.09578 7.00522 L -5.75143 6.58768 L -6.25677 6.42418" />
    <path d="M -3.09578 7.00522 L -3.09578 17.95914" />
    <path d="M -5.75143 -6.35786 L -1.21477 -5.64458" />
    <path d="M -5.75143 6.58768 L -5.75143 -6.35786" />
    <path d="M 60.53617 8.73208 L 60.53617 20.68181" />
    <path d="M -3.09578 7.00522 A 5 0.45719 0 0 1 -12.83002 6.85815 A 5 0.45719 0 0 1 -6.25677 6.42418" />
    <path d="M 63.32938 -4.02698 A 5 0.45719 180 0 0 55.15788 -3.67353 A 5 0.45719 180 1 0 65.15788 -3.67353 A 5 0.45719 180 0 0 64.75289 -3.85378 L 69.21428 -5.45198" />
    <path d="M -6.85357 6.40976 L -6.85357 5.23528 L -6.80006 5.26252 L -6.77085 5.26204 L -6.85357 5.23528" />
    <path d="M -6.77085 5.26204 L -6.77085 6.41133" />
    <path d="M -7.29237 -6.85642 L -5.75143 -6.35786" />
    <path d="M -7.29237 6.40361 L -7.29237 -6.85642 L -5.52148 -6.95059 L -4.31395 -6.5599" />
    <path d="M -6.80006 6.41076 L -6.80006 5.26252" />
    <path d="M 62.46604 -6.492 L 62.46604 -6.9015" />
    <path d="M 63.38094 -6.35099 L 63.38094 -7.72239" />
    <path d="M 62.09381 -8.50235 A 5 0.45719 360 0 1 64.78967 -8.0966 A 5 0.45719 360 0 1 63.30059 -7.77108" />
    <path d="M 62.09381 -8.50235 L 62.03449 -8.53829 L 58.51129 -9.29794 L 53.03271 -9.95361 L 52.14787 -10.01732" />
    <path d="M -12.83002 13.90368 A 66 6.03492 360 0 1 -72.79448 7.89405 A 66 6.03492 360 0 1 -59.23869 4.23012" />
    <path d="M -66.46992 -4.04214 A 5 0.45719 360 0 1 -66.58592 -4.14005" />
    <path d="M -66.46992 -4.04214 L -66.46992 5.31613" />
    <path d="M -56.58592 3.82644 A 5 0.45719 360 0 1 -59.23869 4.23012" />
    <path d="M -63.21302 -17.5179 A 5 0.45719 180 0 0 -66.58592 -17.08559 A 5 0.45719 180 0 0 -56.58592 -17.08559 A 5 0.45719 180 0 0 -61.21794 -17.54154" />
    <path d="M -71.20868 -4.74689 A 5 0.45719 180 0 0 -75.65342 -4.29253 A 5 0.45719 180 0 0 -66.46992 -4.04214" />
    <path d="M -63.81926 -17.61133 L -63.81926 -17.49464" />
    <path d="M -67.16419 -18.41223 A 5 0.45719 180 0 0 -72.11599 -17.95506 A 5 0.45719 180 0 0 -63.81926 -17.61133 L -63.21302 -17.5179" />
    <path d="M -66.58592 -4.55491 A 5 0.45719 360 0 1 -71.20868 -4.74689" />
    <path d="M 50.30307 -9.91922 L 52.14787 -10.01732" />
    <path d="M 50.30307 -9.91922 L 50.30307 -9.60183" />
    <path d="M -62.79967 -19.97574 L -67.16419 -18.41223" />
    <path d="M -58.27205 -20.22136 L -62.79967 -19.97574" />
    <path d="M -49.83802 -20.67892 A 5 0.45719 180 0 0 -59.55416 -20.52706 A 5 0.45719 180 0 0 -58.27205 -20.22136" />
    <path d="M -45.68565 -20.90419 L -49.83802 -20.67892" />
    <path d="M -15.6874 1.91416 A 66 6.03492 360 0 1 -12.79448 1.88411" />
    <path d="M -28.14148 -20.49472 L -45.68565 -20.90419" />
    <path d="M -21.68056 -19.72617 A 5 0.45719 360 0 1 -13.36385 -19.38404 L -13.36385 1.88909" />
    <path d="M -13.36385 -19.38404 A 5 0.45719 360 1 1 -23.36385 -19.38404 L -23.36385 1.52798" />
    <path d="M -23.36385 -19.38404 A 5 0.45719 360 0 1 -22.88101 -19.58006 L -24.2938 -19.79779 L -24.2938 1.11424 A 5 0.45719 360 0 1 -28.89392 0.65851" />
    <path d="M -15.6874 1.91416 A 5 0.45719 0 0 1 -23.36385 1.52798" />
    <path d="M -28.14148 -20.49472 A 5 0.45719 360 0 1 -18.89392 -20.25352 L -18.89392 -19.83866" />
    <path d="M -18.89392 -20.25352 A 5 0.45719 360 0 1 -22.29214 -19.82042" />
    <path d="M -13.36385 -7.65494 A 5 0.45719 360 0 1 -10.32916 -7.23455 L -10.32916 -4.499" />
    <path d="M -10.32916 -7.23455 A 5 0.45719 360 0 1 -13.36385 -6.81415" />
    <path d="M -43.99721 2.89551 A 4.15 0.37947 0 0 1 -41.28154 2.89551" />
    <path d="M -21.68056 -19.72617 L -22.29214 -19.82042" />
    <path d="M 29.09594 -3.3569 L 43.97293 -3.00967" />
    <path d="M 26.86217 -3.70115 L 29.09594 -3.3569" />
    <path d="M 26.75872 -3.69565 L 26.86217 -3.70115" />
    <path d="M 20.72592 -4.64417 L 26.75872 -3.69565" />
    <path d="M 20.72592 -4.64417 L 19.21314 -4.56372 L 17.78114 -4.78887 L 17.74346 -4.77537 L 18.43617 -4.66862" />
    <path d="M -0.65426 -5.91734 A 5 0.45719 180 0 0 5.22156 -6.36747 L 5.22156 -5.67834" />
    <path d="M 5.22156 -6.36747 A 5 0.45719 180 0 0 -4.31395 -6.5599" />
    <path d="M -0.65426 -5.91734 L 0.37446 -5.7556 L 3.04923 -5.50742" />
    <path d="M 13.66055 -4.79895 L 18.43617 -4.66862" />
    <path d="M 10.92157 -4.94955 A 5 0.45719 180 0 0 12.25983 -5.26087 L 12.25983 -4.87597" />
    <path d="M 12.25983 -5.26087 A 5 0.45719 180 0 0 3.04923 -5.50742" />
    <path d="M 10.92157 -4.94955 L 13.66055 -4.79895" />
    <path d="M 8.13961 -5.12254 A 1.75 0.16002 360 0 1 5.50983 -5.26087 A 1.75 0.16002 360 0 1 9.00983 -5.26087 A 1.75 0.16002 360 0 1 8.13961 -5.12254 Z" />
    <path d="M 1.10135 -6.22914 A 1.75 0.16002 360 0 1 -1.52844 -6.36747 A 1.75 0.16002 360 0 1 1.97156 -6.36747 A 1.75 0.16002 360 0 1 1.10135 -6.22914 Z" />
    <path d="M 50.00102 -2.90599 A 1.75 0.16002 360 0 1 47.37123 -3.04432 A 1.75 0.16002 360 0 1 50.87123 -3.04432 A 1.75 0.16002 360 0 1 50.00102 -2.90599 Z" />
    <path d="M 55.15788 8.06609 L 53.92014 8.13191" />
    <path d="M -6.95023 6.99647 A 1.75 0.16002 360 0 1 -9.58002 6.85815 A 1.75 0.16002 360 0 1 -6.08002 6.85815 A 1.75 0.16002 360 0 1 -6.95023 6.99647 Z" />
    <path d="M 59.80736 -8.55378 L 57.48202 -9.05516 L 57.48202 -8.50218" />
    <path d="M 59.80736 -8.55378 A 5 0.45719 180 0 0 54.78967 -8.0966 L 54.78967 4.54213" />
    <path d="M 54.78967 -8.0966 A 5 0.45719 180 0 0 61.31835 -7.6613" />
    <path d="M 52.99004 -9.65987 A 5 0.45719 180 0 0 47.7514 -9.2032 L 47.7514 -3.52046" />
    <path d="M 47.7514 -9.2032 A 5 0.45719 180 0 0 57.48202 -9.05516" />
    <path d="M 60.51745 -6.9427 L 61.31835 -7.6613" />
    <path d="M 52.99004 -9.65987 L 51.6082 -9.82524 L 50.30307 -9.91922" />
    <path d="M 60.16537 -6.85529 L 60.51745 -6.9427" />
    <path d="M 60.70633 -6.77024 L 60.16537 -6.85529" />
    <path d="M 60.70633 -6.77024 L 59.19356 -6.68979 L 65.22636 -5.74128" />
    <path d="M 65.19834 -5.73979 L 65.22636 -5.74128" />
    <path d="M 67.23463 -5.42596 L 65.19834 -5.73979 L 65.19834 -4.6965" />
    <path d="M 63.32938 -4.02698 L 67.23463 -5.42596" />
    <path d="M 61.03766 -3.53521 A 1.75 0.16002 360 0 1 58.40788 -3.67353 A 1.75 0.16002 360 0 1 61.90788 -3.67353 A 1.75 0.16002 360 0 1 61.03766 -3.53521 Z" />
    <path d="M 53.63118 -9.06487 A 1.75 0.16002 360 0 1 51.0014 -9.2032 A 1.75 0.16002 360 0 1 54.5014 -9.2032 A 1.75 0.16002 360 0 1 53.63118 -9.06487 Z" />
    <path d="M 60.66945 -7.95827 A 1.75 0.16002 360 0 1 58.03967 -8.0966 A 1.75 0.16002 360 0 1 61.53967 -8.0966 A 1.75 0.16002 360 0 1 60.66945 -7.95827 Z" />
    <path d="M -23.36385 1.25756 L -24.2938 1.11424" />
    <path d="M -28.89392 0.57412 L -45.40104 0.18885 L -45.40104 -20.72317 L -49.56477 -20.49729 L -49.56477 0.41474 A 5 0.45719 360 0 1 -56.58592 0.8027" />
    <path d="M -45.40104 0.18885 L -49.56477 0.41474" />
    <path d="M -56.30007 2.24757 L -56.58592 2.23259" />
    <path d="M -53.27452 2.08668 L -56.30007 2.24757" />
    <path d="M -53.28558 1.76665 L -53.27452 2.08668" />
    <path d="M -56.32218 1.60751 L -53.28558 1.76665" />
    <path d="M -56.58592 1.62153 L -56.32218 1.60751" />
    <path d="M -46.2454 3.82843 L -49.282 3.66929 L -49.29306 3.34926 L -46.26751 3.18837 L -43.23091 3.34751 L -43.21985 3.66754 L -46.2454 3.82843 Z" />
    <path d="M -39.06997 2.81949 A 7.1 0.64921 360 0 1 -49.73938 2.25828 A 7.1 0.64921 360 0 1 -35.53938 2.25828 A 7.1 0.64921 360 0 1 -39.06997 2.81949 Z" />
    <path d="M -39.01124 1.32819 L -42.04784 1.16905 L -42.0589 0.84902 L -39.03335 0.68813 L -35.99675 0.84727 L -35.98569 1.1673 L -39.01124 1.32819 Z" />
    <path d="M -28.95657 2.90905 L -31.99317 2.74991 L -32.00423 2.42988 L -28.97868 2.26899 L -25.94208 2.42813 L -25.93102 2.74816 L -28.95657 2.90905 Z" />
    <path d="M -35.70165 3.34907 A 57.5 5.2577 360 0 1 -12.79448 2.66505" />
    <path d="M -12.83002 13.1227 A 57.5 5.2577 360 0 1 -64.29448 7.89405 A 57.5 5.2577 360 0 1 -35.70165 3.34907" />
    <path d="M -62.61242 -17.75645 L -61.21794 -17.54154" />
    <path d="M -24.2938 -19.79779 A 5 0.45719 360 0 1 -28.89392 -20.25352 L -28.89392 0.65851" />
    <path d="M -28.89392 -20.25352 A 5 0.45719 360 0 1 -28.81189 -20.33599 L -45.40104 -20.72317" />
    <path d="M -49.56477 -20.49729 A 5 0.45719 360 0 1 -56.65963 -20.11238 L -56.65963 -17.1638" />
    <path d="M -56.65963 -20.11238 L -61.19861 -19.86614 L -65.34032 -18.38245 A 5 0.45719 360 0 1 -62.11599 -17.95506 L -62.11599 -17.67995" />
    <path d="M -62.11599 -17.95506 A 5 0.45719 360 0 1 -62.61242 -17.75645" />
    <path d="M -60.70614 -16.94727 A 1.75 0.16002 360 0 1 -63.33592 -17.08559 A 1.75 0.16002 360 0 1 -59.83592 -17.08559 A 1.75 0.16002 360 0 1 -60.70614 -16.94727 Z" />
    <path d="M -66.23621 -17.81674 A 1.75 0.16002 360 0 1 -68.86599 -17.95506 A 1.75 0.16002 360 0 1 -65.36599 -17.95506 A 1.75 0.16002 360 0 1 -66.23621 -17.81674 Z" />
    <path d="M -53.87547 -20.42036 A 1.75 0.16002 360 0 1 -56.50525 -20.55868 A 1.75 0.16002 360 0 1 -53.00525 -20.55868 A 1.75 0.16002 360 0 1 -53.87547 -20.42036 Z" />
    <path d="M -17.48407 -19.24572 A 1.75 0.16002 360 0 1 -20.11385 -19.38404 A 1.75 0.16002 360 0 1 -16.61385 -19.38404 A 1.75 0.16002 360 0 1 -17.48407 -19.24572 Z" />
    <path d="M -23.01414 -20.11519 A 1.75 0.16002 360 0 1 -25.64392 -20.25352 A 1.75 0.16002 360 0 1 -22.14392 -20.25352 A 1.75 0.16002 360 0 1 -23.01414 -20.11519 Z" />
    <path d="M 51.6082 -9.64828 L 51.6082 -9.82524" />
    <path d="M -38.08316 2.75619 A 7.1 0.64921 180 0 0 -47.19559 2.75619" />
    <path d="M 17.74346 -4.68752 L 17.74346 -4.77537" />
    <path d="M 59.19356 -4.12214 L 59.19356 -6.68979" />
    <path d="M 60.16537 -6.74147 L 60.16537 -6.85529" />
    <path d="M 53.92014 5.01148 L 55.15788 4.94566" />
    <path d="M -61.19861 -17.54141 L -61.19861 -19.86614" />
    <path d="M -53.28558 2.08727 L -53.28558 1.76665" />
    <path d="M -56.32218 2.24641 L -56.32218 1.60751" />
    <path d="M -43.23091 3.66813 L -43.23091 3.34751" />
    <path d="M -46.26751 3.82727 L -46.26751 3.18837" />
    <path d="M -35.99675 1.16789 L -35.99675 0.84727" />
    <path d="M -39.03335 1.32703 L -39.03335 0.68813" />
    <path d="M -25.94208 2.74875 L -25.94208 2.42813" />
    <path d="M -28.97868 2.90789 L -28.97868 2.26899" />
    <path d="M -35.70165 4.34488 A 57.5 5.2577 180 0 0 -64.03606 8.39195" />
    <path d="M -12.79448 3.66086 A 57.5 5.2577 180 0 0 -35.70165 4.34488" />
    <path d="M 55.15788 4.52255 L 53.92014 4.58837" />
    <path d="M -12.83002 10.63336 A 20 1.82876 360 0 1 -26.79448 8.88986" />
    <path d="M -12.83002 9.63755 A 20 1.82876 360 0 1 -26.79448 7.89405 L -26.79448 8.88986" />
    <path d="M -26.79448 7.89405 A 20 1.82876 360 0 1 -12.79448 6.14952" />
    <path d="M -9.81088 -4.52994 A 6 0.54863 360 0 1 -7.29237 -4.60242" />
    <path d="M -7.29237 -3.50895 A 6 0.54863 360 0 1 -12.79448 -4.05568 L -12.79448 6.80374" />
    <path d="M -12.79448 -4.05568 A 6 0.54863 360 0 1 -9.81088 -4.52994" />
    <path d="M -7.29237 -3.67895 A 4.15 0.37947 360 0 1 -10.94448 -4.05568 A 4.15 0.37947 360 0 1 -7.29237 -4.43241" />
    <path d="M 2.25983 -5.26087 L 2.25983 18.63859" />
    <path d="M 43.92014 -3.07593 L 43.92014 -3.0109" />
    <path d="M 53.92014 -3.07593 L 53.92014 8.8738" />
    <path d="M -12.83002 6.85815 L -12.83002 17.81207" />
    <path d="M 55.15788 -3.67353 L 55.15788 8.2762" />
    <path d="M 65.15788 -3.67353 L 65.15788 20.22593" />
    <path d="M 64.78967 -8.0966 L 64.78967 -6.13389" />
    <path d="M -72.79448 7.89405 L -72.79448 10.88148" />
    <path d="M -66.58592 -17.08559 L -66.58592 -4.14005" />
    <path d="M -56.58592 -17.08559 L -56.58592 3.82644" />
    <path d="M -75.65342 -4.29253 L -75.65342 6.66139" />
    <path d="M -72.11599 -17.95506 L -72.11599 -4.72972" />
    <path d="M -59.55416 -20.52706 L -59.55416 -20.15181" />
</svg>