<svg version="1.1" xmlns="http://www.w3.org/2000/svg" viewBox="-70.97332991340578 -9.475746898944049 136.7255113287806 23.73987182110833" fill="none" stroke="black" stroke-width="0.6%" vector-effect="non-scaling-stroke">
    <path d="M -17.82259 -7.06742 L -17.82259 -7.26598 L -28.09578 -8.22833 L -46.77445 -8.47575 L -62.91688 -7.8633 L -67.06705 -6.74975 L -56.79386 -5.7874 L -55.58237 -5.77135" />
    <path d="M -18.59244 -7.05942 L -17.82259 -7.26598" />
    <path d="M -69.97333 2.59648 A 62.5 3.72601 180 0 0 -6.38564 6.32192" />
    <path d="M -30.9451 -6.84612 A 1.75 0.10433 360 0 1 -27.66926 -6.79504 A 1.75 0.10433 360 0 1 -31.16926 -6.79504 A 1.75 0.10433 360 0 1 -30.9451 -6.84612 Z" />
    <path d="M -47.59343 -6.24984 A 1.75 0.10433 0 0 1 -44.1282 -6.22915 A 1.75 0.10433 0 0 1 -47.6282 -6.22915 A 1.75 0.10433 0 0 1 -47.59343 -6.24984 Z" />
    <path d="M -18.59244 -7.05942 A 62.5 3.72601 360 0 1 55.02667 -3.39285 A 62.5 3.72601 360 0 1 53.18654 -2.49538" />
    <path d="M -17.83151 0.28163 A 62.5 3.72601 360 0 1 -69.97333 -3.39285 A 62.5 3.72601 360 0 1 -55.58237 -5.77135" />
    <path d="M -54.99577 -7.17163 A 1.75 0.10433 360 0 1 -57.62006 -7.26201 A 1.75 0.10433 360 0 1 -54.12006 -7.26201 A 1.75 0.10433 360 0 1 -54.99577 -7.17163 Z" />
    <path d="M -39.84694 -6.73932 A 5 0.29808 360 0 1 -47.3449 -6.99754 A 5 0.29808 360 0 1 -37.3449 -6.99754 A 5 0.29808 360 0 1 -39.84694 -6.73932 Z" />
    <path d="M -38.53682 -7.73752 A 1.75 0.10433 360 0 1 -41.16111 -7.8279 A 1.75 0.10433 360 0 1 -37.66111 -7.8279 A 1.75 0.10433 360 0 1 -38.53682 -7.73752 Z" />
    <path d="M -9.4717 -3.59942 A 4 0.23846 360 0 1 -3.47333 -3.39285 A 4 0.23846 360 0 1 -11.47333 -3.39285 A 4 0.23846 360 0 1 -9.4717 -3.59942 Z" />
    <path d="M -56.79386 -5.68147 L -56.79386 -5.7874" />
    <path d="M -67.06705 -4.51585 L -67.06705 -6.74975" />
    <path d="M 61.97955 -1.36405 L 62.3312 -1.3277" />
    <path d="M 61.97955 -1.36405 L 61.96421 -1.36545 L 61.94634 -1.36674 L 61.92616 -1.3679 L 61.90394 -1.36892 L 61.87994 -1.36978 L 61.85448 -1.37048 L 61.82787 -1.371 L 61.80045 -1.37134 L 61.77255 -1.3715 L 61.74454 -1.37147 L 61.71675 -1.37125 L 61.68955 -1.37085 L 61.66327 -1.37027 L 61.63825 -1.36952 L 61.49429 -1.36457" />
    <path d="M 61.10871 -1.32735 A 2.23731 0.13338 180 0 0 61.49429 -1.36457" />
    <path d="M 61.41811 -1.29536 L 61.10871 -1.32735" />
    <path d="M 62.10899 -1.30537 A 1.3747 0.08195 180 0 0 61.41811 -1.29536" />
    <path d="M 62.10899 -1.30537 C 62.2 -1.31 62.29 -1.31 62.32978 -1.31265 C 62.37 -1.32 62.38 -1.32 62.3312 -1.3277 C 62.2 -1.31 62.29 -1.31 62.32978 -1.31265 C 62.37 -1.32 62.38 -1.32 62.3312 -1.3277" />
    <path d="M 62.11605 -1.14151 C 62.13 -0.86 62.12 -1.08 62.10899 -1.30537" />
    <path d="M 62.74575 1.3649 L 62.77529 1.35957 L 62.80269 1.3542 L 62.82795 1.3488 L 62.85103 1.34336 L 62.87194 1.33788 L 62.89066 1.33238 L 62.90718 1.32686 L 62.92149 1.32131 L 62.93357 1.31574 L 62.94344 1.31016 L 62.95107 1.30457 L 62.95647 1.29897 L 62.95963 1.29336 L 62.96055 1.28774 L 62.95928 1.28227 L 62.95589 1.2768 L 62.95037 1.27134 L 62.94273 1.26588 L 62.93296 1.26044 L 62.92108 1.25501 L 62.90709 1.2496 L 62.891 1.24421 L 62.87281 1.23885 L 62.85254 1.23351 L 62.8302 1.2282 L 62.8058 1.22292 L 62.77935 1.21768 L 62.75086 1.21248" />
    <path d="M 62.74575 1.3649 C 62.7 0.54 62.65 -0.29 62.59845 -1.12269 C 62.63 -1.13 62.61 -1.13 62.55898 -1.13759 C 62.5 -1.14 62.41 -1.14 62.32138 -1.14278 C 62.63 -1.13 62.61 -1.13 62.55898 -1.13759 C 62.5 -1.14 62.41 -1.14 62.32138 -1.14278" />
    <path d="M 60.89086 -1.00441 L 61.05362 -1.01032 L 61.21141 -1.01669 L 61.36388 -1.02351 L 61.51065 -1.03076 L 61.6514 -1.03841 L 61.78581 -1.04647 L 61.91355 -1.0549 L 62.03433 -1.06368 L 62.14787 -1.0728 L 62.25392 -1.08224 L 62.35222 -1.09197 L 62.44254 -1.10197 L 62.52468 -1.11222 L 62.59845 -1.12269" />
    <path d="M 61.525 4.97172 L 61.49625 4.97301 L 61.4673 4.97429 L 61.43815 4.97555 L 61.40881 4.9768 L 61.37929 4.97803 L 61.34958 4.97924 L 61.31968 4.98044 L 61.2896 4.98162 L 61.25934 4.98278 L 61.22891 4.98393 L 61.1983 4.98506 L 61.16752 4.98617 L 61.13658 4.98727 L 61.10546 4.98835 L 62.04996 4.95588 A 5.40004 0.32193 180 0 0 64.75217 4.67751 A 5.40004 0.32193 180 0 0 64.75217 4.67633" />
    <path d="M 61.52837 1.97013 C 61.53 2.97 61.53 3.97 61.525 4.97172" />
    <path d="M 62.97843 1.78714 L 62.97103 1.80207 L 62.94779 1.81694 L 62.9088 1.8317 L 62.85422 1.84628 L 62.78426 1.86062 L 62.69922 1.87467 L 62.59942 1.88838 L 62.48527 1.90167 L 62.35723 1.91451 L 62.2158 1.92685 L 62.06156 1.93862 L 61.89512 1.94979 L 61.71716 1.96031 L 61.52837 1.97013" />
    <path d="M 64.60387 1.64194 L 64.04707 1.38471" />
    <path d="M 62.74234 1.06468 A 25.14279 1.49891 360 0 1 64.04707 1.38471" />
    <path d="M 51.71871 -2.76662 A 63.5262 3.78718 360 0 1 51.6887 -2.76204" />
    <path d="M 51.88391 -2.79656 A 4.92144 0.2934 360 0 1 51.71871 -2.76662 L 51.71949 -2.73461" />
    <path d="M 51.88391 -2.79656 A 63.5 3.78562 360 0 1 51.68376 -2.76557" />
    <path d="M 64.60387 1.64194 A 5.29528 0.31568 360 0 1 64.64741 1.68168 A 5.29528 0.31568 360 0 1 61.52837 1.97013" />
    <path d="M 57.23163 -1.38839 L 57.07702 -1.3884 L 55.3546 -1.21073 L 57.07422 -1.03298 L 60.51626 -1.03288 L 61.61526 -1.14624 A 1.3747 0.08195 180 0 0 62.32138 -1.14278" />
    <path d="M 57.07702 -1.3884 L 57.08239 -1.03298" />
    <path d="M 62.75865 1.35999 C 62.53 1.34 62.63 1.35 62.69023 1.34976 C 62.75 1.35 62.78 1.36 62.74575 1.3649" />
    <path d="M 53.42502 -1.31481 A 1.4627 0.0872 180 0 0 55.33803 -1.39759 A 1.4627 0.0872 180 0 0 55.33768 -1.39971" />
    <path d="M 53.42502 -1.31481 C 53.29 -1.32 53.13 -1.31 53.1039 -1.30379" />
    <path d="M 53.08572 -1.29934 A 1.4627 0.0872 180 0 0 53.1039 -1.30379" />
    <path d="M 53.08572 -1.29934 C 53.05 -1.29 53.12 -1.28 53.22733 -1.28177 C 53.05 -1.29 53.12 -1.28 53.22733 -1.28177 C 53.2 -0.45 53.17 0.38 53.13455 1.2157 A 2.51309 0.14982 180 0 0 52.37018 1.2053 L 52.36929 1.70519 A 2.5 0.14904 360 0 1 53.21599 1.71771 C 53.23 0.72 53.25 -0.28 53.27138 -1.2806 A 2.57856 0.15372 180 0 0 53.22733 -1.28177" />
    <path d="M 55.20127 -1.08111 L 53.27138 -1.2806" />
    <path d="M 55.20127 -1.08111 L 55.44421 -1.05896 L 55.72717 -1.03858 L 56.04661 -1.02022 L 56.3985 -1.0041 L 56.77844 -0.99044 L 57.18164 -0.9794 L 57.60304 -0.97112 L 58.03734 -0.9657 L 58.47909 -0.96322 L 58.92273 -0.9637 L 59.3627 -0.96715 L 59.79346 -0.97351 L 60.20961 -0.9827 L 60.6059 -0.99461 L 60.89086 -1.00441" />
    <path d="M 57.18809 -1.42034 A 2.23731 0.13338 180 0 0 57.18636 -1.41481 A 2.23731 0.13338 180 0 0 57.23163 -1.38839" />
    <path d="M 57.18809 -1.42034 L 56.93594 -1.4464 L 56.92059 -1.4478 L 56.90273 -1.44909 L 56.88256 -1.45025 L 56.86034 -1.45126 L 56.83635 -1.45213 L 56.81089 -1.45282 L 56.78429 -1.45335 L 56.75687 -1.45369 L 56.72898 -1.45385 L 56.70097 -1.45381 L 56.67319 -1.4536 L 56.64599 -1.4532 L 56.61971 -1.45261 L 56.59468 -1.45186 L 55.46264 -1.41294 C 55.38 -1.41 55.34 -1.41 55.33768 -1.39971" />
    <path d="M 60.54829 5.00751 L 61.10546 4.98835 L 60.89086 -1.00441" />
    <path d="M 62.04996 4.95588 A 5.40004 0.32193 360 0 1 61.525 4.97172" />
    <path d="M 51.89679 -2.64697 L 51.88391 -2.79656" />
    <path d="M 17.64464 -0.66465 A 63.5 3.78562 360 0 1 -17.67308 -0.40505 L -17.78485 0.06653 L -17.80334 2.59231 L -18.34982 2.58282 L -18.3095 2.40959 L -18.26917 2.23536 L -18.22883 2.06013 L -18.18849 1.88389 L -18.14815 1.70666 L -18.1078 1.52842 L -18.06744 1.34919 L -18.02709 1.16895 L -17.98672 0.98771 L -17.94636 0.80548 L -17.90599 0.62224 L -17.86561 0.438 L -17.82523 0.25276 L -17.78485 0.06653" />
    <path d="M 50.94617 -2.24918 A 4.09524 0.24414 180 0 0 53.21305 -2.46815 A 4.09524 0.24414 180 0 0 51.73467 -2.65543 A 16.14524 0.96252 180 0 0 51.74176 -2.68604 L 51.74285 -2.65503" />
    <path d="M 50.72041 -3.25253 A 1.5 0.08942 360 0 1 50.92102 -3.20799 A 1.5 0.08942 360 1 1 47.92103 -3.20799 A 1.5 0.08942 360 0 1 50.72041 -3.25253 Z" />
    <path d="M 48.30488 -2.14758 A 1.52619 0.09099 180 0 0 50.94721 -2.20977" />
    <path d="M 60.82584 -1.78503 A 7.92144 0.47225 180 0 0 50.94687 -2.2228" />
    <path d="M 60.43814 -1.77198 C 60.52 -1.77 60.62 -1.77 60.69899 -1.77142 C 60.78 -1.77 60.83 -1.78 60.82584 -1.78503" />
    <path d="M 60.45501 -1.03288 C 60.46 -1.03 60.45 -1.4 60.43814 -1.77198 A 1.8627 0.11105 180 0 0 59.44985 -1.79045 C 59.44 -1.12 59.42 -0.46 59.40942 0.21013" />
    <path d="M 50.57105 1.12437 A 7.01309 0.41809 180 0 0 52.97972 1.14832" />
    <path d="M 50.56654 0.87431 C 50.57 0.96 50.57 1.04 50.57105 1.12437 A 1.3754 0.082 180 0 0 50.30325 1.16676" />
    <path d="M 49.63757 0.84999 A 7.00655 0.4177 180 0 0 50.56654 0.87431 A 1.38413 0.08252 180 0 0 50.29009 0.92396 A 1.38413 0.08252 180 0 0 50.29418 0.93014" />
    <path d="M 52.98864 1.19749 C 53.02 0.37 53.05 -0.47 53.08572 -1.29934" />
    <path d="M 53.13455 1.2157 C 53.02 1.21 52.95 1.2 52.98864 1.19749 C 53.02 1.21 52.95 1.2 52.98864 1.19749" />
    <path d="M 53.54727 1.75196 L 53.21599 1.71771" />
    <path d="M 53.51847 4.75302 L 53.54727 1.75196" />
    <path d="M 53.60116 11.52065 L 53.51847 4.75302" />
    <path d="M 55.07885 11.6734 L 53.60116 11.52065 L 50.02409 11.64364" />
    <path d="M 60.54829 5.00751 L 60.44274 5.04597 L 60.33479 5.15416 L 60.22454 5.33197 L 60.11209 5.57924 L 59.99754 5.89573 L 59.88101 6.28116 L 59.76259 6.73518 L 59.6424 7.25735 L 59.52055 7.8472 L 59.39715 8.50418 L 59.27232 9.22768 L 59.14617 10.01704 L 59.01882 10.87152 L 58.89038 11.79034 L 49.29583 12.12022 L 49.1914 11.20941 L 49.08637 10.36292 L 48.98083 9.58152 L 48.87489 8.86595 L 48.76863 8.21687 L 48.66216 7.63487 L 48.55557 7.1205 L 48.44897 6.67422 L 48.34245 6.29646 L 48.23611 5.98756 L 48.13005 5.7478 L 48.02437 5.57742 L 47.91916 5.47656 L 47.81453 5.44532 L 47.59993 -0.54744 L 47.31497 -0.53764 L 47.25736 5.46448 L 47.81453 5.44532" />
    <path d="M 58.89038 11.79034 L 58.56741 11.79143 L 58.24405 11.79094 L 57.92244 11.78887 L 57.60474 11.78525 L 57.29307 11.78009 L 56.98951 11.77343 L 56.69609 11.76532 L 56.41476 11.7558 L 56.14741 11.74494 L 55.89582 11.73282 L 55.66167 11.71951 L 55.44652 11.70511 L 55.25182 11.6897 L 55.07885 11.6734 L 55.20127 -1.08111" />
    <path d="M 46.31286 5.49695 L 47.25736 5.46448 L 47.22608 5.46554 L 47.19464 5.46659 L 47.16305 5.46762 L 47.13129 5.46863 L 47.09939 5.46963 L 47.06733 5.47061 L 47.03513 5.47157 L 47.00278 5.47251 L 46.97029 5.47344 L 46.93765 5.47434 L 46.90489 5.47523 L 46.87198 5.47611 L 46.83895 5.47696 L 46.80579 5.4778 C 46.77 4.48 46.74 3.48 46.70355 2.47984 A 5.29528 0.31568 360 0 1 40.3983 2.47417 L 40.33466 5.4738 A 5.40004 0.32193 180 0 0 46.31286 5.49695 Z" />
    <path d="M 61.94857 12.68161 L 46.21147 13.22269 L 46.31286 5.49695" />
    <path d="M 61.94857 12.68161 A 5.1971 0.30983 180 0 0 64.54923 12.4137 L 64.75217 4.67751" />
    <path d="M 49.78194 4.88149 L 53.51847 4.75302" />
    <path d="M -6.53855 3.15848 L -6.49866 3.15981 L -6.22232 10.89141" />
    <path d="M -6.53855 3.15848 C -7.08 3.14 -7.39 3.1 -7.28172 3.06546" />
    <path d="M -12.18746 2.63458 A 5.39524 0.32164 360 0 1 -7.29751 2.89207" />
    <path d="M -12.18746 2.63458 A 63.60476 3.79187 360 0 1 -17.16761 2.60071 A 5 0.29808 360 0 1 -17.80334 2.59231" />
    <path d="M 32.9493 -3.86818 A 4.89524 0.29183 180 0 0 26.85799 -3.90876" />
    <path d="M 35.03063 -3.64596 A 7.89524 0.47068 180 0 0 32.9493 -3.86818" />
    <path d="M 36.0763 -3.64612 A 16.14524 0.96252 180 0 0 35.03063 -3.64596" />
    <path d="M 43.26352 -3.5311 A 4.09524 0.24414 180 0 0 36.0763 -3.64612" />
    <path d="M 51.74176 -2.68604 A 16.14524 0.96252 180 0 0 50.92685 -2.98597" />
    <path d="M 48.37788 -3.27211 A 16.14524 0.96252 180 0 0 43.26352 -3.5311" />
    <path d="M 47.90772 -2.70088 A 4.09524 0.24414 180 0 0 45.02259 -2.46815 L 44.99597 -1.70724" />
    <path d="M 45.02259 -2.46815 A 4.09524 0.24414 180 0 0 47.89549 -2.23462" />
    <path d="M 22.19133 -3.74832 A 64.10476 3.82167 180 0 0 26.85799 -3.90876" />
    <path d="M 22.19133 -3.74832 A 4.89524 0.29183 180 0 0 19.56139 -3.49022 L 19.54748 -3.09251" />
    <path d="M 19.56139 -3.49022 A 4.89524 0.29183 180 0 0 19.73001 -3.41367 L 19.71942 -3.10013" />
    <path d="M 19.73001 -3.41367 A 7.89524 0.47068 180 0 0 21.91398 -3.19498 A 16.14524 0.96252 180 0 0 21.38788 -3.14111 A 4.09524 0.24414 180 0 0 17.98008 -2.90094 L 17.91021 -0.9039 A 4.1651 0.24831 180 0 0 19.38237 -0.71395" />
    <path d="M 17.98008 -2.90094 A 4.09524 0.24414 180 0 0 19.45845 -2.71263 A 16.14524 0.96252 180 0 0 19.45136 -2.68604 L 19.3815 -0.689" />
    <path d="M 19.45136 -2.68604 A 16.14524 0.96252 180 0 0 27.92961 -1.83697 A 4.09524 0.24414 180 0 0 34.33597 -1.67881" />
    <path d="M 34.03467 -1.73323 A 1.52619 0.09099 180 0 0 34.33597 -1.67881" />
    <path d="M 34.04399 -2.08835 A 4.09524 0.24414 180 0 0 28.08047 -1.95494" />
    <path d="M 21.24685 -2.66134 A 14.35476 0.85577 180 0 0 28.08047 -1.95494" />
    <path d="M 21.24685 -2.66134 A 4.09524 0.24414 180 0 0 26.17053 -2.90094 L 26.20075 -2.03705" />
    <path d="M 26.17053 -2.90094 A 4.09524 0.24414 180 0 0 24.49547 -3.09738 A 7.89524 0.47068 180 0 0 26.06956 -3.07172" />
    <path d="M 34.73901 -3.3698 A 11.53492 0.68767 180 0 0 26.06956 -3.07172" />
    <path d="M 34.73901 -3.3698 A 7.89524 0.47068 180 0 0 35.15489 -3.46387 A 4.09524 0.24414 180 0 0 43.11265 -3.41313" />
    <path d="M 47.9188 -3.12302 A 14.35476 0.85577 180 0 0 43.11265 -3.41313" />
    <path d="M 40.83309 -3.54536 A 1.85476 0.11057 360 0 1 41.08114 -3.48989 A 1.85476 0.11057 360 0 1 37.37163 -3.48989 A 1.85476 0.11057 360 0 1 40.83309 -3.54536 Z" />
    <path d="M 50.9399 -2.4883 A 1.85476 0.11057 360 0 1 50.97258 -2.46741 A 1.85476 0.11057 360 0 1 50.94098 -2.44731" />
    <path d="M 47.89942 -2.38427 A 1.85476 0.11057 360 0 1 47.26306 -2.46741 A 1.85476 0.11057 360 0 1 47.9038 -2.55123" />
    <path d="M 33.57344 -1.93319 A 1.85476 0.11057 360 0 1 33.82149 -1.87772 A 1.85476 0.11057 360 0 1 30.11198 -1.87772 A 1.85476 0.11057 360 0 1 33.57344 -1.93319 Z" />
    <path d="M 23.68201 -2.95567 A 1.85476 0.11057 360 0 1 23.93006 -2.9002 A 1.85476 0.11057 360 0 1 20.22055 -2.9002 A 1.85476 0.11057 360 0 1 23.68201 -2.95567 Z" />
    <path d="M 48.30488 -2.14758 A 7.89524 0.47068 180 0 0 45.01608 -1.76629 L 45.01399 -1.70643" />
    <path d="M 45.01608 -1.76629 A 7.89524 0.47068 180 0 0 45.0851 -1.7032 A 7.89524 0.47068 180 0 0 37.0863 -1.76134" />
    <path d="M 59.20679 -1.80383 A 6.32856 0.37728 180 0 0 46.58275 -1.76472 A 6.32856 0.37728 180 0 0 46.72828 -1.68486 A 1.3747 0.08195 180 0 0 45.90861 -1.60971 A 1.3747 0.08195 180 0 0 46.12683 -1.56558" />
    <path d="M 59.20679 -1.80383 C 59.22 -1.8 59.33 -1.79 59.44985 -1.79045" />
    <path d="M 34.61642 -1.66162 A 1.52619 0.09099 180 0 0 37.08704 -1.73323" />
    <path d="M 34.61642 -1.66162 A 7.92144 0.47225 180 0 0 32.34247 -1.3312 L 32.30318 0.16664" />
    <path d="M 32.34247 -1.3312 A 7.92144 0.47225 180 0 0 39.08346 -0.86349 L 39.0776 0.63667 A 7.96073 0.47459 360 0 1 32.30318 0.16664" />
    <path d="M 39.86232 -0.84868 A 2.57856 0.15372 180 0 0 39.08346 -0.86349" />
    <path d="M 39.76912 -0.84548 L 39.86232 -0.84868" />
    <path d="M 41.91034 -0.62414 L 39.76912 -0.84548 L 39.73048 0.85656 C 39.99 1.31 40.24 1.77 40.48761 2.23283 A 9.54086 0.56879 360 0 1 30.74195 1.6284" />
    <path d="M 41.91034 -0.62414 L 42.15327 -0.602 L 42.43624 -0.58161 L 42.75567 -0.56325 L 43.10757 -0.54713 L 43.48751 -0.53347 L 43.89071 -0.52243 L 44.3121 -0.51415 L 44.74641 -0.50873 L 45.18815 -0.50625 L 45.6318 -0.50674 L 46.07177 -0.51018 L 46.50253 -0.51654 L 46.91867 -0.52573 L 47.31497 -0.53764" />
    <path d="M 47.59993 -0.54744 L 47.85121 -0.55685 L 48.08997 -0.56735 L 48.31485 -0.57888 L 48.52459 -0.59139 L 48.71802 -0.60479 L 48.89406 -0.61903 L 49.05171 -0.63401 L 49.19008 -0.64965 L 49.30841 -0.66586 L 49.40603 -0.68256 L 49.48238 -0.69965 L 49.53704 -0.71703 L 49.56971 -0.7346 L 49.5802 -0.75227 L 50.03622 11.98235 L 50.03266 11.99286 L 50.02126 12.00334 L 50.00204 12.01379 L 49.97503 12.02417 L 49.94028 12.03448 L 49.89787 12.04468 L 49.84788 12.05475 L 49.7904 12.06469 L 49.72556 12.07446 L 49.65348 12.08405 L 49.5743 12.09344 L 49.48818 12.10261 L 49.3953 12.11154 L 49.29583 12.12022" />
    <path d="M 49.5802 -0.75227 L 49.57714 -0.76105 L 49.56861 -0.76981 L 49.55461 -0.77855 L 49.53517 -0.78726 L 49.51031 -0.79591 L 49.48007 -0.8045 L 49.44448 -0.81302 L 49.4036 -0.82146 L 49.35748 -0.82979 L 49.30619 -0.83802 L 49.2498 -0.84614 L 49.18838 -0.85412 L 49.12202 -0.86196 L 49.05082 -0.86964" />
    <path d="M 48.02396 -0.97579 L 49.05082 -0.86964" />
    <path d="M 47.32909 -1.04762 A 2.23731 0.13338 180 0 0 48.02396 -0.97579" />
    <path d="M 47.12094 -1.06914 L 47.32909 -1.04762" />
    <path d="M 47.13601 -1.07657 A 2.57856 0.15372 180 0 0 47.12094 -1.06914" />
    <path d="M 47.13601 -1.07657 L 46.12098 -1.09176 L 41.5529 -0.9347 L 41.45852 -0.94445 C 41.38 -0.95 41.22 -0.96 41.06172 -0.95619" />
    <path d="M 45.5033 -1.54208 A 6.32856 0.37728 180 0 0 33.93535 -1.32988 A 6.32856 0.37728 180 0 0 41.06172 -0.95619" />
    <path d="M 45.5033 -1.54208 C 45.57 -1.54 45.73 -1.53 45.83502 -1.53752 L 46.04146 -1.54462 C 46.16 -1.55 46.2 -1.56 46.12683 -1.56558 C 46.16 -1.55 46.2 -1.56 46.12683 -1.56558" />
    <path d="M 43.64998 -0.92675 L 41.92756 -0.74909 L 43.64718 -0.57133 L 47.08922 -0.57123 L 48.81164 -0.74889 L 47.09203 -0.92665 L 47.08665 -0.57123" />
    <path d="M 47.09203 -0.92665 L 43.64998 -0.92675 L 43.65535 -0.57133" />
    <path d="M 49.60403 -0.08686 A 6.27619 0.37416 360 0 1 53.03139 -0.14296" />
    <path d="M 59.18909 -1.03292 C 59.18 -0.47 59.19 -1.14 59.20679 -1.80383" />
    <path d="M 51.97915 10.75917 A 16.54706 0.98647 180 0 0 53.56192 10.98939" />
    <path d="M 51.97915 10.75917 C 51.95 10.75 51.84 10.75 51.74341 10.75062 C 51.69 8.18 51.65 5.6 51.59872 3.02867" />
    <path d="M 51.74341 10.75062 L 51.66577 10.75163 L 50.93545 4.84183" />
    <path d="M 51.42693 10.7426 L 51.43298 10.74389 L 51.44141 10.74512 L 51.45212 10.74629 L 51.46496 10.74738 L 51.47979 10.74838 L 51.49642 10.74927 L 51.51463 10.75004 L 51.5342 10.7507 L 51.55489 10.75121 L 51.57644 10.75159 L 51.59858 10.75182 L 51.62104 10.7519 L 51.64353 10.75184 L 51.66577 10.75163" />
    <path d="M 51.42693 10.7426 L 51.27594 10.70193 L 50.49004 4.85714" />
    <path d="M 51.27528 10.69701 L 51.27471 10.69718 L 51.27418 10.69736 L 51.27369 10.69753 L 51.27325 10.69771 L 51.27285 10.69788 L 51.2725 10.69806 L 51.27219 10.69823 L 51.27192 10.69841 L 51.2717 10.69859 L 51.27152 10.69876 L 51.27139 10.69894 L 51.2713 10.69912 L 51.27126 10.69929 L 51.27126 10.69947 L 51.27131 10.69965 L 51.2714 10.69983 L 51.27153 10.7 L 51.27171 10.70018 L 51.27194 10.70036 L 51.27221 10.70053 L 51.27252 10.70071 L 51.27288 10.70088 L 51.27328 10.70106 L 51.27372 10.70124 L 51.27421 10.70141 L 51.27474 10.70158 L 51.27532 10.70176 L 51.27594 10.70193" />
    <path d="M 50.72097 9.99013 A 6.17206 0.36795 180 0 0 51.19482 10.13094" />
    <path d="M 40.45794 13.2004 A 5.1971 0.30983 180 0 0 46.21147 13.22269" />
    <path d="M 37.00219 13.04285 L 40.45794 13.2004 L 40.33466 5.4738" />
    <path d="M 30.52099 12.60278 A 25.04461 1.49306 180 0 0 37.00219 13.04285 L 36.87891 5.31625 L 40.33466 5.4738" />
    <path d="M 28.8641 12.4315 L 30.52099 12.60278 L 30.34519 4.8726 A 25.24755 1.50516 180 0 0 36.87891 5.31625" />
    <path d="M 28.8641 12.4315 A 38.06536 2.26931 180 0 0 26.98241 12.25611 L 26.81664 4.52687 A 10 0.59616 360 0 1 25.62 4.39203 A 15 0.89424 180 0 0 15.26593 3.83892" />
    <path d="M 25.81005 12.124 A 9.79706 0.58406 180 0 0 26.98241 12.25611" />
    <path d="M 25.81005 12.124 A 15.20294 0.90634 180 0 0 15.31586 11.56341 L 15.26589 3.83892" />
    <path d="M 14.10355 11.50135 A 1.79706 0.10713 180 0 0 15.31586 11.56341" />
    <path d="M 14.10355 11.50135 A 4.82794 0.28782 180 0 0 8.25001 11.33828 L 8.30868 3.67983" />
    <path d="M 6.8456 11.3292 A 1.79706 0.10713 180 0 0 8.25001 11.33828" />
    <path d="M 6.8456 11.3292 L -6.22232 10.89141" />
    <path d="M 50.30378 1.1803 A 7.98691 0.47615 180 0 0 52.37018 1.2053" />
    <path d="M 50.30378 1.1803 C 50.3 1.1 50.3 1.01 50.29418 0.93014" />
    <path d="M 50.15057 0.92707 A 7.98036 0.47576 180 0 0 50.29418 0.93014" />
    <path d="M 50.12153 0.92645 A 1.38413 0.08252 180 0 0 49.63999 0.91744" />
    <path d="M 50.15057 0.92707 A 1.51964 0.09059 180 0 0 50.12153 0.92645 C 50.12 1.01 50.11 1.09 50.10552 1.1761 A 1.51309 0.0902 180 0 0 49.64908 1.17144" />
    <path d="M 46.74763 -1.08238 C 46.77 -0.35 46.75 -1.02 46.72828 -1.68486" />
    <path d="M 49.67464 1.8851 L 53.54727 1.75196" />
    <path d="M 52.36929 1.70519 A 8 0.47693 360 0 1 50.14377 1.67684" />
    <path d="M 49.66699 1.67135 A 1.5 0.08942 360 0 1 50.14377 1.67684" />
    <path d="M 46.80579 5.4778 A 5.40004 0.32193 360 0 1 46.31286 5.49695" />
    <path d="M -17.15564 -0.39858 A 4.92144 0.2934 360 0 1 -17.67308 -0.40505" />
    <path d="M -12.18164 -0.36475 A 63.5262 3.78718 360 0 1 -17.15564 -0.39858 L -17.16761 2.60071" />
    <path d="M -12.18164 -0.36475 A 5.4738 0.32633 360 0 1 -7.16994 -0.08605 L -7.17374 0.06017" />
    <path d="M -7.16994 -0.08605 A 8.4738 0.50517 360 0 1 -7.08264 -0.01292 A 8.4738 0.50517 360 0 1 -7.19262 0.06742 C -7.29 0.1 -6.98 0.14 -6.44739 0.1597 C -7.29 0.1 -6.98 0.14 -6.44739 0.1597 L 6.98451 0.60969 L 6.98117 0.82411 L 6.97783 1.03852 L 6.9745 1.25291 L 6.97117 1.46728 L 6.96785 1.68164 L 6.96453 1.89597 L 6.96122 2.11029 L 6.95791 2.32459 L 6.95461 2.53887 L 6.95131 2.75313 L 6.94802 2.96737 L 6.94473 3.18159 L 6.94145 3.39579 L 6.93817 3.60996" />
    <path d="M 6.74214 3.6034 L -6.49866 3.15981" />
    <path d="M 6.74214 3.6034 C 6.74 3.6 6.74 3.6 6.74619 3.60353 C 7.22 3.64 7.8 3.67 8.30868 3.67983" />
    <path d="M 6.74618 3.60353 L 6.93817 3.60996" />
    <path d="M 51.86703 4.8098 C 51.88 5.61 51.93 8.19 51.97915 10.75917" />
    <path d="M 6.98451 0.60969 C 7.44 0.62 7.98 0.63 8.48136 0.62091 C 8.47 1.62 8.46 2.62 8.45562 3.62085 A 4.46788 0.26636 360 0 1 13.73941 3.76903 C 13.76 2.77 13.77 1.77 13.79057 0.76974 C 14.04 0.8 14.55 0.83 15.13615 0.8359 C 15.12 1.84 15.11 2.84 15.09608 3.83641 A 15 0.89424 360 0 1 15.26593 3.83892" />
    <path d="M 8.48136 0.62091 A 4.54644 0.27104 360 0 1 13.79057 0.76974" />
    <path d="M 15.13615 0.8359 A 15.10476 0.90049 360 0 1 25.71811 1.39517 L 25.62 4.39203" />
    <path d="M 26.90221 1.52861 A 9.89524 0.58992 360 0 1 25.71811 1.39517" />
    <path d="M 26.90221 1.52861 A 37.96718 2.26345 360 0 1 28.77905 1.70355 L 28.6883 4.70133 A 37.86242 2.25721 180 0 0 26.81664 4.52687" />
    <path d="M 28.77905 1.70355 L 30.43594 1.87482 L 30.34519 4.8726 L 28.6883 4.70133" />
    <path d="M 36.94255 2.31662 A 25.14279 1.49891 360 0 1 30.43594 1.87482" />
    <path d="M 36.94255 2.31662 L 40.3983 2.47417" />
    <path d="M 46.70355 2.47984 L 46.32472 2.48707 L 45.93566 2.492 L 45.54028 2.49457 L 45.14259 2.49477 L 44.74658 2.49258 L 44.35627 2.48804 L 43.97559 2.48118 L 43.60837 2.47207 L 43.25834 2.46082 L 42.92902 2.44752 L 42.62374 2.43232 L 42.34558 2.41537 L 42.09734 2.39684 L 41.88153 2.37692 L 41.91034 -0.62414" />
    <path d="M 41.88153 2.37692 L 40.48761 2.23283" />
    <path d="M 30.95913 1.42308 A 5.23682 0.3122 360 0 1 26.93084 1.20236 C 27.24 0.85 27.55 0.51 27.8666 0.16279 A 16.2151 0.96668 360 0 1 19.3815 -0.689" />
    <path d="M 26.93084 1.20236 A 17.28682 1.03057 360 0 1 18.30975 0.3112 C 18.67 -0.03 19.03 -0.37 19.38765 -0.71369" />
    <path d="M 18.30975 0.3112 A 5.23682 0.3122 360 0 1 16.84924 0.07424" />
    <path d="M 17.91875 -0.91928 A 4.1651 0.24831 180 0 0 17.91021 -0.9039" />
    <path d="M 27.8666 0.16279 C 27.89 -0.5 27.91 -1.17 27.92961 -1.83697" />
    <path d="M 27.8666 0.16279 A 4.1651 0.24831 180 0 0 32.07586 0.36732" />
    <path d="M 36.86025 -2.77599 A 1.5 0.08942 360 0 1 37.06086 -2.73145 L 37.08704 -1.73323" />
    <path d="M 37.06086 -2.73145 A 1.5 0.08942 360 1 1 34.06086 -2.73145 L 34.03467 -1.73323" />
    <path d="M 34.06086 -2.73145 A 1.5 0.08942 360 0 1 36.86025 -2.77599" />
    <path d="M 34.73901 -3.3698 C 34.75 -3.04 34.76 -2.7 34.76377 -2.3696" />
    <path d="M 26.1996 -2.07019 A 7.93016 0.47276 180 0 0 27.58032 -2.06535" />
    <path d="M 26.07148 -2.9538 C 26.08 -2.4 26.07 -2.74 26.06956 -3.07172" />
    <path d="M 27.58326 -2.17755 A 11.5 0.68558 180 0 0 26.19922 -2.08099" />
    <path d="M 39.0776 0.63667 C 39.34 0.64 39.59 0.7 39.81738 0.80123" />
    <path d="M 47.13629 -1.06755 L 47.13627 -1.06819 L 47.13625 -1.06884 L 47.13623 -1.06948 L 47.13621 -1.07013 L 47.13619 -1.07077 L 47.13617 -1.07142 L 47.13615 -1.07206 L 47.13613 -1.0727 L 47.13611 -1.07335 L 47.13609 -1.07399 L 47.13607 -1.07464 L 47.13605 -1.07528 L 47.13603 -1.07593 L 47.13601 -1.07657" />
    <path d="M 46.06394 -1.08979 C 46.11 -0.21 46.07 -0.88 46.04146 -1.54462" />
    <path d="M 15.26589 3.83892 C 14.67 3.85 14.16 3.85 13.91832 3.83789" />
    <path d="M 8.31191 3.6229 C 8.31 3.64 8.31 3.66 8.30868 3.67983" />
    <path d="M 13.91832 3.83789 C 13.92 3.82 13.92 3.79 13.91549 3.76969" />
    <path d="M 50.10552 1.1761 A 1.3754 0.082 180 0 0 49.64895 1.16759" />
    <path d="M 13.73941 3.76903 C 13.99 3.8 14.5 3.83 15.09608 3.83641" />
    <path d="M 8.45562 3.62085 C 7.95 3.63 7.4 3.63 6.93817 3.60996" />
    <path d="M 39.5401 -2.81962 A 4.55237 0.27139 180 0 0 31.04419 -2.68361 A 4.55237 0.27139 180 0 0 34.05292 -2.42872" />
    <path d="M 37.06884 -2.42722 A 4.55237 0.27139 180 0 0 40.14893 -2.68361 A 4.55237 0.27139 180 0 0 39.5401 -2.81962" />
    <path d="M 39.5933 -2.27089 A 8 0.47693 180 0 0 43.59655 -2.68478 L 43.6209 -1.75648" />
    <path d="M 43.59655 -2.68478 A 8 0.47693 180 0 0 27.59657 -2.68478 L 27.57793 -1.97423" />
    <path d="M 27.59657 -2.68478 A 8 0.47693 180 0 0 34.04734 -2.21613" />
    <path d="M 37.0744 -2.21531 A 8 0.47693 180 0 0 39.5933 -2.27089" />
    <path d="M 60.6059 -0.99461 L 60.54829 5.00751" />
    <path d="M 61.94857 12.68161 L 62.04996 4.95588" />
    <path d="M 50.15057 0.92707 L 50.14377 1.67684" />
    <path d="M -12.18164 -0.36475 L -12.18746 2.63458" />
    <path d="M -6.53855 3.15848 L -6.53204 2.94477 L -6.52552 2.73098 L -6.519 2.51712 L -6.51249 2.30319 L -6.50597 2.08917 L -6.49946 1.87509 L -6.49295 1.66093 L -6.48644 1.44669 L -6.47993 1.23238 L -6.47342 1.01799 L -6.46691 0.80353 L -6.4604 0.589 L -6.4539 0.37439 L -6.44739 0.1597" />
    <path d="M 53.55562 7.79308 L 53.42383 4.75627" />
    <path d="M 51.42693 10.7426 L 50.69874 4.84996" />
    <path d="M 45.83359 -1.08187 L 45.83369 -1.1144 L 45.8338 -1.14692 L 45.8339 -1.17945 L 45.834 -1.21198 L 45.8341 -1.24452 L 45.83421 -1.27706 L 45.83431 -1.30961 L 45.83441 -1.34215 L 45.83451 -1.37471 L 45.83461 -1.40726 L 45.83472 -1.43982 L 45.83482 -1.47239 L 45.83492 -1.50495 L 45.83502 -1.53752" />
    <path d="M 28.8641 12.4315 L 28.6883 4.70133" />
    <path d="M 25.81005 12.124 L 25.62 4.39203" />
    <path d="M 14.10355 11.50135 L 13.91832 3.83789" />
    <path d="M 6.8456 11.3292 L 6.74618 3.60353" />
    <path d="M 26.90221 1.52861 L 26.81664 4.52687" />
    <path d="M 36.94255 2.31662 L 36.87891 5.31625" />
    <path d="M -69.97333 -3.39285 L -69.97333 2.59648" />
    <path d="M 55.02667 -3.39285 L 55.02667 -2.2204" />
    <path d="M 62.36469 -1.32034 Q 62.37 -1.23 62.37376 -1.143" />
    <path d="M 62.96055 1.28774 L 62.97843 1.78714" />
    <path d="M 62.61572 -1.12823 C 62.64 -0.72 62.66 -0.3 62.68717 0.10879 C 62.71 0.53 62.74 0.94 62.75936 1.35995" />
    <path d="M 64.64741 1.68168 L 64.75217 4.67633" />
    <path d="M 53.21305 -2.46815 L 53.22113 -2.23719" />
    <path d="M 47.92103 -3.20799 L 47.89271 -2.12867" />
    <path d="M 50.92102 -3.20799 L 50.94721 -2.20977" />
    <path d="M 60.82605 -1.78443 C 60.83 -1.55 60.84 -1.31 60.84653 -1.06695" />
    <path d="M 53.07704 -1.29698 C 53.06 -0.88 53.04 -0.47 53.02809 -0.06006 C 53.01 0.36 52.99 0.78 52.97763 1.20006" />
    <path d="M -7.30326 3.08036 C -7.27 2.08 -7.24 1.08 -7.21209 0.08159" />
    <path d="M 53.29162 4.76082 L 53.585 11.52121" />
    <path d="M 50.48571 4.85729 L 51.27126 10.69947" />
    <path d="M 50.72097 9.99013 L 50.61071 5.78696" />
    <path d="M 46.16634 -1.56111 C 46.17 -1.4 46.18 -1.25 46.18958 -1.09073" />
    <path d="M 32.30356 0.15206 L 30.74195 1.6284" />
    <path d="M 17.91048 -0.9116 L 16.84924 0.07424" />
</svg>