<svg version="1.1" xmlns="http://www.w3.org/2000/svg" viewBox="-78.0538414768472 -15.418655733900458 144.34116880409044 31.780909446224143" fill="none" stroke="black" stroke-width="0.6%" vector-effect="non-scaling-stroke">
    <path d="M 12.06576 13.17249 L 29.90913 15.36225 L 29.90913 12.37277 L 35.54206 13.06405 L 35.54206 5.0921 L 65.28733 3.39551 L 42.75562 0.63039 L 41.95567 0.67601 L 39.64841 -1.90101 L 37.97877 -1.80577 L 37.97877 3.58615" />
    <path d="M 12.06576 10.183 L 12.06576 13.17249" />
    <path d="M 13.01035 10.29893 L 12.06576 10.183 L 13.01035 10.22107" />
    <path d="M 13.01035 10.29893 L 13.01035 2.32697 L 35.54206 5.0921" />
    <path d="M 29.90913 15.36225 L 59.6544 13.66567 L 59.6544 11.68875" />
    <path d="M -13.39017 12.14677 A 61 5.10352 0 0 1 -77.05384 7.04812" />
    <path d="M -13.39017 12.14677 L 12.06576 13.17249" />
    <path d="M -13.39017 9.15728 L -13.39017 12.14677" />
    <path d="M -14.01859 9.13196 L -13.39017 9.15728 A 61 5.10352 0 0 1 -77.05384 4.05864 L -77.05384 7.04812" />
    <path d="M -14.01859 9.13196 L -14.01859 1.16001 L 13.81031 2.28135 L 13.01035 2.32697" />
    <path d="M 65.28733 11.36747 L 65.28733 3.39551" />
    <path d="M -77.05384 4.05864 A 61 5.10352 0 0 1 -57.05384 0.27983" />
    <path d="M 24.94616 0.27983 A 61 5.10352 0 0 1 37.97877 1.69007" />
    <path d="M 35.54206 13.06405 L 65.28733 11.36747" />
    <path d="M 41.19018 0.66106 L 56.44349 2.53297" />
    <path d="M 29.17699 4.08818 L 56.44349 2.53297" />
    <path d="M 29.17699 4.08818 L 13.92368 2.21627" />
    <path d="M -12.52278 1.15064 L 13.92368 2.21627" />
    <path d="M -11.5687 1.09622 L -12.52278 1.15064" />
    <path d="M -12.34895 1.06478 L -11.5687 1.09622" />
    <path d="M -12.34895 1.06478 L -14.01859 1.16001" />
    <path d="M 38.04346 -1.73352 L 37.97877 -1.80577" />
    <path d="M 38.99754 -1.78794 L 38.04346 -1.73352 L 38.04346 3.58246" />
    <path d="M 41.19018 0.66106 L 38.99754 -1.78794" />
    <path d="M 41.19018 3.40298 L 41.19018 0.66106" />
    <path d="M -11.5687 1.18908 L -11.5687 1.09622" />
    <path d="M 38.99754 3.52804 L 38.99754 -1.78794" />
    <path d="M -39.14884 -13.82268 A 41 3.43023 360 0 1 24.94616 -10.98842 L 24.94616 3.56896" />
    <path d="M 24.94616 -10.98842 A 41 3.43023 360 0 1 -57.05384 -10.98842 L -57.05384 3.95899 A 41 3.43023 180 0 0 -14.01859 7.38499" />
    <path d="M -57.05384 -10.98842 A 41 3.43023 360 0 1 -39.14884 -13.82268" />
    <path d="M -9.85762 -10.22801 A 11 0.92031 180 0 0 -5.05384 -10.98842 A 11 0.92031 180 0 0 -27.05384 -10.98842 A 11 0.92031 180 0 0 -9.85762 -10.22801 Z" />
</svg>