<svg version="1.1" xmlns="http://www.w3.org/2000/svg" viewBox="-72.71793776729248 -22.044342642811706 142.44860607090968 44.3827937084606" fill="none" stroke="black" stroke-width="0.6%" vector-effect="non-scaling-stroke">
    <path d="M 64.54321 19.97264 L 68.73067 18.50937 L 68.73067 -5.38948 L 61.05323 -6.59469 L 62.08956 -6.84747 L 63.06503 -7.67022 L 62.98828 -7.7191" />
    <path d="M 59.88785 20.74495 A 5 0.45855 180 0 0 64.54321 20.28748" />
    <path d="M -69.29821 6.27521 A 5 0.45855 0 0 1 -71.67369 5.88491" />
    <path d="M 52.38897 21.13872 L 59.88785 20.74495" />
    <path d="M 44.13076 21.13825 A 5 0.45855 180 0 0 52.38897 21.13872" />
    <path d="M 27.24925 20.73192 L 44.13076 21.13825" />
    <path d="M 19.37184 19.49533 L 27.24925 20.73192 L 27.24925 -3.16693 L 44.13076 -2.7606 L 44.13076 21.13825" />
    <path d="M -71.71794 10.87394 A 65 5.96121 180 0 0 -7.67059 16.83451" />
    <path d="M 12.30998 19.29725 L 19.37184 19.49533 L 19.37184 -4.40353 L 27.24925 -3.16693" />
    <path d="M 8.59675 19.08933 L 12.30998 19.29725 L 12.30998 -4.60161 L 19.37184 -4.40353" />
    <path d="M 1.76352 18.66271 A 5 0.45855 180 0 0 8.59675 19.08933" />
    <path d="M -7.67059 17.05343 L -6.16648 17.55442 L -1.68257 18.27262 L 1.76352 18.59768" />
    <path d="M 50.1496 -9.88164 L 52.0016 -9.9789" />
    <path d="M 50.1496 -9.88164 L 50.1496 -9.56449" />
    <path d="M 52.88172 -9.91445 L 52.0016 -9.9789" />
    <path d="M -15.74031 1.98308 A 65 5.96121 360 0 1 -12.71794 1.95082" />
    <path d="M 58.31178 -9.25345 L 52.88172 -9.91445" />
    <path d="M -15.74031 -18.91946 L -16.15473 -18.98452" />
    <path d="M -15.74031 1.99204 L -15.74031 -18.91946" />
    <path d="M 61.77884 -8.48937 L 58.31178 -9.25345" />
    <path d="M -21.10857 -19.76217 A 5 0.45855 0 0 1 -12.81719 -19.41698 A 5 0.45855 0 0 1 -16.15473 -18.98452" />
    <path d="M 61.8355 -8.45328 L 61.77884 -8.48937" />
    <path d="M -21.10857 -19.76217 L -21.71318 -19.85708 A 5 0.45855 180 0 0 -18.28296 -20.29245 A 5 0.45855 180 0 0 -27.51262 -20.537 L -45.02616 -20.95854 L -49.19507 -20.73517 A 5 0.45855 180 0 0 -58.92231 -20.58579 A 5 0.45855 180 0 0 -57.66268 -20.28148 L -62.20833 -20.03793 L -66.68814 -18.4725 A 5 0.45855 180 0 0 -71.67369 -18.01395 A 5 0.45855 180 0 0 -63.4024 -17.66716 L -62.80307 -17.57307 A 5 0.45855 180 0 0 -66.20792 -17.13848 A 5 0.45855 180 0 0 -57.86328 -16.79762 L -57.30194 -16.70951 L -57.30194 4.20199 L -57.51959 4.16783" />
    <path d="M 61.8355 -8.45328 A 5 0.45855 360 0 1 64.50146 -8.04775 A 5 0.45855 360 0 1 62.98828 -7.7191" />
    <path d="M 63.06503 -6.27887 L 63.06503 -7.67022" />
    <path d="M 62.08956 -6.432 L 62.08956 -6.84747" />
    <path d="M 64.15142 -3.78931 L 68.73067 -5.38948" />
    <path d="M 59.88785 8.79552 L 59.88785 20.74495" />
    <path d="M 62.74073 -3.9639 A 5 0.45855 180 0 0 54.54321 -3.61137 A 5 0.45855 180 1 0 64.54321 -3.61137 A 5 0.45855 180 0 0 64.15142 -3.78931" />
    <path d="M 59.88785 8.79552 A 5 0.45855 360 0 1 54.54321 8.33806" />
    <path d="M -63.4024 -17.66716 L -63.4024 -17.55051" />
    <path d="M 52.38897 9.1893 L 59.88785 8.79552" />
    <path d="M 52.38897 9.1893 L 52.38897 21.13872" />
    <path d="M 43.30963 -2.95557 A 5 0.45855 0 0 1 43.26162 -3.01896 A 5 0.45855 0 0 1 53.26162 -3.01896 A 5 0.45855 0 0 1 44.13076 -2.7606" />
    <path d="M 53.26162 8.93047 A 5 0.45855 360 0 1 52.38897 9.1893" />
    <path d="M -57.86328 -16.79762 L -57.86328 4.20767" />
    <path d="M -7.67059 13.84716 A 65 5.96121 360 0 1 -71.71794 7.88658 A 65 5.96121 360 0 1 -57.51959 4.16783" />
    <path d="M 8.59675 -4.80952 L 12.30998 -4.60161" />
    <path d="M 8.59675 -4.80952 L 8.59675 19.08933" />
    <path d="M -7.67059 -6.84543 L -5.89279 -6.93878 L -4.71412 -6.54619" />
    <path d="M -7.67059 17.05343 L -7.67059 -6.84543 L -6.16648 -6.34444 L -1.68257 -5.62624 L 1.80775 -5.297" />
    <path d="M 8.59675 -4.80952 A 5 0.45855 360 0 1 1.76352 -5.23614 A 5 0.45855 360 0 1 1.80775 -5.297" />
    <path d="M -6.16648 17.55442 L -6.16648 -6.34444" />
    <path d="M -1.68257 18.27262 L -1.68257 -5.62624" />
    <path d="M -43.56285 2.85 A 4.15 0.3806 360 0 1 -40.72926 2.85" />
    <path d="M 59.55289 -8.50629 L 57.26461 -9.01058 L 57.26461 -8.45786" />
    <path d="M 59.55289 -8.50629 A 5 0.45855 180 0 0 54.50146 -8.04775 L 54.50146 8.12724" />
    <path d="M 54.50146 -8.04775 A 5 0.45855 180 0 0 60.99797 -7.61022" />
    <path d="M 52.81737 -9.61986 A 5 0.45855 180 0 0 47.54502 -9.16199 L 47.54502 -3.47278" />
    <path d="M 47.54502 -9.16199 A 5 0.45855 180 0 0 57.26461 -9.01058" />
    <path d="M 60.14406 -6.88999 L 60.99797 -7.61022" />
    <path d="M 52.81737 -9.61986 L 51.44776 -9.78658 L 50.1496 -9.88164" />
    <path d="M 59.78553 -6.80254 L 60.14406 -6.88999" />
    <path d="M 60.32021 -6.7169 L 59.78553 -6.80254" />
    <path d="M 60.32021 -6.7169 L 59.01849 -6.64855 L 64.98114 -5.69349" />
    <path d="M 64.73606 -5.68062 L 64.98114 -5.69349" />
    <path d="M 66.74914 -5.36461 L 64.73606 -5.68062 L 64.73606 -4.66115" />
    <path d="M 62.74073 -3.9639 L 66.74914 -5.36461" />
    <path d="M 60.41276 -3.47209 A 1.75 0.16049 360 0 1 57.79321 -3.61137 A 1.75 0.16049 360 0 1 61.29321 -3.61137 A 1.75 0.16049 360 0 1 60.41276 -3.47209 Z" />
    <path d="M 53.41458 -9.02271 A 1.75 0.16049 360 0 1 50.79502 -9.16199 A 1.75 0.16049 360 0 1 54.29502 -9.16199 A 1.75 0.16049 360 0 1 53.41458 -9.02271 Z" />
    <path d="M 60.37101 -7.90848 A 1.75 0.16049 360 0 1 57.75146 -8.04775 A 1.75 0.16049 360 0 1 61.25146 -8.04775 A 1.75 0.16049 360 0 1 60.37101 -7.90848 Z" />
    <path d="M 51.44776 -9.60936 L 51.44776 -9.78658" />
    <path d="M -15.74031 1.99204 L -15.83293 2.0244 L -15.83293 -18.8871 L -18.08111 -18.76904 L -17.72183 -18.89459 L -18.13441 -18.95935 L -18.13441 1.95215 A 5 0.45855 360 0 1 -22.81719 1.49452" />
    <path d="M -15.83293 2.0244 L -18.08111 2.14246 L -18.08111 -18.76904" />
    <path d="M -18.08111 1.96051 L -18.13441 1.95215" />
    <path d="M -22.81719 1.21704 L -23.71647 1.07587 A 5 0.45855 360 0 1 -28.28296 0.61905" />
    <path d="M -55.1534 4.08917 L -57.30194 4.20199" />
    <path d="M -28.28296 0.53116 L -44.75493 0.13469 L -44.75493 -20.77681 L -48.93523 -20.55283 L -48.93523 0.35867 A 5 0.45855 360 0 1 -55.1534 0.77015" />
    <path d="M -44.75493 0.13469 L -48.93523 0.35867" />
    <path d="M -52.7683 2.03326 L -55.1534 2.15851" />
    <path d="M -52.75574 1.71227 L -52.7683 2.03326" />
    <path d="M -55.1534 1.58427 L -52.75574 1.71227" />
    <path d="M -45.86789 3.78452 L -48.89268 3.62303 L -48.88011 3.30204 L -45.84276 3.14255 L -42.81797 3.30404 L -42.83054 3.62502 L -45.86789 3.78452 Z" />
    <path d="M -38.61815 2.77703 A 7.1 0.65115 360 0 1 -49.24606 2.21195 A 7.1 0.65115 360 0 1 -35.04606 2.21195 A 7.1 0.65115 360 0 1 -38.61815 2.77703 Z" />
    <path d="M -38.44936 1.28135 L -41.47415 1.11986 L -41.46158 0.79888 L -38.42423 0.63938 L -35.39944 0.80087 L -35.41201 1.12186 L -38.44936 1.28135 Z" />
    <path d="M -28.5116 2.87312 L -31.53638 2.71163 L -31.52382 2.39064 L -28.48647 2.23114 L -25.46168 2.39264 L -25.47424 2.71362 L -28.5116 2.87312 Z" />
    <path d="M -35.289 3.31027 A 57.5 5.27338 360 0 1 -12.71794 2.64199" />
    <path d="M -7.67059 13.15924 A 57.5 5.27338 360 0 1 -64.21794 7.88658 A 57.5 5.27338 360 0 1 -35.289 3.31027" />
    <path d="M -15.83293 -18.8871 L -15.74031 -18.91946" />
    <path d="M -18.13441 -18.95935 A 5 0.45855 360 0 1 -22.81719 -19.41698 L -22.81719 1.49452" />
    <path d="M -22.81719 -19.41698 A 5 0.45855 360 0 1 -22.31978 -19.61637 L -23.71647 -19.83562 L -23.71647 1.07587" />
    <path d="M -23.71647 -19.83562 A 5 0.45855 360 0 1 -28.28296 -20.29245 L -28.28296 0.61905" />
    <path d="M -28.28296 -20.29245 A 5 0.45855 360 0 1 -28.19473 -20.37821 L -44.75493 -20.77681" />
    <path d="M -48.93523 -20.55283 A 5 0.45855 360 0 1 -56.05833 -20.17118 L -56.05833 -16.85022" />
    <path d="M -56.05833 -20.17118 L -60.61539 -19.92702 L -64.86651 -18.4415 A 5 0.45855 360 0 1 -61.67369 -18.01395 L -61.67369 -17.73172" />
    <path d="M -61.67369 -18.01395 A 5 0.45855 360 0 1 -62.18488 -17.81196 L -60.80629 -17.59555 A 5 0.45855 360 0 1 -56.20792 -17.13848 L -56.20792 -16.8737" />
    <path d="M -56.20792 -17.13848 A 5 0.45855 360 0 1 -56.66918 -16.94611 L -56.01237 -16.843 L -55.1534 -16.82233 L -55.1534 4.08917" />
    <path d="M -55.1534 -16.82233 L -57.30194 -16.70951" />
    <path d="M -65.80413 -17.87467 A 1.75 0.16049 360 0 1 -68.42369 -18.01395 A 1.75 0.16049 360 0 1 -64.92369 -18.01395 A 1.75 0.16049 360 0 1 -65.80413 -17.87467 Z" />
    <path d="M -60.33836 -16.9992 A 1.75 0.16049 360 0 1 -62.95792 -17.13848 A 1.75 0.16049 360 0 1 -59.45792 -17.13848 A 1.75 0.16049 360 0 1 -60.33836 -16.9992 Z" />
    <path d="M -53.25151 -20.47834 A 1.75 0.16049 360 0 1 -55.87106 -20.61762 A 1.75 0.16049 360 0 1 -52.37106 -20.61762 A 1.75 0.16049 360 0 1 -53.25151 -20.47834 Z" />
    <path d="M -22.4134 -20.15317 A 1.75 0.16049 360 0 1 -25.03296 -20.29245 A 1.75 0.16049 360 0 1 -21.53296 -20.29245 A 1.75 0.16049 360 0 1 -22.4134 -20.15317 Z" />
    <path d="M -16.94763 -19.2777 A 1.75 0.16049 360 0 1 -19.56719 -19.41698 A 1.75 0.16049 360 0 1 -16.06719 -19.41698 A 1.75 0.16049 360 0 1 -16.94763 -19.2777 Z" />
    <path d="M 54.54321 8.12505 L 53.26162 8.19235" />
    <path d="M 28.4586 -3.31302 L 43.30963 -2.95557" />
    <path d="M 26.2503 -3.65968 L 28.4586 -3.31302" />
    <path d="M 25.92949 -3.64284 L 26.2503 -3.65968" />
    <path d="M 19.96683 -4.59789 L 25.92949 -3.64284" />
    <path d="M 19.96683 -4.59789 L 18.66511 -4.52954 L 17.24976 -4.75624 L 17.21108 -4.74273 L 17.89589 -4.63523" />
    <path d="M -1.10193 -5.89946 A 5 0.45855 180 0 0 4.80709 -6.35038 L 4.80709 -5.65814" />
    <path d="M 4.80709 -6.35038 A 5 0.45855 180 0 0 -4.71412 -6.54619" />
    <path d="M -1.10193 -5.89946 L -0.08518 -5.73661 L 2.57121 -5.48604" />
    <path d="M 13.13 -4.7689 L 17.89589 -4.63523" />
    <path d="M 10.4022 -4.92164 A 5 0.45855 180 0 0 11.76352 -5.23614 L 11.76352 -4.84542" />
    <path d="M 11.76352 -5.23614 A 5 0.45855 180 0 0 2.57121 -5.48604" />
    <path d="M 10.4022 -4.92164 L 13.13 -4.7689" />
    <path d="M 7.63308 -5.09687 A 1.75 0.16049 360 0 1 5.01352 -5.23614 A 1.75 0.16049 360 0 1 8.51352 -5.23614 A 1.75 0.16049 360 0 1 7.63308 -5.09687 Z" />
    <path d="M 0.67664 -6.2111 A 1.75 0.16049 360 0 1 -1.94291 -6.35038 A 1.75 0.16049 360 0 1 1.55709 -6.35038 A 1.75 0.16049 360 0 1 0.67664 -6.2111 Z" />
    <path d="M 49.32993 -2.84785 A 1.75 0.16049 360 0 1 46.71037 -2.98713 A 1.75 0.16049 360 0 1 50.21037 -2.98713 A 1.75 0.16049 360 0 1 49.32993 -2.84785 Z" />
    <path d="M -37.5704 2.70984 A 7.1 0.65115 180 0 0 -46.72172 2.70984" />
    <path d="M 59.78553 -6.68883 L 59.78553 -6.80254" />
    <path d="M 59.01849 -4.06739 L 59.01849 -6.64855" />
    <path d="M -60.61539 -17.5938 L -60.61539 -19.92702" />
    <path d="M -45.84276 3.7832 L -45.84276 3.14255" />
    <path d="M -48.88011 3.6237 L -48.88011 3.30204" />
    <path d="M -38.42423 1.28004 L -38.42423 0.63938" />
    <path d="M -41.46158 1.12053 L -41.46158 0.79888" />
    <path d="M -28.48647 2.8718 L -28.48647 2.23114" />
    <path d="M -31.52382 2.7123 L -31.52382 2.39064" />
    <path d="M -35.289 4.30605 A 57.5 5.27338 180 0 0 -63.96107 8.38448" />
    <path d="M -12.71794 3.63778 A 57.5 5.27338 180 0 0 -35.289 4.30605" />
    <path d="M 17.21108 -4.65443 L 17.21108 -4.74273" />
    <path d="M -7.67059 10.71451 A 20 1.83422 360 0 1 -26.71794 8.88237" />
    <path d="M -7.67059 9.71872 A 20 1.83422 360 0 1 -26.71794 7.88658 L -26.71794 8.88237" />
    <path d="M -26.71794 7.88658 A 20 1.83422 360 0 1 -12.71794 6.13685" />
    <path d="M -7.67059 8.42987 A 6 0.55027 360 0 1 -12.71794 7.88658" />
    <path d="M -9.69927 -4.54037 A 6 0.55027 360 0 1 -7.67059 -4.60613" />
    <path d="M -7.67059 -3.51956 A 6 0.55027 360 0 1 -12.71794 -4.06285 L -12.71794 7.88658" />
    <path d="M -12.71794 -4.06285 A 6 0.55027 360 0 1 -9.69927 -4.54037" />
    <path d="M -7.67059 -3.69241 A 4.15 0.3806 360 0 1 -10.86794 -4.06285 A 4.15 0.3806 360 0 1 -7.67059 -4.43328" />
    <path d="M -12.81719 -19.41698 L -12.81719 1.95167" />
    <path d="M 64.50146 -8.04775 L 64.50146 -6.05338" />
    <path d="M -18.28296 -20.29245 L -18.28296 -19.87354" />
    <path d="M -58.92231 -20.58579 L -58.92231 -20.21399" />
    <path d="M 54.54321 -3.61137 L 54.54321 8.33806" />
    <path d="M 64.54321 -3.61137 L 64.54321 20.28748" />
    <path d="M -71.67369 -18.01395 L -71.67369 5.88491" />
    <path d="M 43.26162 -3.01896 L 43.26162 -2.95672" />
    <path d="M 53.26162 -3.01896 L 53.26162 8.93047" />
    <path d="M -66.20792 -17.13848 L -66.20792 5.48463" />
    <path d="M -71.71794 7.88658 L -71.71794 10.87394" />
    <path d="M 1.76352 -5.23614 L 1.76352 18.66271" />
</svg>