<svg version="1.1" xmlns="http://www.w3.org/2000/svg" viewBox="-134.13332340806016 -20.668903950437215 268.26664681612027 46.618233297237" fill="none" stroke="black" stroke-width="0.6%" vector-effect="non-scaling-stroke">
    <path d="M -49.93014 -18.94106 A 50 4.33233 360 0 1 27.80883 -15.33658 A 50 4.33233 360 0 1 -72.19117 -15.33658 A 50 4.33233 360 0 1 -49.93014 -18.94106 Z" />
    <path d="M -72.19117 4.58821 A 50 4.33233 180 0 0 27.80883 4.58821" />
    <path d="M -16.64338 -14.61568 A 10 0.86647 180 0 0 -12.19117 -15.33658 A 10 0.86647 180 0 0 -32.19117 -15.33658 A 10 0.86647 180 0 0 -16.64338 -14.61568 Z" />
    <path d="M -133.13332 7.6478 L -133.13332 2.66661 L 0.01372 19.96813 L 133.13332 12.27698 L 27.80883 -1.4092" />
    <path d="M 0.01372 24.94933 L 0.01372 19.96813" />
    <path d="M -133.13332 7.6478 L 0.01372 24.94933 L 133.13332 17.25818 L 133.13332 12.27698" />
    <path d="M -72.19117 -0.8544 L -133.13332 2.66661" />
    <path d="M 34.67628 14.32046 A 15 1.2997 360 0 1 55.47793 14.68076 L 55.47793 16.12285" />
    <path d="M 55.47793 14.68076 A 15 1.2997 360 0 1 57.99797 15.40181 A 15 1.2997 360 0 1 27.99797 15.40181 A 15 1.2997 360 0 1 34.67628 14.32046" />
    <path d="M 38.92435 8.35498 A 20 1.73293 360 0 1 68.5389 9.87454 A 20 1.73293 360 0 1 28.5389 9.87454 A 20 1.73293 360 0 1 29.78036 9.2735 L 29.78036 10.47557" />
    <path d="M 29.78036 9.2735 A 75 6.49849 360 0 1 -97.19117 4.58821 A 75 6.49849 360 0 1 -72.19117 -0.25548" />
    <path d="M 27.80883 -0.25548 A 75 6.49849 360 0 1 52.80883 4.58821 A 75 6.49849 360 0 1 38.92435 8.35498 L 38.92435 10.34746" />
    <path d="M 55.47793 14.68076 A 15 1.2997 360 0 1 52.9579 13.95972 A 15 1.2997 360 0 1 59.63621 12.87837 A 15 1.2997 360 0 1 82.9579 13.95972 A 15 1.2997 360 0 1 55.47793 14.68076 Z" />
    <path d="M 52.63135 16.39805 A 15 1.2997 180 0 0 34.67628 16.31294 A 15 1.2997 180 0 0 33.36459 16.39805" />
    <path d="M 64.90356 10.87077 A 20 1.73293 180 0 0 38.92435 10.34746" />
    <path d="M 51.92227 5.58444 A 75 6.49849 180 0 0 27.80883 1.737" />
    <path d="M -72.19117 1.737 A 75 6.49849 180 0 0 -96.30461 5.58444" />
    <path d="M 59.63621 14.87085 A 15 1.2997 180 0 0 58.32452 14.95596" />
    <path d="M 77.59128 14.95596 A 15 1.2997 180 0 0 59.63621 14.87085" />
    <path d="M -72.19117 -15.33658 L -72.19117 4.58821" />
    <path d="M 27.80883 -15.33658 L 27.80883 4.58821" />
</svg>