<svg version="1.1" xmlns="http://www.w3.org/2000/svg" viewBox="-74.33620788289035 -16.22183702009636 143.3891012958835 33.221602239142584" fill="none" stroke="black" stroke-width="0.6%" vector-effect="non-scaling-stroke">
    <path d="M 52.01655 15.54114 L 56.23519 15.34878 A 5 0.3518 180 0 0 64.94829 15.11317" />
    <path d="M 42.4439 15.79027 A 5 0.3518 180 0 0 52.01655 15.64796" />
    <path d="M 26.84933 15.51558 L 42.4439 15.79027" />
    <path d="M 64.94829 14.64996 L 68.05289 13.77741 L 68.05289 -1.18542 L 64.94829 -1.54976" />
    <path d="M 18.81932 14.57322 L 26.84933 15.51558 L 26.84933 0.55275 L 42.4439 0.82745 L 42.4439 15.79027" />
    <path d="M 11.73339 14.4269 L 18.81932 14.57322 L 18.81932 -0.38961 L 26.84933 0.55275" />
    <path d="M 3.97852 14.10222 L 11.73339 14.4269 L 11.73339 -0.53592 L 18.81932 -0.38961" />
    <path d="M -2.38511 13.65204 L 3.97852 14.10222 L 3.97852 -0.86061 L 11.73339 -0.53592" />
    <path d="M -6.95766 13.10465 L -2.38511 13.65204 L -2.38511 -1.31078 L 3.97852 -0.86061" />
    <path d="M -8.5237 12.72152 L -6.95766 13.10465 L -6.95766 -1.85817 L -2.38511 -1.31078" />
    <path d="M -73.33621 7.98016 A 65 4.57344 180 0 0 -8.5237 12.55358" />
    <path d="M 56.23519 9.36365 L 56.23519 15.34878" />
    <path d="M 52.01655 9.55601 L 56.23519 9.36365 A 5 0.3518 360 0 1 54.94829 9.12804" />
    <path d="M 42.4439 0.82745 A 5 0.3518 360 0 1 42.01656 0.6859" />
    <path d="M 44.483 -2.61072 A 5 0.3518 360 0 1 52.01655 -2.30743 A 5 0.3518 360 0 1 42.01655 -2.30743 A 5 0.3518 360 0 1 44.483 -2.61072 Z" />
    <path d="M 57.41474 -3.14551 A 5 0.3518 360 0 1 64.94829 -2.84221 A 5 0.3518 360 0 1 54.94829 -2.84221 A 5 0.3518 360 0 1 57.41474 -3.14551 Z" />
    <path d="M 64.94829 -0.31287 L 68.05289 -1.18542" />
    <path d="M 61.56432 -3.17514 L 60.7177 -3.55794 L 57.15627 -4.14133 L 56.40121 -4.21021" />
    <path d="M -8.5237 -2.24131 L -6.95766 -1.85817" />
    <path d="M -8.5237 12.72152 L -8.5237 -2.24131" />
    <path d="M -6.75758 -2.31434 L -8.5237 -2.24131" />
    <path d="M -8.5237 6.56846 A 65 4.57344 360 0 1 -73.33621 1.99503 A 65 4.57344 360 0 1 -59.59501 -0.81722" />
    <path d="M -59.37315 -0.79118 L -59.59501 -0.81722" />
    <path d="M -59.37315 -9.76888 L -59.37315 -0.79118" />
    <path d="M -59.94536 -9.83603 L -59.37315 -9.76888 L -57.23871 -9.85715 L -57.23871 -0.87945 L -59.37315 -0.79118" />
    <path d="M -59.94536 -9.83603 L -59.94536 -0.78532" />
    <path d="M -18.08782 -2.52664 A 65 4.57344 360 0 1 -13.33621 -2.56485" />
    <path d="M 4.01479 -2.49508 A 65 4.57344 360 0 1 42.01655 -0.89712" />
    <path d="M -58.76972 -9.9509 A 5 0.3518 360 0 1 -59.94536 -9.83603" />
    <path d="M -65.86553 -13.39071 A 5 0.3518 360 0 1 -58.33198 -13.08741 A 5 0.3518 360 0 1 -68.33198 -13.08741 A 5 0.3518 360 0 1 -65.86553 -13.39071 Z" />
    <path d="M -18.08782 -11.49745 L -18.51026 -11.54703 A 5 0.3518 360 0 1 -20.4867 -11.52614 L -20.4867 -2.54845 A 5 0.3518 360 0 1 -25.22616 -2.89977" />
    <path d="M -18.08782 -2.51976 L -18.08782 -11.49745" />
    <path d="M -22.75971 -15.17333 A 5 0.3518 360 0 1 -15.22616 -14.87003 A 5 0.3518 360 0 1 -25.22616 -14.87003 A 5 0.3518 360 0 1 -22.75971 -15.17333 Z" />
    <path d="M -69.524 -10.96013 L -68.33198 -10.82024" />
    <path d="M -69.524 0.45182 L -69.524 -10.96013" />
    <path d="M -68.33198 -11.29515 L -69.524 -10.96013" />
    <path d="M -25.22616 -12.33517 L -28.32044 -12.6983 L -47.62424 -13.03833 L -58.33198 -12.58663" />
    <path d="M -40.61364 -1.86895 A 7.1 0.49956 360 0 1 -51.31128 -2.29963 A 7.1 0.49956 360 0 1 -37.11128 -2.29963 A 7.1 0.49956 360 0 1 -40.61364 -1.86895 Z" />
    <path d="M 54.94829 5.15908 A 5 0.3518 360 0 1 52.01655 5.26026" />
    <path d="M -18.08782 -2.51976 L -18.17642 -2.49486 L -18.17642 -11.47255 L -18.08782 -11.49745" />
    <path d="M -18.17642 -2.49486 L -20.40984 -2.40249 L -20.40984 -11.38019 L -18.17642 -11.47255" />
    <path d="M -20.40984 -2.53943 L -20.4867 -2.54845" />
    <path d="M -25.22616 -3.10465 L -29.51163 -3.60757 L -29.51163 -12.58526 L -47.33052 -12.89914 L -58.33198 -12.43504" />
    <path d="M -29.51163 -3.60757 L -47.33052 -3.92144 L -47.33052 -12.89914" />
    <path d="M -47.33052 -3.92144 L -57.23871 -3.50347" />
    <path d="M 52.01655 7.67759 A 7.1 0.49956 360 0 1 54.94829 7.74223" />
    <path d="M 54.94829 8.60843 A 7.1 0.49956 360 0 1 52.01655 8.67306" />
    <path d="M -47.73816 -1.09026 L -50.78275 -1.21173 L -50.80993 -1.45798 L -47.79252 -1.58277 L -44.74794 -1.46129 L -44.72076 -1.21504 L -47.73816 -1.09026 Z" />
    <path d="M -54.85496 -2.42822 L -57.23871 -2.32964" />
    <path d="M -54.88214 -2.67448 L -54.85496 -2.42822" />
    <path d="M -57.23871 -2.7685 L -54.88214 -2.67448" />
    <path d="M -37.47203 -1.49286 A 57.5 4.04574 360 0 1 -13.33621 -2.03538" />
    <path d="M 4.01479 -1.95627 A 57.5 4.04574 360 0 1 42.01655 0.04153" />
    <path d="M -8.5237 6.04075 A 57.5 4.04574 360 0 1 -65.83621 1.99503 A 57.5 4.04574 360 0 1 -37.47203 -1.49286" />
    <path d="M -30.49583 -1.80331 L -33.54042 -1.92478 L -33.5676 -2.17103 L -30.55019 -2.29581 L -27.5056 -2.17434 L -27.47843 -1.92809 L -30.49583 -1.80331 Z" />
    <path d="M -40.63003 -3.01649 L -43.67462 -3.13796 L -43.7018 -3.38421 L -40.68439 -3.509 L -37.63981 -3.38752 L -37.61263 -3.14127 L -40.63003 -3.01649 Z" />
    <path d="M -6.75758 -2.31434 L -5.98521 -2.12538" />
    <path d="M -1.83835 -1.52086 A 5 0.3518 360 0 1 -5.98521 -1.8675" />
    <path d="M -1.83835 -1.52086 L -0.80149 -1.39673 L 5.20861 -0.97156 L 12.53265 -0.66492 L 17.31478 -0.56617" />
    <path d="M 16.6167 -0.6481 L 17.31478 -0.56617" />
    <path d="M 16.6537 -0.65849 L 16.6167 -0.6481" />
    <path d="M 18.09703 -0.48571 L 16.6537 -0.65849" />
    <path d="M 19.39021 -0.53919 L 18.09703 -0.48571" />
    <path d="M 19.39021 -0.53919 L 25.47073 0.18872" />
    <path d="M 25.78943 0.17554 L 25.47073 0.18872" />
    <path d="M 25.78943 0.17554 L 28.04052 0.43972 L 42.01656 0.6859" />
    <path d="M 48.10597 -2.17701 A 1.75 0.12313 360 0 1 45.46923 -2.28316 A 1.75 0.12313 360 0 1 48.96923 -2.28316 A 1.75 0.12313 360 0 1 48.10597 -2.17701 Z" />
    <path d="M 64.94829 -0.84821 L 66.07458 -1.16475 L 64.94829 -1.29692" />
    <path d="M 59.51735 -3.19271 L 58.79561 -3.51904 L 56.13924 -3.95418 L 56.13924 -3.07011" />
    <path d="M 56.40121 -4.06656 A 5 0.3518 360 0 1 56.13924 -3.95418" />
    <path d="M 60.83504 -2.73606 A 1.75 0.12313 360 0 1 58.19829 -2.84221 A 1.75 0.12313 360 0 1 61.69829 -2.84221 A 1.75 0.12313 360 0 1 60.83504 -2.73606 Z" />
    <path d="M -58.76972 -9.9509 L -58.10019 -9.87232 L -57.23871 -9.85715" />
    <path d="M -25.22616 -12.08234 L -29.51163 -12.58526" />
    <path d="M -62.44524 -12.98126 A 1.75 0.12313 360 0 1 -65.08198 -13.08741 A 1.75 0.12313 360 0 1 -61.58198 -13.08741 A 1.75 0.12313 360 0 1 -62.44524 -12.98126 Z" />
    <path d="M -20.40984 -11.38019 L -20.06613 -11.47679 L -20.4867 -11.52614" />
    <path d="M -19.33941 -14.76388 A 1.75 0.12313 360 0 1 -21.97616 -14.87003 A 1.75 0.12313 360 0 1 -18.47616 -14.87003 A 1.75 0.12313 360 0 1 -19.33941 -14.76388 Z" />
    <path d="M 58.79561 -3.18454 L 58.79561 -3.51904" />
    <path d="M 48.86766 -7.36242 A 5 0.3518 360 0 1 56.40121 -7.05913 L 56.40121 -4.06656" />
    <path d="M 56.40121 -7.05913 A 5 0.3518 360 0 1 46.40121 -7.05913 L 46.40121 -2.65656" />
    <path d="M 46.40121 -7.05913 A 5 0.3518 360 0 1 48.86766 -7.36242" />
    <path d="M 16.6167 -0.58059 L 16.6167 -0.6481" />
    <path d="M -3.51876 -5.16336 A 5 0.3518 360 0 1 4.01479 -4.86007 L 4.01479 -1.05602" />
    <path d="M 4.01479 -4.86007 A 5 0.3518 360 0 1 -5.98521 -4.86007 L -5.98521 -1.8675" />
    <path d="M -5.98521 -4.86007 A 5 0.3518 360 0 1 -3.51876 -5.16336" />
    <path d="M -44.74794 -1.21392 L -44.74794 -1.46129" />
    <path d="M -47.79252 -1.09243 L -47.79252 -1.58277" />
    <path d="M -54.88214 -2.4271 L -54.88214 -2.67448" />
    <path d="M -37.47203 2.49723 A 57.5 4.04574 180 0 0 -58.3589 3.99008" />
    <path d="M -28.33621 2.19201 A 57.5 4.04574 180 0 0 -37.47203 2.49723" />
    <path d="M -27.5056 -1.92696 L -27.5056 -2.17434" />
    <path d="M -30.55019 -1.80547 L -30.55019 -2.29581" />
    <path d="M -37.63981 -3.14015 L -37.63981 -3.38752" />
    <path d="M -40.68439 -3.01866 L -40.68439 -3.509" />
    <path d="M -0.09847 -4.75391 A 1.75 0.12313 360 0 1 -2.73521 -4.86007 A 1.75 0.12313 360 0 1 0.76479 -4.86007 A 1.75 0.12313 360 0 1 -0.09847 -4.75391 Z" />
    <path d="M 52.28795 -6.95297 A 1.75 0.12313 360 0 1 49.65121 -7.05913 A 1.75 0.12313 360 0 1 53.15121 -7.05913 A 1.75 0.12313 360 0 1 52.28795 -6.95297 Z" />
    <path d="M -8.5237 3.40218 A 20 1.40721 360 0 1 -28.33621 1.99503 L -28.33621 5.78815" />
    <path d="M -28.33621 1.99503 A 20 1.40721 360 0 1 -13.33621 0.63251" />
    <path d="M -8.5237 2.34659 A 5 0.3518 360 0 1 -13.33621 1.99503" />
    <path d="M -10.86976 -4.29339 A 5 0.3518 360 0 1 -5.98521 -4.30058" />
    <path d="M -5.98521 -3.67961 A 5 0.3518 360 0 1 -13.33621 -3.9901 L -13.33621 1.99503" />
    <path d="M -13.33621 -3.9901 A 5 0.3518 360 0 1 -10.86976 -4.29339" />
    <path d="M -6.23336 -3.73836 A 4.15 0.292 360 0 1 -12.48621 -3.9901 A 4.15 0.292 360 0 1 -5.98521 -4.23072" />
    <path d="M -5.98521 -3.74947 A 4.15 0.292 360 0 1 -6.23336 -3.73836" />
    <path d="M 42.01655 -2.30743 L 42.01655 0.6859" />
    <path d="M 52.01655 -2.30743 L 52.01655 15.64796" />
    <path d="M 54.94829 -2.84221 L 54.94829 9.12804" />
    <path d="M 64.94829 -2.84221 L 64.94829 15.11317" />
    <path d="M -73.33621 1.99503 L -73.33621 7.98016" />
    <path d="M -68.33198 -13.08741 L -68.33198 0.23531" />
    <path d="M -58.33198 -13.08741 L -58.33198 -9.89952" />
    <path d="M -25.22616 -14.87003 L -25.22616 -2.89977" />
    <path d="M -15.22616 -14.87003 L -15.22616 -2.55264" />
</svg>