<svg version="1.1" xmlns="http://www.w3.org/2000/svg" viewBox="-134.13332340806014 -16.136741230717014 268.2666468161202 37.13300523258866" fill="none" stroke="black" stroke-width="0.6%" vector-effect="non-scaling-stroke">
    <path d="M -44.93713 -14.65816 A 41 2.84865 360 0 1 18.80883 -12.28809 A 41 2.84865 360 0 1 -63.19117 -12.28809 A 41 2.84865 360 0 1 -44.93713 -14.65816 Z" />
    <path d="M -63.19117 2.67566 A 41 2.84865 180 0 0 18.80883 2.67566" />
    <path d="M -16.0886 -11.65222 A 11 0.76427 180 0 0 -11.19117 -12.28809 A 11 0.76427 180 0 0 -33.19117 -12.28809 A 11 0.76427 180 0 0 -16.0886 -11.65222 Z" />
    <path d="M -133.13332 6.1227 L -133.13332 1.13479 L 0.01372 15.00835 L 133.13332 8.84105 L 18.80883 -3.07125" />
    <path d="M 0.01372 19.99626 L 0.01372 15.00835" />
    <path d="M -133.13332 6.1227 L 0.01372 19.99626 L 133.13332 13.82897 L 133.13332 8.84105" />
    <path d="M -63.19117 -2.10556 L -133.13332 1.13479" />
    <path d="M 34.67628 10.47965 A 15 1.04219 360 0 1 55.47793 10.76857 L 55.47793 11.92494" />
    <path d="M 55.47793 10.76857 A 15 1.04219 360 0 1 57.99797 11.34675 A 15 1.04219 360 0 1 27.99797 11.34675 A 15 1.04219 360 0 1 34.67628 10.47965" />
    <path d="M 38.92435 5.69612 A 20 1.38958 360 0 1 68.5389 6.9146 A 20 1.38958 360 0 1 28.5389 6.9146 A 20 1.38958 360 0 1 29.78036 6.43265 L 29.78036 7.39655" />
    <path d="M 29.78036 6.43265 A 75 5.21094 360 0 1 -97.19117 2.67566 A 75 5.21094 360 0 1 -63.19117 -1.68772" />
    <path d="M 18.80883 -1.68772 A 75 5.21094 360 0 1 52.80883 2.67566 A 75 5.21094 360 0 1 38.92435 5.69612 L 38.92435 7.69128" />
    <path d="M 55.47793 10.76857 A 15 1.04219 360 0 1 52.9579 10.19038 A 15 1.04219 360 0 1 59.63621 9.32329 A 15 1.04219 360 0 1 82.9579 10.19038 A 15 1.04219 360 0 1 55.47793 10.76857 Z" />
    <path d="M 47.33931 12.34433 A 15 1.04219 180 0 0 38.65663 12.34433" />
    <path d="M 62.46181 7.91219 A 20 1.38958 180 0 0 38.92435 7.69128" />
    <path d="M 51.42165 3.67324 A 75 5.21094 180 0 0 18.80883 0.30744" />
    <path d="M -63.19117 0.30744 A 75 5.21094 180 0 0 -95.80399 3.67324" />
    <path d="M 72.29924 11.18797 A 15 1.04219 180 0 0 63.61655 11.18797" />
    <path d="M -63.19117 -12.28809 L -63.19117 2.67566" />
    <path d="M 18.80883 -12.28809 L 18.80883 2.67566" />
</svg>