<svg version="1.1" xmlns="http://www.w3.org/2000/svg" viewBox="-70.98942165109594 -4.606083262908847 139.05319331212036 9.212166525817693" fill="none" stroke="black" stroke-width="0.6%" vector-effect="non-scaling-stroke">
    <path d="M -8.19639 -1.1906 A 62.5 1.02164 0 0 1 -69.98942 -2.21218 A 62.5 1.02164 0 0 1 -55.58473 -2.86461" />
    <path d="M -8.19639 -1.1906 L -8.19639 2.80886 L -8.16606 2.83348 L -5.81362 2.97164 L -5.81362 -1.02783 L -1.43315 -0.90357 L 4.70012 -0.80102 L 12.20081 -0.72663 L 19.089 -0.69254 L 28.08397 -0.46133 L 43.70147 -0.40451 A 3.5 0.05721 360 0 1 42.62742 -0.44575 A 3.5 0.05721 360 0 1 49.62742 -0.44575 A 3.5 0.05721 360 0 1 49.21896 -0.41893 L 58.24781 -0.51279 A 3.5 0.05721 0 0 1 55.6239 -0.56818 A 3.5 0.05721 0 0 1 62.6239 -0.56818 A 3.5 0.05721 0 0 1 62.56421 -0.55766 L 62.90717 -0.56122 L 67.06377 -0.86652 L 59.32979 -1.06532 L 60.53136 -1.118 L 61.45553 -1.26062 L 60.18096 -1.4025 L 56.78775 -1.53476 L 51.48909 -1.64906 L 46.89378 -1.70869" />
    <path d="M -69.98942 1.78729 A 62.5 1.02164 180 0 0 -8.19639 2.80886" />
    <path d="M -56.79613 -2.86902 L -55.58473 -2.86461" />
    <path d="M -67.06377 -3.13294 L -56.79613 -2.86902" />
    <path d="M -62.90717 -3.43825 L -67.06377 -3.13294" />
    <path d="M -46.76121 -3.60608 L -62.90717 -3.43825" />
    <path d="M -28.08397 -3.53814 L -46.76121 -3.60608" />
    <path d="M -17.81633 -3.27421 L -28.08397 -3.53814" />
    <path d="M -18.58738 -3.21758 L -17.81633 -3.27421" />
    <path d="M -18.58738 -3.21758 A 62.5 1.02164 0 0 1 55.01058 -2.21218 A 62.5 1.02164 0 0 1 46.89378 -1.70869" />
    <path d="M -8.16606 -1.16598 L -5.81362 -1.02783" />
    <path d="M -8.19639 -1.1906 L -8.16606 -1.16598" />
    <path d="M -9.4866 -2.26883 A 4 0.06538 0 0 1 -3.48942 -2.21218 A 4 0.06538 0 0 1 -11.48942 -2.21218 A 4 0.06538 0 0 1 -9.4866 -2.26883 Z" />
    <path d="M -38.7952 -3.10019 A 7.1 0.11606 360 0 1 -49.44019 -3.20075 A 7.1 0.11606 360 1 1 -35.24019 -3.20075 A 7.1 0.11606 360 0 1 -38.7952 -3.10019 Z" />
    <path d="M -27.66818 -3.09558 A 3.5 0.05721 360 0 1 -32.91572 -3.14515 A 3.5 0.05721 360 1 1 -25.91572 -3.14515 A 3.5 0.05721 360 0 1 -27.66818 -3.09558 Z" />
    <path d="M -37.65408 -3.37884 A 3.5 0.05721 360 0 1 -42.90161 -3.42841 A 3.5 0.05721 360 1 1 -35.90161 -3.42841 A 3.5 0.05721 360 0 1 -37.65408 -3.37884 Z" />
    <path d="M -54.11629 -3.22377 A 3.5 0.05721 360 0 1 -59.36382 -3.27334 A 3.5 0.05721 360 1 1 -52.36382 -3.27334 A 3.5 0.05721 360 0 1 -54.11629 -3.22377 Z" />
    <path d="M -44.1304 -2.94051 A 3.5 0.05721 360 0 1 -49.37793 -2.99008 A 3.5 0.05721 360 1 1 -42.37793 -2.99008 A 3.5 0.05721 360 0 1 -44.1304 -2.94051 Z" />
    <path d="M 45.84153 -0.6994 A 7.1 0.11606 360 0 1 45.39943 -0.73972 A 7.1 0.11606 360 0 1 59.59943 -0.73972 A 7.1 0.11606 360 0 1 47.02729 -0.66577 L 47.02729 -0.58514" />
    <path d="M 47.02729 -0.66577 A 7.1 0.11606 360 0 1 47.46938 -0.62545 A 7.1 0.11606 360 0 1 33.26938 -0.62545 A 7.1 0.11606 360 0 1 45.84153 -0.6994 L 45.84153 -0.55151" />
    <path d="M 47.12616 -0.97398 A 3.5 0.05721 0 0 1 52.3737 -0.92441 A 3.5 0.05721 0 0 1 45.3737 -0.92441 A 3.5 0.05721 0 0 1 47.12616 -0.97398 Z" />
    <path d="M 30.66395 -0.81891 A 3.5 0.05721 0 0 1 35.91148 -0.76934 A 3.5 0.05721 0 0 1 28.91148 -0.76934 A 3.5 0.05721 0 0 1 30.66395 -0.81891 Z" />
    <path d="M -8.16606 2.83348 L -8.16606 -1.16598" />
    <path d="M 62.90717 3.43825 L 67.06377 3.13294 L 67.06377 -0.86652" />
    <path d="M 46.76121 3.60608 L 62.90717 3.43825 L 62.90717 -0.56122" />
    <path d="M 28.08397 3.53814 L 46.76121 3.60608 L 46.76121 0.60648 L 43.70147 0.59535" />
    <path d="M 19.089 3.30693 L 28.08397 3.53814 L 28.08397 -0.46133" />
    <path d="M 12.20081 3.27283 L 19.089 3.30693 L 19.089 -0.69254" />
    <path d="M 4.70012 3.19844 L 12.20081 3.27283 L 12.20081 -0.72663" />
    <path d="M -1.43315 3.0959 L 4.70012 3.19844 L 4.70012 -0.80102" />
    <path d="M -5.81362 2.97164 L -1.43315 3.0959 L -1.43315 -0.90357" />
    <path d="M -56.79613 -2.83999 L -56.79613 -2.86902" />
    <path d="M -67.06377 -2.52109 L -67.06377 -3.13294" />
    <path d="M -17.81633 -3.21977 L -17.81633 -3.27421" />
    <path d="M 61.45553 -1.01068 L 61.45553 -1.26062" />
    <path d="M 60.53136 -1.03444 L 60.53136 -1.118" />
    <path d="M 62.56421 -0.55766 L 62.56421 0.44221 L 58.24781 0.48708" />
    <path d="M 58.24781 -0.51279 L 58.24781 0.48708" />
    <path d="M 49.21896 -0.41893 L 49.21896 0.58093 L 46.76121 0.60648" />
    <path d="M 43.70147 -0.40451 L 43.70147 0.59535" />
    <path d="M 43.70147 0.51287 A 3.5 0.05721 360 0 1 49.21896 0.52729" />
    <path d="M 58.24781 0.3763 A 3.5 0.05721 360 0 1 62.56421 0.42117" />
    <path d="M 45.25366 0.52933 A 1.75 0.02861 0 0 1 47.87742 0.55411 A 1.75 0.02861 0 0 1 44.37742 0.55411 A 1.75 0.02861 0 0 1 45.25366 0.52933 Z" />
    <path d="M 58.25014 0.4069 A 1.75 0.02861 0 0 1 60.8739 0.43169 A 1.75 0.02861 0 0 1 58.24781 0.45645" />
    <path d="M 58.24781 0.40693 A 1.75 0.02861 0 0 1 58.25014 0.4069" />
    <path d="M -69.98942 -2.21218 L -69.98942 1.78729" />
    <path d="M 55.01058 -2.21218 L 55.01058 -1.57309" />
</svg>