<svg version="1.1" xmlns="http://www.w3.org/2000/svg" viewBox="-80.49973184031855 -13.45389073406195 143.3088004281625 27.332799818535108" fill="none" stroke="black" stroke-width="0.6%" vector-effect="non-scaling-stroke">
    <path d="M 58.97028 -1.93146 L 59.36317 -1.89258" />
    <path d="M 58.97028 -1.93146 L 58.95335 -1.93295 L 58.93403 -1.9343 L 58.91257 -1.9355 L 58.88922 -1.93653 L 58.86428 -1.93738 L 58.83807 -1.93804 L 58.81092 -1.9385 L 58.78316 -1.93876 L 58.75515 -1.9388 L 58.72724 -1.93864 L 58.69978 -1.93827 L 58.6731 -1.9377 L 58.64756 -1.93693 L 58.62347 -1.93598 L 58.48558 -1.9298" />
    <path d="M 58.14402 -1.88656 A 2.23731 0.14896 180 0 0 58.48558 -1.9298" />
    <path d="M 58.48971 -1.85235 L 58.14402 -1.88656" />
    <path d="M 59.16736 -1.86667 A 1.3747 0.09153 180 0 0 58.48971 -1.85235" />
    <path d="M 59.16736 -1.86667 C 59.26 -1.87 59.34 -1.87 59.37918 -1.8758 C 59.42 -1.88 59.41 -1.89 59.36317 -1.89258 C 59.26 -1.87 59.34 -1.87 59.37918 -1.8758 C 59.42 -1.88 59.41 -1.89 59.36317 -1.89258" />
    <path d="M 59.17568 -1.68378 C 59.19 -1.42 59.18 -1.64 59.16736 -1.86667" />
    <path d="M 60.00488 0.81952 L 60.02354 0.8147 L 60.04084 0.80986 L 60.05676 0.805 L 60.0713 0.80012 L 60.08446 0.79523 L 60.09622 0.79031 L 60.10659 0.78539 L 60.11556 0.78045 L 60.12312 0.7755 L 60.12929 0.77055 L 60.13404 0.76558 L 60.13738 0.76061 L 60.13932 0.75564 L 60.13984 0.75067 L 60.139 0.74581 L 60.1368 0.74096 L 60.13326 0.73611 L 60.12838 0.73126 L 60.12216 0.72642 L 60.1146 0.72159 L 60.10571 0.71677 L 60.09548 0.71196 L 60.08392 0.70717 L 60.07104 0.70239 L 60.05683 0.69763 L 60.04131 0.69288 L 60.02448 0.68815 L 60.00634 0.68345" />
    <path d="M 60.00488 0.81952 C 59.96 -0.01 59.91 -0.84 59.86714 -1.66539 C 59.89 -1.67 59.87 -1.68 59.81052 -1.68181 C 59.75 -1.69 59.65 -1.69 59.56747 -1.6865 C 59.89 -1.67 59.87 -1.68 59.81052 -1.68181 C 59.75 -1.69 59.65 -1.69 59.56747 -1.6865" />
    <path d="M 58.30057 -1.52576 L 58.4561 -1.5331 L 58.60614 -1.54092 L 58.75034 -1.54922 L 58.88838 -1.55796 L 59.01993 -1.56714 L 59.14469 -1.57673 L 59.26237 -1.58671 L 59.37269 -1.59705 L 59.4754 -1.60774 L 59.57027 -1.61874 L 59.65706 -1.63003 L 59.73559 -1.64159 L 59.80567 -1.65339 L 59.86714 -1.66539" />
    <path d="M 58.91792 4.44331 L 58.89073 4.44488 L 58.86333 4.44644 L 58.83571 4.44797 L 58.80789 4.4495 L 58.77985 4.451 L 58.75162 4.45249 L 58.72318 4.45396 L 58.69454 4.45541 L 58.6657 4.45685 L 58.63667 4.45827 L 58.60744 4.45967 L 58.57803 4.46105 L 58.54842 4.46242 L 58.51864 4.46376 L 59.42329 4.42324 A 5.40004 0.35953 180 0 0 61.80906 4.12557 A 5.40004 0.35953 180 0 0 61.80905 4.1241" />
    <path d="M 58.91327 1.44223 C 58.92 2.44 58.92 3.44 58.91792 4.44331" />
    <path d="M 60.15802 1.24979 L 60.15182 1.26518 L 60.13215 1.28051 L 60.09905 1.29574 L 60.05266 1.31081 L 59.99311 1.32568 L 59.92063 1.3403 L 59.83545 1.3546 L 59.73786 1.36855 L 59.6282 1.3821 L 59.50684 1.3952 L 59.3742 1.4078 L 59.23072 1.41987 L 59.0769 1.43136 L 58.91327 1.44223" />
    <path d="M 61.60146 1.06245 L 60.74818 0.77842" />
    <path d="M 60.00122 0.58849 A 25.14279 1.67399 360 0 1 60.74818 0.77842" />
    <path d="M 45.76006 -4.58466 L 44.03945 -3.92571" />
    <path d="M 45.82605 -4.66056 L 45.82711 -4.65927 L 45.82809 -4.65797 L 45.829 -4.65668 L 45.82983 -4.65539 L 45.83059 -4.6541 L 45.83127 -4.65281 L 45.83188 -4.65152 L 45.83241 -4.65023 L 45.83287 -4.64894 L 45.83325 -4.64764 L 45.83356 -4.64635 L 45.83379 -4.64506 L 45.83394 -4.64377 L 45.83402 -4.64248 L 45.83377 -4.63833 L 45.83275 -4.63418 L 45.83094 -4.63003 L 45.82837 -4.62588 L 45.82501 -4.62174 L 45.82088 -4.6176 L 45.81598 -4.61346 L 45.8103 -4.60933 L 45.80385 -4.6052 L 45.79663 -4.60108 L 45.78864 -4.59697 L 45.77988 -4.59286 L 45.77036 -4.58875 L 45.76006 -4.58466" />
    <path d="M 45.82605 -4.66056 L 45.50021 -5.04407 A 62.5 4.16121 360 0 1 43.39595 -3.97921" />
    <path d="M 13.14303 -1.40462 A 62.5 4.16121 360 0 1 -40.47137 -1.19327 L -35.2586 -1.02866" />
    <path d="M -34.17787 -1.00412 L -34.2576 -1.00533 L -34.33702 -1.00661 L -34.41612 -1.00799 L -34.49487 -1.00944 L -34.57325 -1.01099 L -34.65123 -1.01262 L -34.72881 -1.01433 L -34.80595 -1.01613 L -34.88264 -1.01801 L -34.95886 -1.01998 L -35.03459 -1.02202 L -35.1098 -1.02415 L -35.18447 -1.02636 L -35.2586 -1.02866" />
    <path d="M -22.95934 -0.84159 L -34.17787 -1.00412" />
    <path d="M -22.32551 -0.83526 A 4.92144 0.32767 360 0 1 -22.95934 -0.84159 L -22.97604 2.15686 L -34.31636 1.99256 L -34.39609 1.99136 L -34.47551 1.99008 L -34.55461 1.9887 L -34.63336 1.98724 L -34.71174 1.9857 L -34.78972 1.98407 L -34.8673 1.98236 L -34.94445 1.98056 L -35.02114 1.97868 L -35.09735 1.97671 L -35.17308 1.97467 L -35.24829 1.97254 L -35.32297 1.97033 L -35.39709 1.96803 L -35.2586 -1.02866" />
    <path d="M -17.32421 -0.82042 A 63.5262 4.22953 360 0 1 -22.32551 -0.83526 L -22.3321 2.1633 A 5 0.3329 360 0 1 -22.97604 2.15686" />
    <path d="M -17.32421 -0.82042 A 5.4738 0.36444 360 0 1 -12.00179 -0.53294 A 8.4738 0.56418 360 0 1 -11.81074 -0.41282 A 8.4738 0.56418 360 0 1 -11.84674 -0.36185 C -11.9 -0.32 -11.55 -0.28 -10.99644 -0.26246 C -11.9 -0.32 -11.55 -0.28 -10.99644 -0.26246 L 2.92441 0.17716 C 3.39 0.19 3.94 0.19 4.43067 0.18278 A 4.54644 0.3027 360 0 1 9.89954 0.32421 C 10.19 0.36 10.72 0.38 11.3185 0.39173 A 15.10476 1.00566 360 0 1 22.52273 0.96621 L 22.42739 3.96244" />
    <path d="M 23.8585 1.10943 A 9.89524 0.65882 360 0 1 22.52273 0.96621" />
    <path d="M 23.8585 1.10943 A 37.96718 2.52783 360 0 1 25.9334 1.29572 L 27.78463 1.47892 L 27.69771 4.47616 L 25.84648 4.29295 A 37.86242 2.52085 180 0 0 23.7773 4.10718 A 10 0.66579 360 0 1 22.42739 3.96244" />
    <path d="M 34.78723 1.94125 A 25.14279 1.67399 360 0 1 27.78463 1.47892" />
    <path d="M 34.78723 1.94125 L 38.41714 2.10091 L 38.3594 5.10007 A 5.40004 0.35953 180 0 0 44.35015 5.09839 L 45.2548 5.05787 L 45.22483 5.0592 L 45.19468 5.06051 L 45.16435 5.0618 L 45.13384 5.06308 L 45.10317 5.06433 L 45.07232 5.06557 L 45.0413 5.06679 L 45.01012 5.06799 L 44.97878 5.06917 L 44.94728 5.07033 L 44.91562 5.07148 L 44.88381 5.0726 L 44.85184 5.0737 L 44.81973 5.07479 A 5.40004 0.35953 360 0 1 44.35015 5.09839" />
    <path d="M 44.71391 2.07824 A 5.29528 0.35256 360 0 1 38.41714 2.10091" />
    <path d="M 44.71391 2.07824 L 44.34437 2.08804 L 43.96194 2.09532 L 43.57049 2.1 L 43.17396 2.10205 L 42.77637 2.10143 L 42.38173 2.09816 L 41.99401 2.09227 L 41.61713 2.08381 L 41.2549 2.07288 L 40.91098 2.05958 L 40.58883 2.04405 L 40.2917 2.02645 L 40.0226 2.00694 L 39.78425 1.98574 L 38.22683 1.83161 A 9.54086 0.63522 360 0 1 27.82806 1.15443" />
    <path d="M 28.01822 0.97482 A 5.23682 0.34866 360 0 1 23.50934 0.74582 C 23.8 0.39 24.09 0.04 24.39429 -0.30241 C 24.41 -0.97 24.43 -1.64 24.45401 -2.30188 A 4.09524 0.27266 180 0 0 31.02821 -2.15511" />
    <path d="M 23.50934 0.74582 A 17.28682 1.15094 360 0 1 13.87705 -0.20744 C 14.23 -0.55 14.57 -0.9 14.92081 -1.23995" />
    <path d="M 13.87705 -0.20744 A 5.23682 0.34866 360 0 1 12.15905 -0.49142" />
    <path d="M 61.60146 1.06245 A 5.29528 0.35256 360 0 1 61.70429 1.13077 A 5.29528 0.35256 360 0 1 58.91327 1.44223" />
    <path d="M 54.20551 -1.93675 L 54.05126 -1.93605 L 52.53864 -1.73019 L 54.45995 -1.54005 L 57.8939 -1.55576 L 58.85904 -1.68711 A 1.3747 0.09153 180 0 0 59.56747 -1.6865" />
    <path d="M 54.05126 -1.93605 L 54.05727 -1.5799" />
    <path d="M 60.01291 0.81513 C 59.76 0.8 59.87 0.8 59.93196 0.8029 C 60 0.81 60.03 0.81 60.00488 0.81952" />
    <path d="M 50.49317 -1.83728 A 1.4627 0.09739 180 0 0 52.30905 -1.93156 A 1.4627 0.09739 180 0 0 52.30297 -1.94066" />
    <path d="M 50.49317 -1.83728 C 50.36 -1.84 50.21 -1.83 50.18557 -1.82352" />
    <path d="M 50.17258 -1.81849 A 1.4627 0.09739 180 0 0 50.18557 -1.82352" />
    <path d="M 50.17258 -1.81849 C 50.15 -1.81 50.22 -1.8 50.3342 -1.79956 C 50.15 -1.81 50.22 -1.8 50.3342 -1.79956 C 50.3 -0.97 50.27 -0.13 50.24386 0.69745 A 2.51309 0.16732 180 0 0 49.46927 0.68938 L 49.46928 1.18914 A 2.5 0.16645 360 0 1 50.32846 1.1992 C 50.35 0.2 50.36 -0.8 50.3795 -1.79846 A 2.57856 0.17168 180 0 0 50.3342 -1.79956" />
    <path d="M 52.53575 -1.58507 L 50.3795 -1.79846" />
    <path d="M 52.53575 -1.58507 L 52.80374 -1.56151 L 53.10963 -1.54011 L 53.44957 -1.52111 L 53.81928 -1.50478 L 54.21413 -1.4913 L 54.62915 -1.48085 L 55.05913 -1.47356 L 55.49867 -1.46952 L 55.94224 -1.46879 L 56.38426 -1.47137 L 56.81919 -1.47722 L 57.24157 -1.48629 L 57.64608 -1.49844 L 58.02763 -1.51354 L 58.30057 -1.52576" />
    <path d="M 54.12508 -1.97215 A 2.23731 0.14896 180 0 0 54.20551 -1.93675" />
    <path d="M 54.12508 -1.97215 L 53.84336 -2.00003 L 53.82643 -2.00151 L 53.80712 -2.00287 L 53.78565 -2.00407 L 53.76231 -2.0051 L 53.73738 -2.00595 L 53.71118 -2.00661 L 53.68403 -2.00707 L 53.65628 -2.00732 L 53.62827 -2.00737 L 53.60036 -2.00721 L 53.5729 -2.00684 L 53.54623 -2.00626 L 53.52069 -2.0055 L 53.49659 -2.00454 L 52.41232 -1.95598 C 52.34 -1.95 52.29 -1.95 52.30297 -1.94066 C 52.34 -1.95 52.29 -1.95 52.30297 -1.94066" />
    <path d="M 57.98497 4.48767 L 58.51864 4.46376 L 58.30057 -1.52576" />
    <path d="M 59.42329 4.42324 A 5.40004 0.35953 360 0 1 58.91792 4.44331" />
    <path d="M -42.83693 1.483 L -42.66937 1.39249 L -42.50159 1.28649 L -42.33358 1.16501 L -42.16536 1.02803 L -41.99691 0.87557 L -41.82826 0.70762 L -41.65938 0.52419 L -41.4903 0.32527 L -41.321 0.11087 L -41.15149 -0.11901 L -40.98177 -0.36436 L -40.81184 -0.6252 L -40.64171 -0.9015 L -40.47137 -1.19327" />
    <path d="M -79.49973 -2.306 A 62.5 4.16121 180 0 0 -42.83693 1.483" />
    <path d="M -51.88672 -11.74529 A 62.5 4.16121 360 0 1 45.50027 -8.29268 A 62.5 4.16121 360 0 1 -79.49973 -8.29268 A 62.5 4.16121 360 0 1 -51.88672 -11.74529 Z" />
    <path d="M -43.78449 1.70316 L -43.71705 1.70401 L -43.64957 1.70232 L -43.58206 1.69807 L -43.51451 1.69127 L -43.44692 1.68192 L -43.37929 1.67002 L -43.31163 1.65557 L -43.24393 1.63857 L -43.17619 1.61902 L -43.10841 1.59691 L -43.0406 1.57226 L -42.97274 1.54506 L -42.90486 1.5153 L -42.83693 1.483" />
    <path d="M -43.78449 1.70316 L -35.39709 1.96803" />
    <path d="M -17.32461 2.17815 A 63.60476 4.23476 360 0 1 -22.3321 2.1633" />
    <path d="M -17.32461 2.17815 A 5.39524 0.35921 360 0 1 -12.07858 2.46151 A 8.39524 0.55895 360 0 1 -11.9357 2.52084" />
    <path d="M -11.08263 2.73588 C -11.64 2.72 -11.99 2.68 -11.93171 2.63566 C -11.64 2.72 -11.99 2.68 -11.93171 2.63566" />
    <path d="M -11.08263 2.73588 L -11.04128 2.73719 L -10.77095 10.46358" />
    <path d="M 2.68151 3.17055 L -11.04128 2.73719" />
    <path d="M 2.68151 3.17055 C 2.68 3.17 2.68 3.17 2.6857 3.17069 C 3.18 3.21 3.76 3.23 4.25605 3.24092" />
    <path d="M 2.6857 3.17069 L 2.88468 3.17697" />
    <path d="M 4.4111 3.18212 C 3.91 3.19 3.36 3.19 2.88468 3.17697" />
    <path d="M 4.43067 0.18278 C 4.42 1.18 4.42 2.18 4.4111 3.18212 A 4.46788 0.29747 360 0 1 9.85385 3.32294 C 10.14 3.36 10.69 3.38 11.2853 3.39177 A 15 0.99869 360 0 1 11.45765 3.39379 A 15 0.99869 360 0 1 22.42739 3.96244" />
    <path d="M 9.85385 3.32294 C 9.87 2.32 9.88 1.32 9.89954 0.32421" />
    <path d="M 27.69771 4.47616 A 25.24755 1.68096 180 0 0 34.72948 4.94041 L 38.3594 5.10007" />
    <path d="M 44.81973 5.07479 C 44.78 4.08 44.75 3.08 44.71391 2.07824" />
    <path d="M 39.80558 -1.01487 L 40.07357 -0.99131 L 40.37946 -0.9699 L 40.71939 -0.95091 L 41.08911 -0.93457 L 41.48396 -0.92109 L 41.89898 -0.91065 L 42.32896 -0.90336 L 42.76849 -0.89932 L 43.21206 -0.89859 L 43.65409 -0.90116 L 44.08902 -0.90702 L 44.51139 -0.91608 L 44.9159 -0.92824 L 45.29746 -0.94333 L 45.2548 5.05787 L 45.78846 5.03397 L 45.5704 -0.95556 L 45.29746 -0.94333" />
    <path d="M 39.80558 -1.01487 L 37.41321 -1.25163 L 37.50248 -1.25563 A 2.57856 0.17168 180 0 0 36.70832 -1.26855 L 36.70516 0.23124 C 36.97 0.23 37.23 0.29 37.45944 0.39394" />
    <path d="M 37.41321 -1.25163 L 37.37619 0.44999 C 37.66 0.9 37.95 1.37 38.22683 1.83161" />
    <path d="M 36.70516 0.23124 A 7.96073 0.53002 360 0 1 29.38458 -0.29799" />
    <path d="M 24.39429 -0.30241 A 4.1651 0.27731 180 0 0 29.15276 -0.09677" />
    <path d="M 24.39429 -0.30241 A 16.2151 1.07959 360 0 1 14.92081 -1.23995" />
    <path d="M 13.21735 -1.46429 A 4.1651 0.27731 180 0 0 14.92081 -1.23995" />
    <path d="M 46.98752 -2.86886 A 4.09524 0.27266 180 0 0 48.95676 -3.10253 L 48.96513 -2.86322" />
    <path d="M 48.95676 -3.10253 A 4.09524 0.27266 180 0 0 47.25472 -3.32315 A 16.14524 1.07494 180 0 0 46.97133 -3.48571" />
    <path d="M 46.70729 -3.86936 A 1.5 0.09987 360 0 1 46.96272 -3.81379 L 46.98891 -2.81601" />
    <path d="M 46.96272 -3.81379 A 1.5 0.09987 360 1 1 43.96273 -3.81379 L 43.93382 -2.71233" />
    <path d="M 43.96273 -3.81379 A 1.5 0.09987 360 0 1 46.70729 -3.86936" />
    <path d="M 44.42109 -2.74157 A 1.52619 0.10161 180 0 0 46.98891 -2.81601" />
    <path d="M 57.33193 -2.39518 A 7.92144 0.5274 180 0 0 46.98833 -2.83793" />
    <path d="M 57.33204 -2.39179 C 57.35 -1.89 57.36 -1.39 57.38123 -0.89179" />
    <path d="M 56.96026 -2.37886 C 57.04 -2.38 57.15 -2.38 57.22114 -2.37943 C 57.3 -2.38 57.34 -2.39 57.33193 -2.39518 C 57.04 -2.38 57.15 -2.38 57.22114 -2.37943 C 57.3 -2.38 57.34 -2.39 57.33193 -2.39518" />
    <path d="M 56.98425 -1.48035 C 56.98 -1.64 56.97 -2.01 56.96026 -2.37886 A 1.8627 0.12402 180 0 0 55.95295 -2.3949 C 55.94 -1.73 55.93 -1.06 55.9174 -0.39454" />
    <path d="M 47.58074 0.60748 A 7.01309 0.46693 180 0 0 50.07296 0.62275" />
    <path d="M 47.57565 0.35749 C 47.58 0.44 47.58 0.52 47.58074 0.60748 A 1.3754 0.09157 180 0 0 47.3849 0.64054" />
    <path d="M 47.37445 0.35353 A 7.00655 0.46649 180 0 0 47.57565 0.35749 A 1.38413 0.09215 180 0 0 47.37582 0.39117" />
    <path d="M 50.07721 0.67783 C 50.11 -0.15 50.14 -0.99 50.17258 -1.81849" />
    <path d="M 50.24386 0.69745 C 50.12 0.69 50.05 0.69 50.07721 0.67783 C 50.12 0.69 50.05 0.69 50.07721 0.67783" />
    <path d="M 50.6986 1.23583 L 50.32846 1.1992" />
    <path d="M 50.67727 4.23643 L 50.6986 1.23583" />
    <path d="M 50.79409 11.0041 L 50.67727 4.23643" />
    <path d="M 52.4451 11.16749 L 50.79409 11.0041 L 47.76714 11.13968" />
    <path d="M 57.98497 4.48767 L 57.88381 4.52701 L 57.78019 4.63605 L 57.67423 4.81468 L 57.56601 5.06275 L 57.45564 5.38002 L 57.34322 5.7662 L 57.22886 6.22093 L 57.11266 6.74379 L 56.99472 7.33429 L 56.87516 7.9919 L 56.75409 8.716 L 56.63162 9.50593 L 56.50786 10.36095 L 56.38293 11.28027 L 47.19318 11.69189 L 47.09507 10.78256 L 46.99626 9.93751 L 46.89681 9.15753 L 46.79684 8.44332 L 46.69644 7.79557 L 46.59568 7.21486 L 46.49468 6.70173 L 46.39352 6.25665 L 46.29229 5.88004 L 46.19109 5.57225 L 46.09002 5.33356 L 45.98916 5.16419 L 45.88861 5.06429 L 45.78846 5.03397" />
    <path d="M 56.38293 11.28027 L 56.06199 11.28296 L 55.73883 11.2839 L 55.4156 11.28308 L 55.09446 11.2805 L 54.77756 11.27619 L 54.46702 11.27016 L 54.1649 11.26247 L 53.87322 11.25316 L 53.59394 11.24229 L 53.32891 11.22994 L 53.07991 11.21619 L 52.8486 11.20113 L 52.63652 11.18486 L 52.4451 11.16749 L 52.53575 -1.58507" />
    <path d="M 59.31001 12.14484 L 44.23687 12.81999 L 44.35015 5.09839" />
    <path d="M 59.31001 12.14484 A 5.1971 0.34602 180 0 0 61.60612 11.85835 L 61.80906 4.12557" />
    <path d="M 47.52096 4.37781 L 50.67727 4.23643" />
    <path d="M -19.2325 -8.51365 A 4 0.26632 360 0 1 -12.99973 -8.29268 A 4 0.26632 360 0 1 -20.99973 -8.29268 A 4 0.26632 360 0 1 -19.2325 -8.51365 Z" />
    <path d="M 2.77267 10.89128 L -10.77095 10.46358" />
    <path d="M 22.61208 11.68965 A 15.20294 1.0122 180 0 0 11.49388 11.11329 L 11.4576 3.39379" />
    <path d="M 22.61208 11.68965 A 9.79706 0.65228 180 0 0 23.93459 11.83145 L 23.7773 4.10718" />
    <path d="M 26.01486 12.01821 A 38.06536 2.53436 180 0 0 23.93459 11.83145" />
    <path d="M 26.01486 12.01821 L 27.86609 12.20142 L 27.69771 4.47616" />
    <path d="M 27.86609 12.20142 A 25.04461 1.66745 180 0 0 34.84134 12.66194 L 34.72948 4.94041" />
    <path d="M 34.84134 12.66194 L 38.47126 12.8216 L 38.3594 5.10007" />
    <path d="M 38.47126 12.8216 A 5.1971 0.34602 180 0 0 44.23687 12.81999" />
    <path d="M 55.69498 -2.40868 A 6.32856 0.42135 180 0 0 43.13055 -2.3361 A 6.32856 0.42135 180 0 0 43.38396 -2.2188 A 1.3747 0.09153 180 0 0 42.64978 -2.1376 A 1.3747 0.09153 180 0 0 42.92205 -2.08313" />
    <path d="M 55.69498 -2.40868 C 55.72 -2.4 55.83 -2.39 55.95295 -2.3949" />
    <path d="M 44.42109 -2.74157 A 7.89524 0.52566 180 0 0 41.56388 -2.33806 L 41.56041 -2.23872" />
    <path d="M 41.56388 -2.33806 A 7.89524 0.52566 180 0 0 41.72347 -2.23168 A 7.89524 0.52566 180 0 0 33.71248 -2.26095" />
    <path d="M 31.3279 -2.13724 A 1.52619 0.10161 180 0 0 33.71352 -2.22139" />
    <path d="M 31.3279 -2.13724 A 7.92144 0.5274 180 0 0 29.42387 -1.79517 L 29.38458 -0.29799" />
    <path d="M 29.42387 -1.79517 A 7.92144 0.5274 180 0 0 36.70832 -1.26855" />
    <path d="M 45.5704 -0.95556 L 45.79489 -0.96639 L 46.00743 -0.97825 L 46.20698 -0.99106 L 46.39256 -1.00477 L 46.56326 -1.01932 L 46.71825 -1.03462 L 46.85675 -1.0506 L 46.9781 -1.0672 L 47.0817 -1.08431 L 47.16704 -1.10187 L 47.2337 -1.11979 L 47.28135 -1.13797 L 47.30977 -1.15632 L 47.31881 -1.17477 L 47.78219 11.55298 L 47.77946 11.56342 L 47.77052 11.57384 L 47.75537 11.58424 L 47.73405 11.59458 L 47.70659 11.60487 L 47.67302 11.61507 L 47.63341 11.62517 L 47.58781 11.63516 L 47.5363 11.64503 L 47.47895 11.65475 L 47.41587 11.66431 L 47.34713 11.67369 L 47.27287 11.68289 L 47.19318 11.69189" />
    <path d="M 47.31881 -1.17477 L 47.3149 -1.18586 L 47.30396 -1.19694 L 47.28603 -1.20797 L 47.26114 -1.21894 L 47.22932 -1.22984 L 47.19064 -1.24063 L 47.14517 -1.25131 L 47.09298 -1.26185 L 47.03416 -1.27224 L 46.96883 -1.28245 L 46.89709 -1.29247 L 46.81908 -1.30228 L 46.73493 -1.31187 L 46.64479 -1.3212" />
    <path d="M 45.49749 -1.43475 L 46.64479 -1.3212" />
    <path d="M 44.72111 -1.51158 A 2.23731 0.14896 180 0 0 45.49749 -1.43475" />
    <path d="M 44.48854 -1.5346 L 44.72111 -1.51158" />
    <path d="M 44.49498 -1.54295 A 2.57856 0.17168 180 0 0 44.48854 -1.5346" />
    <path d="M 44.49498 -1.54295 L 43.46479 -1.5552 L 39.08944 -1.35923 L 38.98398 -1.36966 C 38.9 -1.38 38.73 -1.38 38.57454 -1.38092" />
    <path d="M 42.32722 -2.05408 A 6.32856 0.42135 180 0 0 31.01676 -1.79351 A 6.32856 0.42135 180 0 0 38.57454 -1.38092" />
    <path d="M 42.32722 -2.05408 C 42.4 -2.05 42.56 -2.05 42.66341 -2.05054 L 42.86115 -2.05939 C 42.97 -2.06 43 -2.08 42.92205 -2.08313 C 42.97 -2.06 43 -2.08 42.92205 -2.08313" />
    <path d="M 41.19073 -1.36001 L 39.6781 -1.15415 L 41.59942 -0.96401 L 45.03336 -0.97972 L 46.54599 -1.18557 L 44.62467 -1.37572 L 44.61938 -0.97782" />
    <path d="M 44.62467 -1.37572 L 41.19073 -1.36001 L 41.19674 -1.00386" />
    <path d="M 33.4319 -3.27474 A 1.5 0.09987 360 0 1 33.68733 -3.21917 L 33.71352 -2.22139" />
    <path d="M 33.68733 -3.21917 A 1.5 0.09987 360 1 1 30.68734 -3.21917 L 30.66115 -2.22139 A 1.52619 0.10161 180 0 0 31.02821 -2.15511" />
    <path d="M 30.68734 -3.21917 A 1.5 0.09987 360 0 1 33.4319 -3.27474" />
    <path d="M 14.98925 -3.23856 C 14.97 -2.57 14.94 -1.91 14.92081 -1.23995" />
    <path d="M 14.98925 -3.23856 A 16.14524 1.07494 180 0 0 24.45401 -2.30188" />
    <path d="M 16.41801 -3.72481 A 4.09524 0.27266 180 0 0 13.28721 -3.46045 L 13.21735 -1.46429" />
    <path d="M 13.28721 -3.46045 A 4.09524 0.27266 180 0 0 14.98925 -3.23856" />
    <path d="M 16.88048 -3.78725 A 16.14524 1.07494 180 0 0 16.41801 -3.72481" />
    <path d="M 14.44852 -4.02086 A 7.89524 0.52566 180 0 0 16.88048 -3.78725" />
    <path d="M 16.51654 -4.40501 A 4.89524 0.32592 180 0 0 14.18072 -4.12794 L 14.16324 -3.62835" />
    <path d="M 14.18072 -4.12794 A 4.89524 0.32592 180 0 0 14.44852 -4.02086 L 14.43623 -3.6492" />
    <path d="M 16.51654 -4.40501 A 64.10476 4.26805 180 0 0 20.9863 -4.60522" />
    <path d="M 27.11007 -4.58799 A 4.89524 0.32592 180 0 0 20.9863 -4.60522" />
    <path d="M 29.44372 -4.34997 A 7.89524 0.52566 180 0 0 27.11007 -4.58799" />
    <path d="M 30.4867 -4.35496 A 16.14524 1.07494 180 0 0 29.44372 -4.34997" />
    <path d="M 37.78995 -4.25984 A 4.09524 0.27266 180 0 0 30.4867 -4.35496" />
    <path d="M 44.45161 -3.88739 A 16.14524 1.07494 180 0 0 37.78995 -4.25984" />
    <path d="M 43.95102 -3.36773 A 4.09524 0.27266 180 0 0 40.7663 -3.10253 L 40.73713 -2.26892" />
    <path d="M 40.7663 -3.10253 A 4.09524 0.27266 180 0 0 43.93707 -2.83628" />
    <path d="M 30.67094 -2.59448 A 4.09524 0.27266 180 0 0 24.46793 -2.43401" />
    <path d="M 16.83277 -3.18963 A 14.35476 0.95573 180 0 0 24.46793 -2.43401" />
    <path d="M 16.83277 -3.18963 A 4.09524 0.27266 180 0 0 21.47766 -3.46045 L 21.50879 -2.57109" />
    <path d="M 21.47766 -3.46045 A 4.09524 0.27266 180 0 0 19.56881 -3.69037 A 7.89524 0.52566 180 0 0 21.16884 -3.66902" />
    <path d="M 29.47253 -4.04095 A 11.53492 0.76799 180 0 0 21.16884 -3.66902" />
    <path d="M 29.47253 -4.04095 A 7.89524 0.52566 180 0 0 29.77849 -4.14767 A 4.09524 0.27266 180 0 0 37.77603 -4.12771" />
    <path d="M 43.95996 -3.70845 A 14.35476 0.95573 180 0 0 37.77603 -4.12771" />
    <path d="M 35.34881 -4.26456 A 1.85476 0.12349 360 0 1 35.66465 -4.19534 A 1.85476 0.12349 360 0 1 31.95514 -4.19534 A 1.85476 0.12349 360 0 1 35.34881 -4.26456 Z" />
    <path d="M 43.94123 -2.99468 A 1.85476 0.12349 360 0 1 43.00677 -3.10161 A 1.85476 0.12349 360 0 1 43.94686 -3.20933" />
    <path d="M 29.97299 -2.43502 A 1.85476 0.12349 360 0 1 30.28883 -2.3658 A 1.85476 0.12349 360 0 1 26.57931 -2.3658 A 1.85476 0.12349 360 0 1 29.97299 -2.43502 Z" />
    <path d="M 18.92136 -3.52875 A 1.85476 0.12349 360 0 1 19.23719 -3.45953 A 1.85476 0.12349 360 0 1 15.52768 -3.45953 A 1.85476 0.12349 360 0 1 18.92136 -3.52875 Z" />
    <path d="M 47.33484 -0.73448 A 6.27619 0.41786 360 0 1 50.12688 -0.75677" />
    <path d="M 55.67719 -1.54562 C 55.67 -1.08 55.68 -1.74 55.69498 -2.40868" />
    <path d="M 47.73102 10.14756 A 16.54706 1.10169 180 0 0 50.67377 10.44085" />
    <path d="M 10.21261 11.04973 A 1.79706 0.11965 180 0 0 11.49388 11.11329" />
    <path d="M 10.21261 11.04973 A 4.82794 0.32144 180 0 0 4.18424 10.89495 L 4.25605 3.24092" />
    <path d="M 2.77267 10.89128 A 1.79706 0.11965 180 0 0 4.18424 10.89495" />
    <path d="M 47.38602 0.67115 A 7.98691 0.53176 180 0 0 49.46927 0.68938" />
    <path d="M 43.40643 -1.55259 C 43.43 -0.89 43.41 -1.55 43.38396 -2.2188" />
    <path d="M 47.41193 1.38304 L 50.6986 1.23583" />
    <path d="M 49.46928 1.18914 A 8 0.53263 360 0 1 47.40422 1.17127" />
    <path d="M 4.25925 3.18526 C 4.26 3.2 4.26 3.22 4.25605 3.24092" />
    <path d="M 10.03324 3.39103 C 10.03 3.37 10.03 3.35 10.03027 3.32286" />
    <path d="M 11.4576 3.39379 C 10.85 3.41 10.31 3.41 10.03324 3.39104" />
    <path d="M 44.49524 -1.53394 L 44.49522 -1.53458 L 44.4952 -1.53522 L 44.49519 -1.53587 L 44.49517 -1.53651 L 44.49515 -1.53715 L 44.49513 -1.5378 L 44.49511 -1.53844 L 44.49509 -1.53909 L 44.49508 -1.53973 L 44.49506 -1.54037 L 44.49504 -1.54102 L 44.49502 -1.54166 L 44.495 -1.54231 L 44.49498 -1.54295" />
    <path d="M 42.88774 -1.52936 C 42.93 -0.73 42.89 -1.39 42.86115 -2.05939" />
    <path d="M 29.47253 -4.04095 C 29.48 -3.71 29.49 -3.37 29.49951 -3.04108" />
    <path d="M 21.50542 -2.66727 A 7.93016 0.52798 180 0 0 23.10601 -2.6726" />
    <path d="M 21.17084 -3.56337 C 21.18 -3 21.18 -3.34 21.16884 -3.66902" />
    <path d="M 23.1102 -2.83235 A 11.5 0.76566 180 0 0 21.50418 -2.70283" />
    <path d="M 34.89914 -3.45004 A 4.55237 0.30309 180 0 0 26.56962 -3.28033 A 4.55237 0.30309 180 0 0 30.68104 -2.97919" />
    <path d="M 33.69228 -3.0307 A 4.55237 0.30309 180 0 0 35.67435 -3.28033 A 4.55237 0.30309 180 0 0 34.89914 -3.45004" />
    <path d="M 35.58752 -2.83892 A 8 0.53263 180 0 0 39.12197 -3.28179 L 39.14758 -2.30602" />
    <path d="M 39.12197 -3.28179 A 8 0.53263 180 0 0 23.122 -3.28179 L 23.10117 -2.48824" />
    <path d="M 23.122 -3.28179 A 8 0.53263 180 0 0 30.675 -2.74906" />
    <path d="M 33.69895 -2.77661 A 8 0.53263 180 0 0 35.58752 -2.83892" />
    <path d="M 58.02763 -1.51354 L 57.98497 4.48767" />
    <path d="M 45.76006 -4.58466 L 45.78233 -3.91119" />
    <path d="M -34.17787 -1.00413 L -34.31636 1.99256" />
    <path d="M -17.32421 -0.82042 L -17.32461 2.17815" />
    <path d="M -12.00179 -0.53294 L -12.07858 2.46151" />
    <path d="M -11.08263 2.73588 L -11.07646 2.5222 L -11.0703 2.30845 L -11.06414 2.09462 L -11.05798 1.88071 L -11.05182 1.66673 L -11.04566 1.45268 L -11.0395 1.23855 L -11.03335 1.02434 L -11.02719 0.81006 L -11.02104 0.59571 L -11.01489 0.38128 L -11.00874 0.16677 L -11.00259 -0.0478 L -10.99644 -0.26246" />
    <path d="M 2.92441 0.17716 L 2.92154 0.39155 L 2.91867 0.60593 L 2.91581 0.82029 L 2.91296 1.03462 L 2.9101 1.24895 L 2.90726 1.46325 L 2.90442 1.67753 L 2.90158 1.8918 L 2.89875 2.10604 L 2.89593 2.32027 L 2.89311 2.53447 L 2.89029 2.74866 L 2.88748 2.96283 L 2.88468 3.17697" />
    <path d="M 11.3185 0.39173 C 11.31 1.39 11.3 2.39 11.2853 3.39177" />
    <path d="M 23.8585 1.10943 L 23.7773 4.10718" />
    <path d="M 25.9334 1.29572 L 25.84648 4.29295" />
    <path d="M 34.78723 1.94125 L 34.72948 4.94041" />
    <path d="M 39.78425 1.98574 L 39.80558 -1.01487" />
    <path d="M 59.31001 12.14484 L 59.42329 4.42324" />
    <path d="M 2.77267 10.89128 L 2.6857 3.17069" />
    <path d="M 22.61208 11.68965 L 22.42739 3.96244" />
    <path d="M 26.01486 12.01821 L 25.84648 4.29295" />
    <path d="M 50.74647 8.24523 L 50.57156 4.24117" />
    <path d="M 10.21261 11.04973 L 10.03324 3.39103" />
    <path d="M 42.66329 -1.5193 L 42.6633 -1.55722 L 42.66331 -1.59513 L 42.66332 -1.63305 L 42.66333 -1.67098 L 42.66334 -1.70891 L 42.66335 -1.74685 L 42.66336 -1.78479 L 42.66337 -1.82274 L 42.66337 -1.86069 L 42.66338 -1.89865 L 42.66339 -1.93662 L 42.6634 -1.97458 L 42.66341 -2.01256 L 42.66341 -2.05054" />
    <path d="M 59.40582 -1.88338 Q 59.41 -1.78 59.41647 -1.68455" />
    <path d="M 60.13984 0.75067 L 60.15802 1.24979" />
    <path d="M 59.87866 -1.67049 C 59.9 -1.26 59.92 -0.85 59.94586 -0.43469 C 59.97 -0.02 59.99 0.4 60.01343 0.8151" />
    <path d="M 61.70429 1.13077 L 61.80905 4.1241" />
    <path d="M 45.834 -4.64322 L 45.85825 -3.90995" />
    <path d="M -79.49973 -8.29268 L -79.49973 -2.306" />
    <path d="M 45.50027 -8.29268 L 45.50027 -5.044" />
    <path d="M -11.93929 2.64548 C -11.91 1.65 -11.88 0.65 -11.85311 -0.35285" />
    <path d="M 29.38506 -0.31618 L 27.82806 1.15443" />
    <path d="M 13.21768 -1.4739 L 12.15905 -0.49142" />
    <path d="M 57.33347 -2.39337 C 57.34 -2.11 57.35 -1.83 57.36094 -1.55332" />
    <path d="M 50.16783 -1.81646 C 50.15 -1.4 50.14 -0.99 50.12 -0.57975 C 50.1 -0.16 50.09 0.26 50.0707 0.68014" />
    <path d="M 50.40329 4.2487 L 50.69856 11.00838" />
    <path d="M 42.97137 -2.07697 C 42.98 -1.9 42.99 -1.72 42.9986 -1.53432" />
</svg>