<svg version="1.1" xmlns="http://www.w3.org/2000/svg" viewBox="-76.28170703441054 -20.320272244359426 146.04011528626026 40.91082543016915" fill="none" stroke="black" stroke-width="0.6%" vector-effect="non-scaling-stroke">
    <path d="M 64.57774 18.3341 L 68.75841 16.98919 L 68.75841 -4.93248 L 61.07637 -6.04019 L 62.11173 -6.2726 L 63.08406 -7.02898 L 63.00712 -7.07391" />
    <path d="M 59.92413 19.04461 A 5 0.42155 180 0 0 64.57774 18.62407" />
    <path d="M 52.42676 19.40682 L 59.92413 19.04461" />
    <path d="M 44.16855 19.40663 A 5 0.42155 180 0 0 52.42676 19.40682" />
    <path d="M 27.28549 19.0336 L 44.16855 19.40663" />
    <path d="M 20.51097 18.05675 L 27.28549 19.0336 L 27.28549 -2.88808 L 44.16855 -2.51504 L 44.16855 19.40663" />
    <path d="M 11.72619 17.83051 L 20.51097 18.05675 L 20.51097 15.06743" />
    <path d="M 6.30151 17.5515 L 11.72619 17.83051 L 11.72619 14.84119 L 20.51097 15.06743" />
    <path d="M -13.23985 15.42468 A 65 5.48011 360 0 1 -71.71937 9.97222" />
    <path d="M 2.10932 17.2798 A 5 0.42155 180 0 0 6.30151 17.5515" />
    <path d="M -2.85345 16.84976 L 2.10932 17.2798" />
    <path d="M -4.36172 16.62786 A 5 0.42155 360 0 1 -13.23985 16.36178" />
    <path d="M -4.36172 16.62786 L -2.85345 16.84976 L -2.85345 13.86044 L 2.10932 14.29049 L 2.10932 17.2798" />
    <path d="M 64.18528 -3.46131 L 68.75841 -4.93248" />
    <path d="M 59.92413 7.08733 L 59.92413 19.04461" />
    <path d="M 62.77391 -3.62177 A 5 0.42155 180 0 0 54.57774 -3.2976 A 5 0.42155 180 0 0 64.57774 -3.2976 A 5 0.42155 180 0 0 64.18528 -3.46131" />
    <path d="M 59.92413 7.08733 A 5 0.42155 360 0 1 54.57774 6.6668" />
    <path d="M 61.85153 -7.74881 A 5 0.42155 360 0 1 64.51904 -7.37594 A 5 0.42155 360 0 1 63.00712 -7.07391" />
    <path d="M 52.42676 7.44955 L 59.92413 7.08733" />
    <path d="M 52.42676 7.44955 L 52.42676 19.40682" />
    <path d="M 43.34667 -2.69424 A 5 0.42155 360 0 1 43.29842 -2.75267 A 5 0.42155 360 0 1 53.29842 -2.75267 A 5 0.42155 360 0 1 44.16855 -2.51504" />
    <path d="M 53.29842 7.21173 A 5 0.42155 360 0 1 52.42676 7.44955" />
    <path d="M 19.40335 -4.02464 L 27.28549 -2.88808" />
    <path d="M 19.40335 14.90771 L 19.40335 -4.02464" />
    <path d="M 19.40335 14.90771 L 20.51097 15.06743" />
    <path d="M 6.30151 14.56218 L 11.72619 14.84119" />
    <path d="M 6.30151 14.56218 L 6.30151 17.5515" />
    <path d="M -12.71937 1.52619 A 65 5.48011 180 0 0 -28.0601 1.80657 L -25.48411 1.9329 L -25.49545 2.22798 L -28.53219 2.37469 L -31.55759 2.22632 L -31.54626 1.93124 L -30.63425 1.88718 L -30.63425 2.2716" />
    <path d="M -28.0601 1.80657 L -28.0601 2.35188" />
    <path d="M -30.63425 1.88718 A 65 5.48011 180 0 0 -36.2879 2.10263 A 7.1 0.5986 360 0 1 -41.71108 2.36464 A 65 5.48011 180 0 0 -46.77433 2.66695 L -45.86232 2.62289 L -42.83692 2.77126 L -42.84826 3.06634 L -45.885 3.21305 L -48.9104 3.06468 L -48.90075 2.81343 L -48.90075 3.06516" />
    <path d="M -46.77433 2.66695 L -46.77433 3.16944" />
    <path d="M -48.90075 2.81343 A 65 5.48011 180 0 0 -71.71937 6.9829 A 65 5.48011 180 0 0 -13.23985 12.43536" />
    <path d="M 2.10932 14.29049 A 5 0.42155 360 0 1 1.79185 14.14267" />
    <path d="M 8.62671 -4.39755 A 5 0.42155 360 0 1 1.79185 -4.78968 A 5 0.42155 360 0 1 1.83585 -4.84549" />
    <path d="M 8.62671 -4.39755 L 8.62671 14.53481 L 12.34073 14.72583 L 19.40335 14.90771" />
    <path d="M 8.62671 14.53481 A 5 0.42155 360 0 1 6.30151 14.56218" />
    <path d="M -3.516 5.5391 L -3.516 13.51061 L -1.65573 13.78431 L -1.65573 -5.14804 L 1.83585 -4.84549" />
    <path d="M -3.516 13.51061 A 5 0.42155 360 0 1 -4.36172 13.63854 L -2.85345 13.86044" />
    <path d="M -4.36172 13.63854 L -4.36172 16.62786" />
    <path d="M -3.516 5.5391 A 5 0.42155 360 0 1 -13.23985 5.40094 A 5 0.42155 360 0 1 -6.63628 5.00166" />
    <path d="M 58.32475 -8.48429 L 52.89217 -9.09178 L 52.0118 -9.151" />
    <path d="M -35.30793 2.77676 A 57.5 4.84779 360 0 1 -12.71937 2.16157" />
    <path d="M -13.23985 11.79941 A 57.5 4.84779 360 0 1 -64.21937 6.9829 A 57.5 4.84779 360 0 1 -35.30793 2.77676" />
    <path d="M 61.79473 -7.78198 L 58.32475 -8.48429" />
    <path d="M 61.85153 -7.74881 L 61.79473 -7.78198" />
    <path d="M 62.11173 -5.89089 L 62.11173 -6.2726" />
    <path d="M 62.77391 -3.62177 L 66.77698 -4.90955 L 64.76269 -5.2 L 64.76269 -4.26156" />
    <path d="M 64.76269 -5.2 L 64.79081 -5.20136" />
    <path d="M 58.82451 -6.07916 L 64.79081 -5.20136" />
    <path d="M 60.34288 -6.15252 L 58.82451 -6.07916" />
    <path d="M 60.34288 -6.15252 L 59.80787 -6.23123 L 60.16606 -6.31164 L 61.01723 -6.97376" />
    <path d="M 59.56872 -7.79746 A 5 0.42155 180 0 0 54.51904 -7.37594 L 54.51904 3.2187" />
    <path d="M 54.51904 -7.37594 A 5 0.42155 180 0 0 61.01723 -6.97376" />
    <path d="M 59.56872 -7.79746 L 57.27852 -8.26099 L 57.27852 -7.75279" />
    <path d="M 52.82894 -8.82097 A 5 0.42155 180 0 0 47.55835 -8.40004 L 47.55835 -3.16957" />
    <path d="M 47.55835 -8.40004 A 5 0.42155 180 0 0 57.27852 -8.26099" />
    <path d="M 52.82894 -8.82097 L 51.4587 -8.9742 L 50.16018 -9.06155 L 50.16018 -8.76994" />
    <path d="M 50.16018 -9.06155 L 52.0118 -9.151" />
    <path d="M 60.44783 -3.16959 A 1.75 0.14754 360 0 1 57.82774 -3.2976 A 1.75 0.14754 360 0 1 61.32774 -3.2976 A 1.75 0.14754 360 0 1 60.44783 -3.16959 Z" />
    <path d="M 53.42843 -8.27203 A 1.75 0.14754 360 0 1 50.80835 -8.40004 A 1.75 0.14754 360 0 1 54.30835 -8.40004 A 1.75 0.14754 360 0 1 53.42843 -8.27203 Z" />
    <path d="M 60.38913 -7.24793 A 1.75 0.14754 360 0 1 57.76904 -7.37594 A 1.75 0.14754 360 0 1 61.26904 -7.37594 A 1.75 0.14754 360 0 1 60.38913 -7.24793 Z" />
    <path d="M 54.57774 6.47109 L 53.29842 6.5329" />
    <path d="M 63.08406 -5.75069 L 63.08406 -7.02898" />
    <path d="M 28.49428 -3.02241 L 43.34667 -2.69424" />
    <path d="M 12.34073 -4.20652 L 19.40335 -4.02464" />
    <path d="M 8.62671 -4.39755 L 12.34073 -4.20652" />
    <path d="M 26.28465 -3.34103 L 28.49428 -3.02241" />
    <path d="M -6.14239 -5.80815 L -1.65573 -5.14804" />
    <path d="M 26.18081 -3.33601 L 26.28465 -3.34103" />
    <path d="M -7.6484 -6.26866 L -6.14239 -5.80815" />
    <path d="M 20.21451 -4.21381 L 26.18081 -3.33601" />
    <path d="M -7.6484 -6.26866 L -5.87097 -6.35454 L -4.6908 -5.99366" />
    <path d="M 20.21451 -4.21381 L 18.69614 -4.14046 L 17.27992 -4.34882 L 17.2413 -4.3364 L 17.92651 -4.23759" />
    <path d="M -1.07614 -5.39924 A 5 0.42155 180 0 0 4.83116 -5.81379 L 4.83116 -5.17747" />
    <path d="M 4.83116 -5.81379 A 5 0.42155 180 0 0 -4.6908 -5.99366" />
    <path d="M -1.07614 -5.39924 L -0.05876 -5.24955 L 2.59859 -5.01929" />
    <path d="M 13.16012 -4.36034 L 17.92651 -4.23759" />
    <path d="M 10.43173 -4.50067 A 5 0.42155 180 0 0 11.79185 -4.78968 L 11.79185 -4.43071" />
    <path d="M 11.79185 -4.78968 A 5 0.42155 180 0 0 2.59859 -5.01929" />
    <path d="M 10.43173 -4.50067 L 13.16012 -4.36034" />
    <path d="M 7.66194 -4.66167 A 1.75 0.14754 360 0 1 5.04185 -4.78968 A 1.75 0.14754 360 0 1 8.54185 -4.78968 A 1.75 0.14754 360 0 1 7.66194 -4.66167 Z" />
    <path d="M 0.70125 -5.68577 A 1.75 0.14754 360 0 1 -1.91884 -5.81379 A 1.75 0.14754 360 0 1 1.58116 -5.81379 A 1.75 0.14754 360 0 1 0.70125 -5.68577 Z" />
    <path d="M 49.36738 -2.59539 A 1.75 0.14754 360 0 1 46.7473 -2.72341 A 1.75 0.14754 360 0 1 50.2473 -2.72341 A 1.75 0.14754 360 0 1 49.36738 -2.59539 Z" />
    <path d="M 12.34073 14.72583 L 12.34073 -4.20652" />
    <path d="M -31.54626 2.22688 L -31.54626 1.93124" />
    <path d="M -45.86232 3.21196 L -45.86232 2.62289" />
    <path d="M -1.65573 13.78431 L 1.79185 14.08305" />
    <path d="M -6.14239 5.15269 L -6.14239 -5.80815" />
    <path d="M -3.516 5.5391 L -6.14239 5.15269 L -6.63628 5.00166" />
    <path d="M -7.21954 4.98827 L -7.21954 3.82687 L -7.16795 3.85202 L -7.1387 3.85159 L -7.21954 3.82687" />
    <path d="M -7.1387 3.85159 L -7.1387 4.98975" />
    <path d="M -7.6484 4.98235 L -7.6484 -6.26866" />
    <path d="M -7.36977 5.52895 A 1.75 0.14754 360 0 1 -9.98985 5.40094 A 1.75 0.14754 360 0 1 -6.48985 5.40094 A 1.75 0.14754 360 0 1 -7.36977 5.52895 Z" />
    <path d="M 51.4587 -8.81127 L 51.4587 -8.9742" />
    <path d="M -7.16795 4.9892 L -7.16795 3.85202" />
    <path d="M -35.30793 3.7732 A 57.5 4.84779 180 0 0 -63.9149 7.48112" />
    <path d="M -12.71937 3.15801 A 57.5 4.84779 180 0 0 -35.30793 3.7732" />
    <path d="M 58.82451 -3.71434 L 58.82451 -6.07916" />
    <path d="M 59.80787 -6.12667 L 59.80787 -6.23123" />
    <path d="M 53.29842 3.66636 L 54.57774 3.60455" />
    <path d="M 17.2413 -4.25524 L 17.2413 -4.3364" />
    <path d="M -13.23985 9.57339 A 20 1.68619 360 0 1 -26.71937 7.97934" />
    <path d="M 54.57774 3.21587 L 53.29842 3.27768" />
    <path d="M -13.23985 8.57695 A 20 1.68619 360 0 1 -26.71937 6.9829 L -26.71937 7.97934" />
    <path d="M -26.71937 6.9829 A 20 1.68619 360 0 1 -13.23777 5.38878" />
    <path d="M -9.70253 -5.41328 A 6 0.50586 360 0 1 -7.6484 -5.47413" />
    <path d="M -7.6484 -4.47462 A 6 0.50586 360 0 1 -12.71937 -4.97438 L -12.71937 5.21367" />
    <path d="M -12.71937 -4.97438 A 6 0.50586 360 0 1 -9.70253 -5.41328" />
    <path d="M -7.6484 -4.63338 A 4.15 0.34988 360 0 1 -10.86937 -4.97438 A 4.15 0.34988 360 0 1 -7.6484 -5.31538" />
    <path d="M -46.77433 2.94508 L -48.90075 3.0499" />
    <path d="M -71.41968 6.45726 A 5 0.42155 360 0 1 -75.28171 6.04678" />
    <path d="M -56.08708 3.40415 A 5 0.42155 180 0 0 -55.98541 3.40808" />
    <path d="M -56.08708 3.40415 L -56.22507 3.41096" />
    <path d="M -27.54276 -18.85465 A 5 0.42155 360 0 1 -18.31216 -18.62997 L -18.31216 -18.245" />
    <path d="M -18.31216 -18.62997 A 5 0.42155 360 0 1 -21.74072 -18.22978" />
    <path d="M -27.54276 -18.85465 L -45.05791 -19.24166 L -49.22597 -19.03619 A 5 0.42155 180 0 0 -58.95263 -18.89872 L -58.95263 -18.55672" />
    <path d="M -12.84305 -7.9864 A 5 0.42155 0 0 1 -9.75272 -7.59681 L -9.75272 -5.41083" />
    <path d="M -9.75272 -7.59681 A 5 0.42155 0 0 1 -12.84305 -7.20722" />
    <path d="M -21.13575 -18.14255 A 5 0.42155 360 0 1 -12.84305 -17.82532 L -12.84305 1.52716" />
    <path d="M -12.84305 -17.82532 A 5 0.42155 360 0 1 -22.84305 -17.82532 L -22.84305 1.67407" />
    <path d="M -22.84305 -17.82532 A 5 0.42155 360 0 1 -22.3464 -18.00848 L -23.74393 -18.21 A 5 0.42155 360 0 1 -28.31216 -18.62997 L -28.31216 2.36406" />
    <path d="M -58.95263 -18.89872 A 5 0.42155 180 0 0 -57.69184 -18.61887 L -62.23656 -18.39484 L -66.71039 -16.95562 A 5 0.42155 180 0 0 -71.69418 -16.53407 L -71.69418 -5.31844" />
    <path d="M -23.74393 -18.21 L -23.74393 1.6941" />
    <path d="M -28.31216 -18.62997 A 5 0.42155 360 0 1 -28.22427 -18.70866 L -44.78598 -19.0746 L -48.96544 -18.86858 A 5 0.42155 360 0 1 -56.08708 -18.51752 L -60.6432 -18.29292 L -64.88864 -16.92717 A 5 0.42155 360 0 1 -61.69418 -16.53407 L -61.69418 -16.27492" />
    <path d="M -44.78598 2.54088 L -44.78598 -19.0746" />
    <path d="M -66.22507 -5.15355 A 5 0.42155 360 0 1 -70.80516 -5.33329 A 5 0.42155 180 0 0 -75.28171 -4.91406 L -75.28171 6.04678" />
    <path d="M -63.42158 -16.21536 L -63.42158 -16.10811" />
    <path d="M -71.69418 -16.53407 A 5 0.42155 180 0 0 -63.42158 -16.21536 L -62.82188 -16.12889 A 5 0.42155 180 0 0 -66.22507 -15.72942 L -66.22507 -4.76858" />
    <path d="M -48.96544 -18.86858 L -48.96544 2.81809" />
    <path d="M -66.11581 -4.68094 L -66.11581 4.75697" />
    <path d="M -75.28171 -4.91406 A 5 0.42155 180 0 0 -66.11581 -4.68094 A 5 0.42155 360 0 1 -66.22507 -4.76858" />
    <path d="M -56.08708 -18.51752 L -56.08708 3.40415" />
    <path d="M -66.22507 -15.72942 A 5 0.42155 180 0 0 -56.22507 -15.72942 L -56.22507 3.4317" />
    <path d="M -56.22507 -15.72942 A 5 0.42155 180 0 0 -60.82519 -16.14962" />
    <path d="M -60.6432 -16.1481 L -60.6432 -18.29292" />
    <path d="M -62.2046 -16.34852 L -60.82519 -16.14962" />
    <path d="M -61.69418 -16.53407 A 5 0.42155 360 0 1 -62.2046 -16.34852" />
    <path d="M -21.13575 -18.14255 L -21.74072 -18.22978" />
    <path d="M -60.35498 -15.60141 A 1.75 0.14754 360 0 1 -62.97507 -15.72942 A 1.75 0.14754 360 0 1 -59.47507 -15.72942 A 1.75 0.14754 360 0 1 -60.35498 -15.60141 Z" />
    <path d="M -65.8241 -16.40606 A 1.75 0.14754 360 0 1 -68.44418 -16.53407 A 1.75 0.14754 360 0 1 -64.94418 -16.53407 A 1.75 0.14754 360 0 1 -65.8241 -16.40606 Z" />
    <path d="M -53.28142 -18.79997 A 1.75 0.14754 360 0 1 -55.90151 -18.92798 A 1.75 0.14754 360 0 1 -52.40151 -18.92798 A 1.75 0.14754 360 0 1 -53.28142 -18.79997 Z" />
    <path d="M -16.97296 -17.6973 A 1.75 0.14754 360 0 1 -19.59305 -17.82532 A 1.75 0.14754 360 0 1 -16.09305 -17.82532 A 1.75 0.14754 360 0 1 -16.97296 -17.6973 Z" />
    <path d="M -22.44208 -18.50196 A 1.75 0.14754 360 0 1 -25.06216 -18.62997 A 1.75 0.14754 360 0 1 -21.56216 -18.62997 A 1.75 0.14754 360 0 1 -22.44208 -18.50196 Z" />
    <path d="M -69.41162 -4.78605 A 1.75 0.14754 360 0 1 -72.03171 -4.91406 A 1.75 0.14754 360 0 1 -68.53171 -4.91406 A 1.75 0.14754 360 0 1 -69.41162 -4.78605 Z" />
    <path d="M 54.57774 -3.2976 L 54.57774 6.6668" />
    <path d="M 64.57774 -3.2976 L 64.57774 18.62407" />
    <path d="M 64.51904 -7.37594 L 64.51904 -5.54377" />
    <path d="M 43.29842 -2.75267 L 43.29842 -2.69531" />
    <path d="M 53.29842 -2.75267 L 53.29842 7.21173" />
    <path d="M -71.71937 6.9829 L -71.71937 9.97222" />
    <path d="M 1.79185 -4.78968 L 1.79185 14.14267" />
    <path d="M -13.23985 5.40094 L -13.23985 16.36178" />
</svg>